<svg class="ionicon s-ion-icon" width="39" height="40" viewBox="0 0 39 40" fill="none" xmlns="http://www.w3.org/2000/svg">
<path d="M0.157715 20.7532C0.157715 29.6341 5.82459 36.9926 13.4791 39.7837C13.902 39.9529 14.2403 39.7414 14.4095 39.3185L15.4244 36.6542C15.5936 36.1891 15.4244 35.8507 14.9592 35.6393C8.99634 33.1442 4.76733 27.6465 4.76733 20.7532C4.76733 10.7304 10.7725 4.51378 20.1186 4.51378C29.3802 4.51378 33.9898 10.4767 33.9898 18.2158C33.9898 22.4871 32.3828 26.2932 29.6339 26.2932C28.2383 26.2932 27.0119 25.6165 27.0119 21.8104V14.0713C27.0119 13.6061 26.6313 13.2678 26.2084 13.2678H25.4895C23.9247 13.2678 24.0093 13.9445 23.5018 15.34C22.8252 14.6211 21.0913 12.8449 18.3847 12.8449C13.8597 12.8449 10.6034 16.6087 10.6034 21.6836C10.6034 26.5469 13.8174 30.6068 18.2579 30.6068C20.9221 30.6068 22.8675 29.0843 23.7556 27.3081H24.0939C24.7705 29.0843 26.2084 30.6068 29.1264 30.6068C36.2312 30.6068 38.7263 23.5866 38.7263 18.0043C38.7263 7.8124 32.0021 0.157898 20.2878 0.157898C8.27741 0.157898 0.157715 8.74279 0.157715 20.7532ZM15.0015 21.3875C15.1284 18.8501 16.6086 17.1162 18.6385 17.1162C20.6684 17.1162 22.064 18.8924 22.2754 19.9074V21.4721C22.1908 23.7981 21.3873 26.0817 18.6808 26.0817C16.6509 26.0817 14.8324 24.0941 15.0015 21.3875Z" fill="var(--ion-text-color)"/>
</svg>
