<svg width="38" height="38" viewBox="0 0 38 38" fill="none" xmlns="http://www.w3.org/2000/svg">
<path d="M29.5 9H27V10.5C27 10.775 26.775 11 26.5 11H25.5C25.225 11 25 10.775 25 10.5V9H13V10.5C13 10.775 12.775 11 12.5 11H11.5C11.225 11 11 10.775 11 10.5V9H8.5C7.125 9 6 10.125 6 11.5V28.5C6 29.875 7.125 31 8.5 31H29.5C30.875 31 32 29.875 32 28.5V11.5C32 10.125 30.875 9 29.5 9ZM30 27.75C30 28.4375 29.4375 29 28.75 29H9.25C8.5625 29 8 28.4375 8 27.75V16.5C8 16.225 8.225 16 8.5 16H29.5C29.775 16 30 16.225 30 16.5V27.75ZM13 7.5C13 7.225 12.775 7 12.5 7H11.5C11.225 7 11 7.225 11 7.5V9H13V7.5ZM27 7.5C27 7.225 26.775 7 26.5 7H25.5C25.225 7 25 7.225 25 7.5V9H27V7.5Z" fill="var(--ion-text-color)"/>
</svg>
