<svg viewBox="-24 -25 380 380" fill="none" xmlns="http://www.w3.org/2000/svg">
<path d="M333.628 157.371C328.229 244.204 255.62 312.893 167 312.893C78.3802 312.893 5.77148 244.204 0.372375 157.371C0.186199 160.889 0 164.406 0 167.924C0 259.571 74.6566 333.999 167 333.999C259.343 333.999 334 259.756 334 167.924C333.814 164.406 333.814 160.889 333.628 157.371Z" fill="currentColor"/>
<path fill-rule="evenodd" clip-rule="evenodd" d="M168.182 293.795C249.309 293.795 315.076 228.026 315.076 146.897C315.076 65.7682 249.309 0 168.182 0C87.0553 0 21.2888 65.7682 21.2888 146.897C21.2888 228.026 87.0553 293.795 168.182 293.795ZM233.45 213.922H217.02V198.014C208.848 196.913 201.865 194.131 196.069 189.668C190.274 185.148 185.869 179.381 182.856 172.369C179.842 165.356 178.306 157.533 178.248 148.897C178.306 140.204 179.871 132.38 182.943 125.426C186.072 118.413 190.506 112.705 196.243 108.3C202.039 103.838 208.964 101.056 217.02 99.955V83.6988H233.45V100.129C241.737 101.52 248.75 104.765 254.487 109.865C260.283 114.907 264.137 121.398 266.049 129.338L245.186 134.988C243.563 129.946 240.868 126.034 237.101 123.253C233.334 120.413 229.045 118.993 224.235 118.993C216.006 118.993 209.978 121.833 206.153 127.512C202.386 133.134 200.474 140.262 200.416 148.897C200.474 157.822 202.473 165.038 206.414 170.543C210.413 176.049 216.353 178.802 224.235 178.802C229.799 178.802 234.174 177.527 237.362 174.977C240.607 172.427 243.041 168.747 244.664 163.937L266.049 168.718C263.557 176.773 259.5 183.264 253.879 188.19C248.315 193.117 241.506 196.275 233.45 197.666V213.922ZM143.208 195.772C135.583 201.14 126.249 203.824 115.207 203.824C105.019 203.824 96.3262 201.567 89.1277 197.053C81.9292 192.477 76.4082 186.255 72.5649 178.385C68.7827 170.516 66.861 161.609 66.8 151.665C66.861 141.539 68.8437 132.571 72.748 124.762C76.7133 116.893 82.3257 110.731 89.5852 106.278C96.8448 101.764 105.477 99.5065 115.482 99.5065C126.707 99.5065 136.223 102.343 144.032 108.017C151.84 113.629 156.904 121.316 159.222 131.076L137.26 137.024C135.552 131.717 132.715 127.599 128.75 124.671C124.785 121.682 120.271 120.187 115.207 120.187C106.545 120.187 100.2 123.176 96.1737 129.155C92.2084 135.072 90.1953 142.576 90.1343 151.665C90.1953 161.06 92.2999 168.655 96.4482 174.451C100.658 180.246 106.911 183.144 115.207 183.144C121.064 183.144 125.669 181.802 129.025 179.117C132.441 176.433 135.003 172.559 136.711 167.496L159.222 172.529C156.172 182.595 150.834 190.342 143.208 195.772Z" fill="currentColor"/>
</svg>
