<svg viewBox="-24 -25 380 380" fill="none" xmlns="http://www.w3.org/2000/svg">
<path d="M333.628 175.677C328.229 262.51 255.62 331.199 167 331.199C78.3802 331.199 5.77148 262.51 0.372375 175.677C0.186199 179.195 0 182.713 0 186.23C0 277.877 74.6566 352.306 167 352.306C259.343 352.306 334 278.062 334 186.23C333.814 182.713 333.814 179.195 333.628 175.677Z" fill="currentColor"/>
<path fill-rule="evenodd" clip-rule="evenodd" d="M167 334C259.232 334 334 259.232 334 167C334 74.7684 259.232 0 167 0C74.7684 0 0 74.7684 0 167C0 259.232 74.7684 334 167 334ZM168.182 313.101C249.309 313.101 315.076 247.333 315.076 166.204C315.076 85.0746 249.309 19.3064 168.182 19.3064C87.0553 19.3064 21.2888 85.0746 21.2888 166.204C21.2888 247.333 87.0553 313.101 168.182 313.101Z" fill="currentColor"/>
<path d="M217.02 232.229H233.45V215.972C241.506 214.582 248.315 211.423 253.879 206.497C259.5 201.571 263.557 195.08 266.049 187.024L244.664 182.243C243.041 187.053 240.607 190.733 237.362 193.283C234.174 195.833 229.799 197.108 224.235 197.108C216.353 197.108 210.413 194.355 206.414 188.85C202.473 183.344 200.474 176.129 200.416 167.204C200.474 158.569 202.386 151.44 206.153 145.819C209.978 140.139 216.006 137.299 224.235 137.299C229.045 137.299 233.334 138.719 237.101 141.559C240.868 144.341 243.563 148.253 245.186 153.295L266.049 147.644C264.137 139.704 260.283 133.214 254.487 128.172C248.75 123.072 241.737 119.826 233.45 118.435V102.005H217.02V118.261C208.964 119.363 202.039 122.144 196.243 126.607C190.506 131.011 186.072 136.72 182.943 143.732C179.871 150.687 178.306 158.511 178.248 167.204C178.306 175.839 179.842 183.663 182.856 190.675C185.869 197.688 190.274 203.454 196.069 207.975C201.865 212.437 208.848 215.219 217.02 216.32V232.229Z" fill="currentColor"/>
<path d="M115.207 222.131C126.249 222.131 135.583 219.446 143.208 214.078C150.834 208.649 156.172 200.901 159.222 190.835L136.711 185.802C135.003 190.866 132.441 194.74 129.025 197.424C125.669 200.108 121.064 201.45 115.207 201.45C106.911 201.45 100.658 198.552 96.4483 192.757C92.3 186.962 90.1953 179.366 90.1343 169.972C90.1953 160.882 92.2085 153.379 96.1738 147.461C100.2 141.483 106.545 138.493 115.207 138.493C120.271 138.493 124.785 139.988 128.75 142.977C132.715 145.905 135.552 150.023 137.26 155.331L159.222 149.383C156.904 139.622 151.84 131.935 144.032 126.323C136.223 120.65 126.707 117.813 115.482 117.813C105.477 117.813 96.8448 120.07 89.5853 124.584C82.3257 129.038 76.7133 135.199 72.748 143.069C68.8437 150.877 66.8611 159.845 66.8 169.972C66.8611 179.916 68.7827 188.822 72.565 196.692C76.4083 204.561 81.9292 210.784 89.1277 215.359C96.3263 219.874 105.019 222.131 115.207 222.131Z" fill="currentColor"/>
</svg>
