<svg viewBox="-44 -35 420 420" fill="none" xmlns="http://www.w3.org/2000/svg">
<circle cx="167" cy="167" r="167" fill="white"/>
<path d="M333.628 176.677C328.229 263.51 255.62 332.199 167 332.199C78.3802 332.199 5.77148 263.51 0.372375 176.677C0.186199 180.195 0 183.713 0 187.23C0 278.877 74.6566 353.306 167 353.306C259.343 353.306 334 279.062 334 187.23C333.814 183.713 333.814 180.195 333.628 176.677Z" fill="#3F3D56"/>
<ellipse cx="168.182" cy="166.204" rx="146.894" ry="146.897" fill="#99CC33"/>
<path d="M217.02 233.229H233.45V216.972C241.506 215.581 248.315 212.423 253.879 207.497C259.5 202.571 263.557 196.08 266.049 188.024L244.664 183.243C243.041 188.053 240.607 191.733 237.362 194.283C234.174 196.833 229.799 198.108 224.235 198.108C216.353 198.108 210.413 195.355 206.414 189.85C202.473 184.344 200.474 177.129 200.416 168.204C200.474 159.569 202.386 152.44 206.153 146.819C209.978 141.139 216.006 138.299 224.235 138.299C229.045 138.299 233.334 139.719 237.101 142.559C240.868 145.341 243.563 149.253 245.186 154.295L266.049 148.644C264.137 140.704 260.283 134.214 254.487 129.172C248.75 124.072 241.737 120.826 233.45 119.435V103.005H217.02V119.261C208.964 120.362 202.039 123.144 196.243 127.607C190.506 132.011 186.072 137.72 182.943 144.732C179.871 151.687 178.306 159.511 178.248 168.204C178.306 176.839 179.842 184.663 182.856 191.675C185.869 198.688 190.274 204.454 196.069 208.975C201.865 213.437 208.848 216.219 217.02 217.32V233.229Z" fill="white"/>
<path d="M115.207 223.131C126.249 223.131 135.583 220.446 143.208 215.078C150.834 209.649 156.172 201.901 159.222 191.835L136.711 186.802C135.003 191.866 132.441 195.74 129.025 198.424C125.669 201.108 121.064 202.45 115.207 202.45C106.911 202.45 100.658 199.552 96.4482 193.757C92.2999 187.962 90.1953 180.366 90.1343 170.972C90.1953 161.882 92.2084 154.379 96.1737 148.461C100.2 142.483 106.545 139.493 115.207 139.493C120.271 139.493 124.785 140.988 128.75 143.977C132.715 146.905 135.552 151.023 137.26 156.331L159.222 150.383C156.904 140.622 151.84 132.935 144.032 127.323C136.223 121.65 126.707 118.813 115.482 118.813C105.477 118.813 96.8448 121.07 89.5852 125.584C82.3257 130.038 76.7133 136.199 72.748 144.069C68.8437 151.877 66.861 160.845 66.8 170.972C66.861 180.915 68.7827 189.822 72.565 197.692C76.4082 205.561 81.9292 211.784 89.1277 216.359C96.3262 220.873 105.019 223.131 115.207 223.131Z" fill="white"/>
</svg>
