<svg width="18" height="18" viewBox="0 0 18 18" fill="none" xmlns="http://www.w3.org/2000/svg">
<path d="M12.6947 8.27337C12.5314 8.27337 12.3747 8.33824 12.2592 8.45373C12.1438 8.56921 12.0789 8.72584 12.0789 8.88915V13.3105C12.0789 13.4738 12.014 13.6305 11.8985 13.746C11.783 13.8614 11.6264 13.9263 11.4631 13.9263H4.68941C4.52609 13.9263 4.36946 13.8614 4.25398 13.746C4.1385 13.6305 4.07362 13.4738 4.07362 13.3105V6.53684C4.07362 6.37352 4.1385 6.21689 4.25398 6.10141C4.36946 5.98593 4.52609 5.92105 4.68941 5.92105H9.11078C9.2741 5.92105 9.43072 5.85617 9.54621 5.74069C9.66169 5.62521 9.72657 5.46858 9.72657 5.30526C9.72657 5.14194 9.66169 4.98531 9.54621 4.86983C9.43072 4.75435 9.2741 4.68947 9.11078 4.68947H4.68941C4.19946 4.68947 3.72957 4.8841 3.38312 5.23055C3.03667 5.577 2.84204 6.04689 2.84204 6.53684V13.3105C2.84204 13.8005 3.03667 14.2704 3.38312 14.6168C3.72957 14.9633 4.19946 15.1579 4.68941 15.1579H11.4631C11.953 15.1579 12.4229 14.9633 12.7694 14.6168C13.1158 14.2704 13.3105 13.8005 13.3105 13.3105V8.88915C13.3105 8.72584 13.2456 8.56921 13.1301 8.45373C13.0146 8.33824 12.858 8.27337 12.6947 8.27337ZM15.1086 3.22389C15.0461 3.07342 14.9265 2.95385 14.776 2.89137C14.702 2.85981 14.6225 2.84307 14.542 2.8421H10.8473C10.684 2.8421 10.5274 2.90698 10.4119 3.02246C10.2964 3.13795 10.2315 3.29457 10.2315 3.45789C10.2315 3.62121 10.2964 3.77784 10.4119 3.89332C10.5274 4.0088 10.684 4.07368 10.8473 4.07368H13.058L6.71536 10.4102C6.65764 10.4674 6.61183 10.5355 6.58057 10.6105C6.5493 10.6856 6.53321 10.7661 6.53321 10.8474C6.53321 10.9287 6.5493 11.0091 6.58057 11.0842C6.61183 11.1592 6.65764 11.2273 6.71536 11.2846C6.7726 11.3423 6.84071 11.3881 6.91575 11.4194C6.99079 11.4506 7.07128 11.4667 7.15257 11.4667C7.23386 11.4667 7.31435 11.4506 7.38939 11.4194C7.46443 11.3881 7.53253 11.3423 7.58978 11.2846L13.9263 4.94194V7.15263C13.9263 7.31595 13.9911 7.47257 14.1066 7.58806C14.2221 7.70354 14.3787 7.76842 14.542 7.76842C14.7054 7.76842 14.862 7.70354 14.9775 7.58806C15.093 7.47257 15.1578 7.31595 15.1578 7.15263V3.45789C15.1569 3.37742 15.1401 3.29792 15.1086 3.22389Z" fill="var(--ion-text-color)"/>
</svg>
