<svg width="160" height="172" viewBox="0 0 160 172" fill="none" xmlns="http://www.w3.org/2000/svg">
<g clip-path="url(#clip0)">
<path d="M86.3063 172C127.006 172 160 139.066 160 98.4393C160 57.8129 127.006 24.8786 86.3063 24.8786C45.6062 24.8786 12.6123 57.8129 12.6123 98.4393C12.6123 139.066 45.6062 172 86.3063 172Z" fill="#DFE4EA"/>
<path d="M139.403 147.032C134.73 163.654 98.6704 179.071 60.3246 168.329C21.9788 157.588 -4.1328 124.755 0.54047 108.133C5.21374 91.5102 38.9022 97.3923 77.248 108.134C115.594 118.875 144.076 130.409 139.403 147.032Z" fill="#3F3D56"/>
<path opacity="0.1" d="M139.403 147.032C134.73 163.654 98.6704 179.071 60.3246 168.329C21.9788 157.588 -4.1328 124.755 0.54047 108.133C5.21374 91.5102 38.9022 97.3923 77.248 108.134C115.594 118.875 144.076 130.409 139.403 147.032Z" fill="#DFE4EA"/>
<path opacity="0.1" d="M71.5 142C82.2696 142 91 139.314 91 136C91 132.686 82.2696 130 71.5 130C60.7304 130 52 132.686 52 136C52 139.314 60.7304 142 71.5 142Z" fill="black"/>
<path d="M2.25098 82.9861C2.25098 91.3027 7.4778 98.0323 13.9372 98.0323L2.25098 82.9861Z" fill="#3F3D56"/>
<path d="M13.937 98.0324C13.937 89.6224 19.7698 82.8171 26.9781 82.8171L13.937 98.0324Z" fill="#32A52F"/>
<path d="M6.48486 83.7401C6.48486 91.6399 9.81791 98.0324 13.9369 98.0324L6.48486 83.7401Z" fill="#32A52F"/>
<path d="M13.937 98.0324C13.937 87.2863 20.6789 78.5907 29.0105 78.5907L13.937 98.0324Z" fill="#3F3D56"/>
<path d="M38.9667 88.9178L38.9667 88.9178C38.0254 89.8629 37.2793 90.9842 36.7705 92.2174C36.2617 93.4506 36 94.7719 36 96.106C36 97.4401 36.2617 98.7614 36.7705 99.9946C37.2793 101.228 38.0254 102.349 38.9667 103.294L66.0798 130.514C67.6631 132.104 69.8129 132.999 72.0572 133C74.3014 133.001 76.4516 132.106 78.0358 130.518L134.03 74.3604L131.906 72.2422L134.03 74.3604C134.972 73.4157 135.719 72.2945 136.228 71.0613C136.737 69.8282 137 68.5067 137 67.1723C137 65.838 136.739 64.5164 136.23 63.283C135.721 62.0495 134.975 60.928 134.034 59.9828C132.133 58.0743 129.552 57 126.858 57C124.165 57 121.584 58.0744 119.683 59.9829L72.0909 107.763L53.3198 88.9179L51.1943 91.035L53.3198 88.9179C51.4185 87.009 48.8373 85.9345 46.1433 85.9345C43.4493 85.9345 40.8681 87.009 38.9667 88.9178Z" fill="#32A52F" stroke="white" stroke-width="6"/>
<path d="M11.4785 98.1385C11.4785 98.1385 13.1358 98.0875 13.6353 97.7325C14.1347 97.3775 16.1846 96.9536 16.3085 97.5229C16.4324 98.0923 18.7991 100.355 16.928 100.37C15.057 100.385 12.5805 100.079 12.082 99.7758C11.5835 99.4727 11.4785 98.1385 11.4785 98.1385Z" fill="#A8A8A8"/>
<path opacity="0.2" d="M16.9614 100.172C15.0904 100.187 12.6139 99.8807 12.1154 99.5776C11.7357 99.3467 11.5845 98.5184 11.5338 98.1363C11.4988 98.1378 11.4785 98.1384 11.4785 98.1384C11.4785 98.1384 11.5835 99.4727 12.082 99.7758C12.5805 100.079 15.057 100.385 16.928 100.37C17.4681 100.365 17.6547 100.174 17.6445 99.8895C17.5694 100.061 17.3634 100.168 16.9614 100.172Z" fill="black"/>
</g>
<defs>
<clipPath id="clip0">
<rect width="160" height="172" fill="white"/>
</clipPath>
</defs>
</svg>
