<svg width="108" height="120" viewBox="0 0 108 120" fill="none" xmlns="http://www.w3.org/2000/svg">
<g opacity="0.1">
<circle cx="65.4064" cy="60.4064" r="65.4064" fill="white"/>
<path d="M132.026 63.7867C129.912 97.7944 101.474 124.696 66.7659 124.696C32.0575 124.696 3.61994 97.7944 1.50535 63.7867C1.43244 65.1644 1.35951 66.5421 1.35951 67.9199C1.35951 103.813 30.5992 132.962 66.7659 132.962C102.933 132.962 132.172 103.885 132.172 67.9199C132.099 66.5421 132.099 65.1644 132.026 63.7867Z" fill="#3F3D56"/>
<path d="M66.766 2.15237C34.8284 2.15237 8.87004 27.9663 8.87004 59.7262C8.87004 91.4861 34.8284 117.3 66.766 117.3C98.7036 117.3 124.662 91.4861 124.662 59.7262C124.662 27.9663 98.6307 2.15237 66.766 2.15237ZM65.891 47.9794H56.8493V81.1896H49.0472V47.9794H40.0055V41.3084H65.891V47.9794ZM93.4536 53.9978C91.5577 51.75 89.0056 50.9524 86.891 50.9524C84.7765 50.9524 82.589 51.6775 81.0577 53.1277C79.8181 54.2879 78.5056 56.5357 78.5056 59.7262C78.5056 62.4091 79.4535 64.802 81.0577 66.2522C82.2973 67.4124 84.3389 68.2826 86.7452 68.2826C88.7869 68.2826 91.5577 67.7025 93.4536 65.2371V73.7934C91.6306 74.6635 89.8077 75.1711 87.839 75.2436V81.7696H82.1515V75.3886C78.2869 74.8085 75.516 72.9958 73.766 71.183C72.3806 69.7328 69.4639 66.1072 69.4639 59.6537C69.4639 54.578 71.2869 50.7349 74.0577 47.9794C75.6619 46.3842 78.2869 44.4989 82.1515 43.7738V37.4653H87.839V43.8463C89.8077 43.9188 91.6306 44.4264 93.4536 45.369V53.9978Z" fill="#99CC33"/>
</g>
</svg>
