<svg width="20" height="20" viewBox="0 0 20 20" fill="none" xmlns="http://www.w3.org/2000/svg">
<path d="M9.99248 5.78947C7.53683 5.78947 5.6004 7.33495 3.28524 9.86086C3.11726 10.0472 3.1142 10.3251 3.28219 10.5114C5.26443 12.7014 7.01149 14.5859 9.99248 14.5859C12.9368 14.5859 15.1451 12.2127 16.715 10.4931C16.8769 10.3159 16.886 10.0472 16.7303 9.86086C15.1298 7.92138 12.9154 5.78947 9.99248 5.78947ZM10.1269 12.9335C8.50809 13.0068 7.17642 11.6751 7.25278 10.0594C7.31692 8.6483 8.45923 7.50599 9.87031 7.44185C11.4891 7.36855 12.8208 8.70022 12.7444 10.3159C12.6803 11.727 11.538 12.8693 10.1269 12.9335Z" fill="white"/>
<path d="M9.99867 8.75214C9.99867 8.56888 10.0323 8.39479 10.0933 8.23596C10.0628 8.23596 10.0323 8.23291 9.99867 8.23291C8.87163 8.23291 7.9645 9.19196 8.05002 10.3373C8.12333 11.2933 8.89301 12.063 9.84901 12.1363C10.9944 12.2218 11.9534 11.3147 11.9534 10.1877C11.9534 10.148 11.9504 10.1083 11.9504 10.0685C11.7793 10.1449 11.593 10.1877 11.3945 10.1877C10.6248 10.1877 9.99867 9.54321 9.99867 8.75214Z" fill="white"/>
</svg>
