<svg width="32" height="32" viewBox="0 0 32 32" fill="none" xmlns="http://www.w3.org/2000/svg">
<path d="M20.7585 11.359L20.8293 11.0047V10.9338C21.1127 9.51671 20.7585 8.02872 19.8373 6.89501C18.9162 5.7613 17.5699 5.05273 16.0819 5.05273C14.5939 5.05273 13.2476 5.69045 12.3265 6.82415C11.3345 8.02872 10.9802 9.44585 11.2637 10.9338L12.6808 15.8938C12.1139 16.6024 11.8305 17.5235 11.8305 18.4447C11.8305 20.7829 13.7436 22.6961 16.0819 22.6961C18.4202 22.6961 20.3333 20.7829 20.3333 18.4447C20.3333 17.4527 19.979 16.6024 19.483 15.8938L20.3333 12.9887L20.1916 13.4138C21.6796 14.6184 22.6007 16.3898 22.6007 18.4447C22.6007 21.9875 19.6956 24.8926 16.1528 24.8926C12.6099 24.8926 9.7048 21.9875 9.7048 18.4447C9.7048 16.3898 10.6259 14.6184 12.1139 13.4138L11.4054 11.359C9.13795 12.847 7.5791 15.4687 7.5791 18.4447C7.5791 23.1212 11.4054 26.9475 16.0819 26.9475C20.7585 26.9475 24.5847 23.1212 24.5847 18.4447C24.5847 15.4687 23.0259 12.847 20.7585 11.359ZM13.9562 8.17043C14.4522 7.53272 15.2316 7.17844 16.0819 7.17844C16.9322 7.17844 17.7116 7.53272 18.2076 8.17043C18.7036 8.80814 18.9162 9.65842 18.7745 10.4378L16.5071 18.4447C16.4362 18.6572 16.2945 18.7989 16.0819 18.7989C15.8693 18.7989 15.7276 18.6572 15.6568 18.4447L13.3894 10.4378C13.2476 9.65842 13.4602 8.80814 13.9562 8.17043Z" fill="#152B2B"/>
<path d="M16.0817 11.7134C16.8643 11.7134 17.4988 11.0789 17.4988 10.2963C17.4988 9.51362 16.8643 8.87915 16.0817 8.87915C15.299 8.87915 14.6646 9.51362 14.6646 10.2963C14.6646 11.0789 15.299 11.7134 16.0817 11.7134Z" fill="#152B2B"/>
</svg>
