<svg width="78" height="78" viewBox="0 0 78 78" fill="none" xmlns="http://www.w3.org/2000/svg">
<path d="M65.2477 25.0549L51.4437 39.1154C51.3411 39.218 51.3411 39.372 51.4437 39.4746L61.1039 49.7634C61.7582 50.4177 61.7582 51.4697 61.1039 52.1239C60.7832 52.4447 60.347 52.6115 59.9237 52.6115C59.5003 52.6115 59.0641 52.4447 58.7434 52.1239L49.1217 41.8736C49.019 41.771 48.8523 41.771 48.7496 41.8736L46.4019 44.2598C44.4391 46.2483 41.8348 47.3516 39.0381 47.3644C36.2029 47.3772 33.5089 46.1841 31.5204 44.17L29.2625 41.8736C29.1598 41.771 28.9931 41.771 28.8904 41.8736L19.2687 52.1239C18.948 52.4447 18.5118 52.6115 18.0885 52.6115C17.6651 52.6115 17.2289 52.4447 16.9082 52.1239C16.2539 51.4697 16.2539 50.4177 16.9082 49.7634L26.5684 39.4746C26.6582 39.372 26.6582 39.218 26.5684 39.1154L12.7516 25.0549C12.5848 24.8881 12.3154 25.0035 12.3154 25.2345V53.3684C12.3154 55.6263 14.1628 57.4736 16.4207 57.4736H61.5786C63.8365 57.4736 65.6839 55.6263 65.6839 53.3684V25.2345C65.6839 25.0035 65.4016 24.9009 65.2477 25.0549Z" fill="white"/>
<path d="M38.9991 44.0162C40.8978 44.0162 42.681 43.2721 44.0152 41.9122L64.1438 21.4244C63.4382 20.8599 62.5659 20.5264 61.6037 20.5264H16.4073C15.4451 20.5264 14.56 20.8599 13.8672 21.4244L33.9958 41.9122C35.3172 43.2593 37.1004 44.0162 38.9991 44.0162Z" fill="white"/>
</svg>
