<svg width="36" height="36" viewBox="0 0 36 36" fill="none" xmlns="http://www.w3.org/2000/svg">
<path d="M18 6C11.3833 6 6 11.3838 6 18C6 24.6265 11.3735 30 18 30C24.6167 30 30 24.6167 30 18C30 11.3729 24.6271 6 18 6ZM18 24.0577C16.5617 24.0577 15.1823 23.4863 14.1653 22.4693C13.1483 21.4523 12.5769 20.0729 12.5769 18.6346C12.5769 17.1963 13.1483 15.8169 14.1653 14.7999C15.1823 13.7829 16.5617 13.2115 18 13.2115H18.2429L17.4288 12.3981C17.2774 12.2466 17.1923 12.0411 17.1923 11.8269C17.1923 11.6127 17.2774 11.4072 17.4288 11.2558C17.5803 11.1043 17.7858 11.0192 18 11.0192C18.2142 11.0192 18.4197 11.1043 18.5712 11.2558L20.8788 13.5635C20.9539 13.6385 21.0134 13.7275 21.054 13.8255C21.0945 13.9235 21.1154 14.0285 21.1154 14.1346C21.1154 14.2407 21.0945 14.3457 21.054 14.4437C21.0134 14.5417 20.9539 14.6308 20.8788 14.7058L18.5712 17.0135C18.4197 17.1649 18.2142 17.25 18 17.25C17.7858 17.25 17.5803 17.1649 17.4288 17.0135C17.2774 16.862 17.1923 16.6565 17.1923 16.4423C17.1923 16.2281 17.2774 16.0226 17.4288 15.8712L18.4673 14.8327C18.33 14.8269 18.1731 14.8269 18 14.8269C17.2469 14.8269 16.5107 15.0502 15.8846 15.4686C15.2584 15.887 14.7703 16.4817 14.4822 17.1775C14.194 17.8732 14.1186 18.6388 14.2655 19.3775C14.4124 20.1161 14.775 20.7945 15.3076 21.3271C15.8401 21.8596 16.5185 22.2222 17.2572 22.3691C17.9958 22.5161 18.7614 22.4407 19.4571 22.1525C20.1529 21.8643 20.7476 21.3762 21.166 20.7501C21.5844 20.1239 21.8077 19.3877 21.8077 18.6346C21.8077 18.4204 21.8928 18.215 22.0443 18.0635C22.1957 17.912 22.4012 17.8269 22.6154 17.8269C22.8296 17.8269 23.035 17.912 23.1865 18.0635C23.338 18.215 23.4231 18.4204 23.4231 18.6346C23.4214 20.0724 22.8495 21.4508 21.8328 22.4675C20.8162 23.4841 19.4378 24.056 18 24.0577Z" fill="url(#paint0_linear)"/>
<defs>
<linearGradient id="paint0_linear" x1="6" y1="30" x2="6" y2="6" gradientUnits="userSpaceOnUse">
<stop stop-color="#1F89AB"/>
<stop offset="1" stop-color="#21D2D2"/>
</linearGradient>
</defs>
</svg>
