<svg width="50" height="50" viewBox="0 0 50 50" fill="none" xmlns="http://www.w3.org/2000/svg">
<path d="M40.9446 15.7895H31.722C31.0884 15.7895 30.5692 16.2934 30.5692 16.9194C30.5692 17.5454 31.0884 18.0493 31.722 18.0493H38.1122L27.5765 28.9057L21.0184 22.485C20.797 22.2712 20.5145 22.1567 20.2015 22.1567C19.8961 22.1567 19.606 22.2712 19.3846 22.485L8.21518 33.4101C8.07013 33.5551 7.89453 33.8071 7.89453 34.227C7.89453 34.54 8.00142 34.7996 8.21518 35.0057C8.43659 35.2195 8.71907 35.334 9.03208 35.334C9.33747 35.334 9.62758 35.2195 9.84898 35.0057L20.2015 24.8746L26.7596 31.2953C26.981 31.5091 27.2634 31.6236 27.5765 31.6236C27.8818 31.6236 28.172 31.5091 28.3934 31.2953L39.7994 19.6984V25.9358C39.7994 26.5542 40.3186 27.0658 40.9522 27.0658C41.5859 27.0658 42.1051 26.5619 42.1051 25.9358V16.9194C42.0974 16.2934 41.5783 15.7895 40.9446 15.7895Z" fill="url(#paint0_linear)"/>
<defs>
<linearGradient id="paint0_linear" x1="7.89453" y1="35.334" x2="7.89453" y2="15.7895" gradientUnits="userSpaceOnUse">
<stop stop-color="#127127"/>
<stop offset="1" stop-color="#32A52F"/>
</linearGradient>
</defs>
</svg>
