<svg width="36" height="36" viewBox="0 0 36 36" fill="none" xmlns="http://www.w3.org/2000/svg">
<path fill-rule="evenodd" clip-rule="evenodd" d="M28.2551 18.0205L28.9372 9.15346C29.0312 7.93058 28.0126 6.91189 26.7897 7.00596L17.9226 7.68804C17.4466 7.72466 16.9994 7.93035 16.6618 8.26793L7.58579 17.344C6.80474 18.125 6.80474 19.3913 7.58579 20.1724L15.7708 28.3574C16.5518 29.1384 17.8181 29.1384 18.5992 28.3574L27.6752 19.2813C28.0128 18.9437 28.2185 18.4965 28.2551 18.0205ZM26.5925 11.1861C26.0856 11.693 25.2638 11.693 24.757 11.1861C24.2501 10.6792 24.2501 9.85744 24.757 9.35056C25.2638 8.84368 26.0856 8.84368 26.5925 9.35056C27.0994 9.85744 27.0994 10.6792 26.5925 11.1861ZM17.5516 15.7248C17.4767 15.4945 17.1509 15.4945 17.076 15.7248L16.4957 17.5109C16.4622 17.6139 16.3662 17.6836 16.2579 17.6836L14.38 17.6836C14.1378 17.6836 14.0371 17.9935 14.233 18.1359L15.7523 19.2397C15.84 19.3034 15.8766 19.4162 15.8432 19.5192L15.2628 21.3053C15.188 21.5356 15.4516 21.7271 15.6475 21.5848L17.1668 20.4809C17.2545 20.4173 17.3731 20.4173 17.4607 20.4809L18.9801 21.5848C19.176 21.7271 19.4396 21.5356 19.3648 21.3053L18.7844 19.5192C18.751 19.4162 18.7876 19.3034 18.8753 19.2397L20.3946 18.1359C20.5905 17.9935 20.4898 17.6836 20.2476 17.6836L18.3696 17.6836C18.2613 17.6836 18.1654 17.6139 18.1319 17.5109L17.5516 15.7248Z" fill="url(#paint0_linear)"/>
<defs>
<linearGradient id="paint0_linear" x1="7" y1="28.9431" x2="7" y2="6.99992" gradientUnits="userSpaceOnUse">
<stop stop-color="#127127"/>
<stop offset="1" stop-color="#32A52F"/>
</linearGradient>
</defs>
</svg>
