<svg width="31" height="31" viewBox="0 0 31 31" fill="none" xmlns="http://www.w3.org/2000/svg">
<path d="M18.0129 5.19949H5.19922V18.0132C5.19922 22.4832 8.82287 26.106 13.2919 26.106H26.1056V13.2922C26.1056 8.82315 22.482 5.19949 18.0129 5.19949ZM22.6877 22.0555C22.6877 22.0555 22.2219 21.5907 22.067 21.4348C21.9256 21.2935 21.5006 20.9065 21.5006 20.1345C21.5006 18.8007 21.5006 14.4222 21.5006 14.4222C21.5006 12.001 19.5307 10.031 17.1095 10.031H10.0317V17.1089C10.0317 19.5301 12.0016 21.5001 14.4228 21.5001C14.4228 21.5001 18.871 21.5001 20.1713 21.5001C20.3299 21.5001 20.6688 21.5354 21.15 22.0166C21.2723 22.1398 22.3796 23.2389 22.3796 23.2389L22.0307 23.7718H22.0199C21.9791 23.7283 21.4508 23.19 21.3013 23.0405C20.9379 22.6771 20.7259 22.6871 20.5492 22.6871C19.1791 22.6871 14.4228 22.6871 14.4228 22.6871C11.3465 22.6871 8.84461 20.1843 8.84461 17.1089V8.8449H17.1095C20.1858 8.8449 22.6877 11.3477 22.6877 14.4231V22.0555ZM11.3546 13.3575C11.5458 13.4526 11.7588 13.5124 11.9862 13.5179H12.0551C12.0967 13.517 12.1357 13.5097 12.1756 13.5061C12.307 13.4925 12.4338 13.4644 12.5525 13.42V16.9231C12.5525 17.9552 12.9993 18.6285 13.8438 18.8732L13.9 18.8895V14.6206C13.9 14.2899 14.1691 14.0217 14.4989 14.0217C14.8297 14.0217 15.0988 14.2908 15.0988 14.6206V18.9801H16.4317V14.6206C16.4317 14.2899 16.7008 14.0217 17.0307 14.0217C17.3614 14.0217 17.6305 14.2908 17.6305 14.6206V18.9801H18.9771V14.6107C18.9771 13.285 18.2467 12.5546 16.9219 12.5546H13.4179C13.4768 12.3997 13.5139 12.233 13.5185 12.0572V11.9865C13.513 11.759 13.4532 11.547 13.3581 11.3549H16.9237C18.9 11.3549 20.1777 12.6326 20.1777 14.6098V20.178H14.6095C12.6332 20.178 11.3555 18.9003 11.3555 16.9231V13.3575H11.3546ZM11.1308 12.0209C11.1308 11.5298 11.5295 11.1311 12.0206 11.1311C12.5054 11.1311 12.8969 11.5189 12.9086 12.0001V12.0418C12.8996 12.4097 12.6694 12.7205 12.3441 12.8482C12.2716 12.8763 12.1937 12.8935 12.1131 12.9017C12.0895 12.9044 12.0659 12.908 12.0415 12.9089H12.0007C11.5177 12.8972 11.1308 12.5048 11.1308 12.0209Z" fill="white"/>
</svg>
