<svg width="38" height="38" viewBox="0 0 38 38" fill= "#127127" xmlns="http://www.w3.org/2000/svg">
<path d="M17.7126 13.7624C17.7126 13.0499 18.2939 12.5187 18.9939 12.5187C19.7064 12.5187 20.2876 13.0499 20.2876 13.7624C20.2876 14.4749 19.7064 15.0124 18.9939 15.0124C18.2939 15.0124 17.7126 14.4749 17.7126 13.7624ZM17.8001 15.9937H20.1876V24.9999H17.8001V15.9937Z" fill="var(--ion-text-color)"/>
<path d="M19 7.75C22.0063 7.75 24.8312 8.91875 26.9562 11.0437C29.0812 13.1687 30.25 15.9937 30.25 19C30.25 22.0063 29.0812 24.8312 26.9562 26.9562C24.8312 29.0812 22.0063 30.25 19 30.25C15.9937 30.25 13.1687 29.0812 11.0437 26.9562C8.91875 24.8312 7.75 22.0063 7.75 19C7.75 15.9937 8.91875 13.1687 11.0437 11.0437C13.1687 8.91875 15.9937 7.75 19 7.75ZM19 6C11.8187 6 6 11.8187 6 19C6 26.1812 11.8187 32 19 32C26.1812 32 32 26.1812 32 19C32 11.8187 26.1812 6 19 6Z" fill="var(--ion-text-color)"/>
</svg>
