<svg width="36" height="36" class="ionicon s-ion-icon" viewBox="0 0 36 36" xmlns="http://www.w3.org/2000/svg">
<path d="M5 13.6C5 15.1 6.2 16.3 7.7 16.3C9.2 16.3 10.4 15.1 10.4 13.6C10.4 13.2 10.5 12.8 11 12.8C11.5 12.8 11.8 13.2 11.8 13.6C11.8 15.1 13 16.3 14.5 16.3C16 16.3 17.2 15.1 17.2 13.6C17.2 13.1 17.5 12.8 18 12.8C18.5 12.8 18.8 13.2 18.8 13.6C18.8 15.1 20 16.3 21.5 16.3C23 16.3 24.2 15.1 24.2 13.6C24.2 13.1 24.5 12.8 25 12.8C25.5 12.8 25.8 13.2 25.8 13.6C25.8 15.1 27 16.3 28.5 16.3C30 16.3 31.2 15.1 31.2 13.5C31.2 13.5 31.1 13.6 31.2 13.5L30.1 7H6.3L5 13.6Z"/>
<path d="M28.6 17.9001C27.3 17.9001 26.2 17.4001 25.4 16.5001C25.2 16.3001 24.9 16.3001 24.8 16.5001C24 17.4001 22.9 17.9001 21.6 17.9001C20.3 17.9001 19.2 17.4001 18.4 16.5001C18.2 16.3001 17.9 16.3001 17.8 16.5001C17 17.4001 15.9 17.9001 14.6 17.9001C13.3 17.9001 12.2 17.4001 11.4 16.5001C11.3 16.3001 11 16.3001 10.8 16.5001C10 17.4001 8.8 17.9001 7.6 17.9001C7.4 17.9001 7.2 17.8001 7 17.8001V27.5001C7 27.9001 7.3 28.2001 7.7 28.2001H20.8V22.1001C20.8 21.6001 21.2 21.3001 21.6 21.3001H24.1C24.6 21.3001 24.9 21.7001 24.9 22.1001V28.2001H28.6C29 28.2001 29.4 27.9001 29.4 27.5001V17.8001C29.2 17.9001 28.9 17.9001 28.6 17.9001ZM16.7 24.7001C16.7 25.1001 16.4 25.3001 16.1 25.3001H11.2C10.8 25.3001 10.6 25.0001 10.6 24.7001V22.3001C10.6 21.9001 10.9 21.7001 11.2 21.7001H16.1C16.5 21.7001 16.7 22.0001 16.7 22.3001V24.7001Z"/>
</svg>
