<svg width="196" height="176" viewBox="0 0 196 176" fill="none" xmlns="http://www.w3.org/2000/svg">
<path d="M95.6076 161.327C129.08 161.327 156.215 134.167 156.215 100.664C156.215 67.16 129.08 40 95.6076 40C62.135 40 35 67.16 35 100.664C35 134.167 62.135 161.327 95.6076 161.327Z" fill="#DFE4EA"/>
<path d="M184.149 127.155L181.201 130.653C181.042 132.159 180.817 133.843 180.497 135.608L185.339 130.594L185.362 130.682C185.086 129.334 184.67 128.112 184.122 127.072L184.149 127.155Z" fill="#32A52F"/>
<path d="M181.229 130.388L184.083 127C183.46 125.841 182.671 124.915 181.728 124.307C181.679 124.275 181.63 124.245 181.58 124.216C181.581 124.628 181.569 127.045 181.229 130.388Z" fill="#32A52F"/>
<path d="M184.886 141.231L184.892 141.333C185.057 140.711 185.198 140.088 185.315 139.465L178.293 144.003L178.288 143.957C178.156 144.319 178.019 144.674 177.879 145.023L184.886 141.231Z" fill="#32A52F"/>
<path d="M185.722 135.717L185.736 135.813C185.817 134.126 185.697 132.435 185.38 130.776L180.445 135.886C180.138 137.539 179.776 139.113 179.36 140.608L185.722 135.717Z" fill="#32A52F"/>
<path d="M173.272 127.168C172.542 128.124 171.911 129.152 171.388 130.235L179.521 139.528C179.856 138.224 180.126 136.96 180.343 135.782L173.229 127.26L173.272 127.168Z" fill="#32A52F"/>
<path d="M170.813 131.511L170.855 131.417L179.207 140.693C179.297 140.375 179.383 140.059 179.465 139.745L171.302 130.418L171.344 130.325C171.159 130.707 170.982 131.102 170.813 131.511Z" fill="#32A52F"/>
<path d="M185.328 139.246L185.338 139.345C185.546 138.215 185.678 137.072 185.732 135.924L179.284 140.881C179.001 141.876 178.695 142.831 178.364 143.746L185.328 139.246Z" fill="#32A52F"/>
<path d="M176.02 148.887C174.928 150.79 173.69 152.399 172.318 153.695C173.835 153.083 179.946 150.385 183.113 145.521L176.02 148.887Z" fill="#32A52F"/>
<path d="M169.543 136.232C169.422 137.329 169.374 138.434 169.401 139.537L169.452 139.438L176.002 148.636C176.603 147.565 177.14 146.459 177.609 145.324L169.543 136.232Z" fill="#32A52F"/>
<path d="M181.108 130.378C181.475 126.761 181.456 124.24 181.455 124.204L181.518 124.179C180.043 123.323 178.413 123.353 176.826 124.113L181.108 130.378Z" fill="#32A52F"/>
<path d="M177.768 145.292C177.724 145.4 177.68 145.508 177.635 145.614C177.206 146.636 176.721 147.633 176.183 148.601L183.208 145.267L183.211 145.367C183.762 144.505 184.201 143.578 184.518 142.606C184.641 142.224 184.755 141.84 184.859 141.455L177.768 145.292Z" fill="#32A52F"/>
<path d="M180.386 135.546C180.701 133.8 180.923 132.136 181.08 130.647L176.7 124.239L176.746 124.151C175.554 124.742 174.387 125.745 173.33 127.094L180.386 135.546Z" fill="#32A52F"/>
<path d="M175.906 148.805L169.403 139.675C169.56 146.293 171.818 153.357 171.963 153.806C173.525 152.406 174.824 150.685 175.906 148.805Z" fill="#32A52F"/>
<path d="M177.685 145.128L177.692 145.124C178.252 143.745 178.737 142.336 179.146 140.905L170.774 131.607C170.547 132.161 170.337 132.739 170.143 133.34C169.873 134.202 169.682 135.087 169.572 135.984L177.685 145.128Z" fill="#32A52F"/>
<path d="M190.774 154.327L186.276 155.14C185.193 156.198 183.947 157.351 182.575 158.507L189.5 157.736L189.462 157.818C190.108 156.605 190.566 155.397 190.806 154.246L190.774 154.327Z" fill="#32A52F"/>
<path d="M186.465 154.954L190.823 154.167C191.081 152.876 191.064 151.659 190.725 150.589C190.707 150.533 190.688 150.479 190.669 150.424C190.407 150.742 188.858 152.596 186.465 154.954Z" fill="#32A52F"/>
<path d="M182.372 165.639L182.312 165.721C182.836 165.348 183.341 164.959 183.828 164.553L175.528 163.566L175.554 163.527C175.221 163.721 174.89 163.908 174.56 164.086L182.372 165.639Z" fill="#32A52F"/>
<path d="M186.531 161.927L186.48 162.01C187.617 160.762 188.603 159.383 189.416 157.903L182.359 158.688C181.069 159.765 179.787 160.747 178.515 161.632L186.531 161.927Z" fill="#32A52F"/>
<path d="M182.389 147.394C181.218 147.664 180.077 148.053 178.983 148.553L179.326 160.902C180.414 160.112 181.428 159.311 182.346 158.542L182.297 147.437L182.389 147.394Z" fill="#32A52F"/>
<path d="M177.728 149.169L177.819 149.124L178.341 161.599C178.613 161.412 178.88 161.224 179.144 161.034L178.8 148.639L178.891 148.594C178.506 148.771 178.118 148.962 177.728 149.169Z" fill="#32A52F"/>
<path d="M183.978 164.393L183.923 164.475C184.803 163.738 185.633 162.941 186.406 162.092L178.282 161.793C177.43 162.379 176.585 162.919 175.747 163.413L183.978 164.393Z" fill="#32A52F"/>
<path d="M170.666 165.876C168.612 166.645 166.633 167.094 164.751 167.216C166.309 167.713 172.735 169.537 178.274 167.812L170.666 165.876Z" fill="#32A52F"/>
<path d="M173.741 151.994C172.948 152.762 172.208 153.582 171.525 154.449L171.627 154.405L170.812 165.671C171.957 165.23 173.075 164.721 174.16 164.146L173.741 151.994Z" fill="#32A52F"/>
<path d="M186.379 154.869C188.967 152.317 190.558 150.363 190.581 150.335L190.645 150.356C190.054 148.755 188.78 147.738 187.073 147.31L186.379 154.869Z" fill="#32A52F"/>
<path d="M174.303 164.223C174.2 164.278 174.097 164.334 173.995 164.387C173.013 164.899 172.004 165.357 170.973 165.76L178.508 167.676L178.447 167.755C179.42 167.444 180.349 167.01 181.213 166.464C181.551 166.248 181.883 166.025 182.209 165.795L174.303 164.223Z" fill="#32A52F"/>
<path d="M182.529 158.388C183.884 157.244 185.115 156.105 186.185 155.058L186.895 147.326L186.987 147.288C185.692 146.982 184.154 147.009 182.48 147.374L182.529 158.388Z" fill="#32A52F"/>
<path d="M170.629 165.74L171.439 154.557C167.342 159.754 164.58 166.636 164.406 167.075C166.501 166.993 168.598 166.498 170.629 165.74Z" fill="#32A52F"/>
<path d="M174.343 164.044L174.35 164.045C175.661 163.34 176.932 162.565 178.159 161.724L177.636 149.218C177.108 149.5 176.578 149.811 176.045 150.15C175.288 150.642 174.577 151.201 173.921 151.822L174.343 164.044Z" fill="#32A52F"/>
<path d="M167.409 139.271L165.687 143.509C166.001 144.991 166.306 146.662 166.547 148.44L169.604 142.173L169.652 142.25C168.974 141.054 168.2 140.02 167.358 139.201L167.409 139.271Z" fill="#32A52F"/>
<path d="M165.631 143.249L167.3 139.144C166.349 138.234 165.313 137.597 164.228 137.311C164.172 137.296 164.116 137.283 164.06 137.27C164.187 137.662 164.922 139.964 165.631 143.249Z" fill="#32A52F"/>
<path d="M172.457 152.43L172.495 152.524C172.46 151.882 172.402 151.246 172.321 150.617L167.044 157.106L167.025 157.063C167.011 157.448 166.991 157.828 166.965 158.203L172.457 152.43Z" fill="#32A52F"/>
<path d="M171.55 146.927L171.593 147.014C171.149 145.384 170.513 143.813 169.699 142.333L166.584 148.72C166.803 150.387 166.945 151.996 167.01 153.546L171.55 146.927Z" fill="#32A52F"/>
<path d="M157.069 142.648C156.671 143.783 156.388 144.956 156.225 146.148L166.829 152.469C166.745 151.126 166.611 149.841 166.454 148.652L157.057 142.749L157.069 142.648Z" fill="#32A52F"/>
<path d="M156.072 147.539L156.083 147.438L166.89 153.675C166.877 153.345 166.862 153.018 166.843 152.694L156.199 146.349L156.21 146.248C156.153 146.668 156.107 147.098 156.072 147.539Z" fill="#32A52F"/>
<path d="M172.265 150.405L172.305 150.496C172.154 149.357 171.926 148.229 171.624 147.121L167.022 153.829C167.06 154.863 167.064 155.866 167.032 156.839L172.265 150.405Z" fill="#32A52F"/>
<path d="M166.391 162.453C165.94 164.602 165.259 166.515 164.355 168.172C165.609 167.12 170.587 162.664 172.097 157.058L166.391 162.453Z" fill="#32A52F"/>
<path d="M156.322 152.422C156.546 153.503 156.842 154.568 157.208 155.61L157.226 155.5L166.296 162.22C166.537 161.016 166.706 159.798 166.801 158.573L156.322 152.422Z" fill="#32A52F"/>
<path d="M165.513 143.277C164.745 139.723 163.948 137.332 163.936 137.298L163.988 137.254C162.321 136.897 160.781 137.429 159.506 138.644L165.513 143.277Z" fill="#32A52F"/>
<path d="M166.943 158.493C166.934 158.61 166.926 158.726 166.916 158.841C166.823 159.946 166.67 161.044 166.457 162.131L172.108 156.787L172.142 156.88C172.4 155.891 172.531 154.873 172.533 153.851C172.532 153.449 172.522 153.049 172.501 152.651L166.943 158.493Z" fill="#32A52F"/>
<path d="M166.422 148.415C166.182 146.657 165.88 145.006 165.569 143.542L159.425 138.802L159.442 138.705C158.49 139.635 157.69 140.95 157.102 142.56L166.422 148.415Z" fill="#32A52F"/>
<path d="M166.256 162.411L157.253 155.74C159.446 161.986 163.774 168.005 164.051 168.387C165.104 166.572 165.809 164.534 166.256 162.411Z" fill="#32A52F"/>
<path d="M166.813 158.363L166.818 158.358C166.925 156.873 166.951 155.383 166.898 153.895L156.064 147.643C156.02 148.24 155.999 148.855 156 149.486C156.009 150.39 156.101 151.291 156.274 152.177L166.813 158.363Z" fill="#32A52F"/>
<path d="M13.8514 127.155L16.7987 130.653C16.9577 132.159 17.1833 133.843 17.5029 135.608L12.6606 130.594L12.638 130.682C12.9135 129.334 13.3303 128.112 13.8784 127.072L13.8514 127.155Z" fill="#32A52F"/>
<path d="M16.7715 130.388L13.9165 127C14.5396 125.841 15.3288 124.915 16.2717 124.307C16.3208 124.275 16.3702 124.245 16.4196 124.216C16.4189 124.628 16.431 127.045 16.7715 130.388Z" fill="#32A52F"/>
<path d="M13.1144 141.231L13.1083 141.333C12.9431 140.711 12.8019 140.088 12.6847 139.465L19.7069 144.003L19.7115 143.957C19.8443 144.319 19.9809 144.674 20.1211 145.023L13.1144 141.231Z" fill="#32A52F"/>
<path d="M12.278 135.717L12.2638 135.813C12.1835 134.126 12.3031 132.435 12.6202 130.776L17.5547 135.886C17.8619 137.539 18.2235 139.113 18.6396 140.608L12.278 135.717Z" fill="#32A52F"/>
<path d="M24.7283 127.168C25.4579 128.124 26.0891 129.152 26.6123 130.235L18.4793 139.528C18.1444 138.224 17.8744 136.96 17.6571 135.782L24.7711 127.26L24.7283 127.168Z" fill="#32A52F"/>
<path d="M27.1865 131.511L27.1452 131.417L18.7932 140.693C18.7033 140.375 18.6173 140.059 18.5352 139.745L26.6983 130.418L26.6563 130.325C26.841 130.707 27.0177 131.102 27.1865 131.511Z" fill="#32A52F"/>
<path d="M12.6721 139.246L12.6622 139.345C12.4541 138.215 12.3224 137.072 12.268 135.924L18.7157 140.881C18.9988 141.876 19.3055 142.831 19.6357 143.746L12.6721 139.246Z" fill="#32A52F"/>
<path d="M21.9795 148.887C23.0722 150.79 24.3103 152.399 25.6816 153.695C24.1649 153.083 18.0541 150.385 14.8872 145.521L21.9795 148.887Z" fill="#32A52F"/>
<path d="M28.4572 136.232C28.5783 137.329 28.6258 138.434 28.5994 139.537L28.5485 139.438L21.9981 148.636C21.3966 147.565 20.8598 146.459 20.3906 145.324L28.4572 136.232Z" fill="#32A52F"/>
<path d="M16.8921 130.378C16.5246 126.761 16.5443 124.24 16.5447 124.204L16.4822 124.179C17.9569 123.323 19.5865 123.353 21.1738 124.113L16.8921 130.378Z" fill="#32A52F"/>
<path d="M20.2315 145.292C20.2758 145.4 20.3198 145.508 20.3648 145.614C20.7945 146.636 21.2794 147.633 21.8174 148.601L14.7923 145.267L14.7888 145.367C14.2384 144.505 13.7992 143.578 13.4817 142.606C13.3587 142.224 13.2452 141.84 13.1413 141.455L20.2315 145.292Z" fill="#32A52F"/>
<path d="M17.6139 135.546C17.2991 133.8 17.0768 132.136 16.9199 130.647L21.2998 124.239L21.2536 124.151C22.4464 124.742 23.613 125.745 24.6699 127.094L17.6139 135.546Z" fill="#32A52F"/>
<path d="M22.0943 148.805L28.5967 139.675C28.44 146.293 26.1824 153.357 26.0367 153.806C24.4752 152.406 23.1756 150.685 22.0943 148.805Z" fill="#32A52F"/>
<path d="M20.315 145.128L20.3083 145.124C19.7482 143.745 19.2626 142.336 18.8538 140.905L27.2264 131.607C27.4526 132.161 27.6627 132.739 27.8568 133.34C28.127 134.202 28.3181 135.087 28.4277 135.984L20.315 145.128Z" fill="#32A52F"/>
<path d="M7.2258 154.327L11.7245 155.14C12.8069 156.198 14.0533 157.351 15.4248 158.507L8.50015 157.736L8.5385 157.818C7.89207 156.605 7.43409 155.397 7.19375 154.246L7.2258 154.327Z" fill="#32A52F"/>
<path d="M11.5352 154.954L7.17744 154.167C6.91852 152.876 6.93609 151.659 7.27504 150.589C7.29268 150.533 7.31172 150.479 7.33091 150.424C7.59282 150.742 9.14247 152.596 11.5352 154.954Z" fill="#32A52F"/>
<path d="M15.6278 165.639L15.6878 165.721C15.1644 165.348 14.659 164.959 14.1716 164.553L22.4717 163.566L22.4458 163.527C22.7788 163.721 23.1103 163.908 23.4404 164.086L15.6278 165.639Z" fill="#32A52F"/>
<path d="M11.4693 161.927L11.5196 162.01C10.3826 160.762 9.39721 159.383 8.58415 157.903L15.6408 158.688C16.9312 159.765 18.2127 160.747 19.4854 161.632L11.4693 161.927Z" fill="#32A52F"/>
<path d="M15.6112 147.394C16.7824 147.664 17.9234 148.053 19.0166 148.553L18.6741 160.902C17.5857 160.112 16.5724 159.311 15.6539 158.542L15.7028 147.437L15.6112 147.394Z" fill="#32A52F"/>
<path d="M20.2725 149.169L20.1812 149.124L19.659 161.599C19.3874 161.412 19.1198 161.224 18.8564 161.034L19.2002 148.639L19.1087 148.594C19.4941 148.771 19.882 148.962 20.2725 149.169Z" fill="#32A52F"/>
<path d="M14.0219 164.393L14.0775 164.475C13.197 163.738 12.3673 162.941 11.5939 162.092L19.7183 161.793C20.5703 162.379 21.4151 162.919 22.2529 163.413L14.0219 164.393Z" fill="#32A52F"/>
<path d="M27.3335 165.876C29.3881 166.645 31.3671 167.094 33.249 167.216C31.6906 167.713 25.2652 169.537 19.7261 167.812L27.3335 165.876Z" fill="#32A52F"/>
<path d="M24.2591 151.994C25.0517 152.762 25.7919 153.582 26.4749 154.449L26.3726 154.405L27.1885 165.671C26.0428 165.23 24.9245 164.721 23.8397 164.146L24.2591 151.994Z" fill="#32A52F"/>
<path d="M11.6211 154.869C9.03299 152.317 7.44197 150.363 7.41921 150.335L7.35497 150.356C7.9455 148.755 9.21961 147.738 10.9267 147.31L11.6211 154.869Z" fill="#32A52F"/>
<path d="M23.6972 164.223C23.7999 164.278 23.9029 164.334 24.0053 164.387C24.987 164.899 25.9959 165.357 27.0273 165.76L19.492 167.676L19.5528 167.755C18.5801 167.444 17.6509 167.01 16.7872 166.464C16.4488 166.248 16.1169 166.025 15.7914 165.795L23.6972 164.223Z" fill="#32A52F"/>
<path d="M15.471 158.388C14.1159 157.244 12.8846 156.105 11.815 155.058L11.1046 147.326L11.0133 147.288C12.3081 146.982 13.8458 147.009 15.5195 147.374L15.471 158.388Z" fill="#32A52F"/>
<path d="M27.3709 165.74L26.5609 154.557C30.6576 159.754 33.4197 166.636 33.5938 167.075C31.4991 166.993 29.4017 166.498 27.3709 165.74Z" fill="#32A52F"/>
<path d="M23.6573 164.044L23.6498 164.045C22.3394 163.34 21.0679 162.565 19.8408 161.724L20.3643 149.218C20.892 149.5 21.4221 149.811 21.9546 150.15C22.7121 150.642 23.4232 151.201 24.0791 151.822L23.6573 164.044Z" fill="#32A52F"/>
<path d="M30.5906 139.271L32.3135 143.509C31.9995 144.991 31.6942 146.662 31.4528 148.44L28.3961 142.173L28.3475 142.25C29.0257 141.054 29.7996 140.02 30.6419 139.201L30.5906 139.271Z" fill="#32A52F"/>
<path d="M32.3689 143.249L30.7 139.144C31.6507 138.234 32.6872 137.597 33.7717 137.311C33.8281 137.296 33.8843 137.283 33.9404 137.27C33.8126 137.662 33.0775 139.964 32.3689 143.249Z" fill="#32A52F"/>
<path d="M25.5425 152.43L25.5054 152.524C25.5403 151.882 25.5982 151.246 25.6792 150.617L30.9561 157.106L30.9748 157.063C30.9893 157.448 31.0094 157.828 31.0352 158.203L25.5425 152.43Z" fill="#32A52F"/>
<path d="M26.4498 146.927L26.4065 147.014C26.8512 145.384 27.4871 143.813 28.301 142.333L31.416 148.72C31.1974 150.387 31.0553 151.996 30.9896 153.546L26.4498 146.927Z" fill="#32A52F"/>
<path d="M40.9307 142.648C41.3293 143.783 41.6123 144.956 41.7754 146.148L31.1709 152.469C31.255 151.126 31.3885 149.841 31.5459 148.652L40.943 142.749L40.9307 142.648Z" fill="#32A52F"/>
<path d="M41.9277 147.539L41.9172 147.438L31.11 153.675C31.1226 153.345 31.1383 153.018 31.1573 152.694L41.8008 146.349L41.7896 146.248C41.8474 146.668 41.8934 147.098 41.9277 147.539Z" fill="#32A52F"/>
<path d="M25.7348 150.405L25.6947 150.496C25.8458 149.357 26.0735 148.229 26.3763 147.121L30.9775 153.829C30.9396 154.863 30.9363 155.866 30.9677 156.839L25.7348 150.405Z" fill="#32A52F"/>
<path d="M31.6086 162.453C32.06 164.602 32.7405 166.515 33.6445 168.172C32.3911 167.12 27.4127 162.664 25.9032 157.058L31.6086 162.453Z" fill="#32A52F"/>
<path d="M41.6777 152.422C41.454 153.503 41.1582 154.568 40.7922 155.61L40.7743 155.5L31.7044 162.22C31.4631 161.016 31.2942 159.798 31.1986 158.573L41.6777 152.422Z" fill="#32A52F"/>
<path d="M32.4874 143.277C33.255 139.723 34.0521 137.332 34.0636 137.298L34.0121 137.254C35.6788 136.897 37.2194 137.429 38.4941 138.644L32.4874 143.277Z" fill="#32A52F"/>
<path d="M31.0567 158.493C31.0656 158.61 31.0739 158.726 31.0838 158.841C31.1771 159.946 31.3304 161.044 31.543 162.131L25.8916 156.787L25.8575 156.88C25.6 155.891 25.4687 154.873 25.4668 153.851C25.4679 153.449 25.4785 153.049 25.4986 152.651L31.0567 158.493Z" fill="#32A52F"/>
<path d="M31.5778 148.415C31.8177 146.657 32.12 145.006 32.4305 143.542L38.575 138.802L38.5581 138.705C39.5101 139.635 40.3099 140.95 40.8984 142.56L31.5778 148.415Z" fill="#32A52F"/>
<path d="M31.7436 162.411L40.7471 155.74C38.5542 161.986 34.226 168.005 33.9487 168.387C32.8959 166.572 32.1914 164.534 31.7436 162.411Z" fill="#32A52F"/>
<path d="M31.1875 158.363L31.1822 158.358C31.0754 156.873 31.0487 155.383 31.102 153.895L41.9358 147.643C41.9796 148.24 42.001 148.855 42 149.486C41.9907 150.39 41.8992 151.291 41.7265 152.177L31.1875 158.363Z" fill="#32A52F"/>
<path d="M98 176C152.124 176 196 173.459 196 170.324C196 167.189 152.124 164.648 98 164.648C43.8761 164.648 0 167.189 0 170.324C0 173.459 43.8761 176 98 176Z" fill="#3F3D56"/>
<path opacity="0.1" d="M132.026 163.093C132.026 174.125 116.663 170.713 97.8523 170.713C79.0419 170.713 63.9072 174.125 63.9072 163.093C63.9072 152.061 79.2681 149.662 98.0785 149.662C116.889 149.662 132.026 152.061 132.026 163.093Z" fill="#152B2B"/>
<path d="M132.026 160.377C132.026 171.409 116.663 167.996 97.8523 167.996C79.0419 167.996 63.9072 171.409 63.9072 160.377C63.9072 149.345 79.2681 146.946 98.0785 146.946C116.889 146.946 132.026 149.345 132.026 160.377Z" fill="#3F3D56"/>
<path d="M91.2538 133.245C99.7392 136.141 108.961 131.602 111.857 123.117C114.752 114.633 110.229 105.403 101.743 102.507C93.258 99.6116 84.0359 104.15 81.1404 112.635C78.2449 121.12 82.7684 130.349 91.2538 133.245Z" fill="#32A52F" stroke="white" stroke-width="8"/>
<path d="M95.7865 100.074L95.8356 100.091L96.4893 100.094C100.191 100.112 103.768 98.757 106.529 96.2915C109.29 93.826 111.041 90.4249 111.444 86.7449L115.498 49.6703C115.783 47.0688 115.518 44.4365 114.721 41.9439L111.071 43.1109L114.721 41.9439C113.924 39.4514 112.613 37.1541 110.872 35.2009C109.131 33.2478 106.999 31.6824 104.614 30.6064C102.231 29.531 99.6479 28.9684 97.0331 28.955C97.0328 28.955 97.0324 28.955 97.0321 28.955C97.031 28.955 97.0298 28.955 97.0286 28.955L97.0286 28.955C94.4254 28.9423 91.8482 29.4741 89.4623 30.5162L91.0633 34.1818L89.4623 30.5162C87.0764 31.5583 84.9344 33.0876 83.1737 35.0058C81.4129 36.9241 80.072 39.189 79.237 41.6555C78.4019 44.1219 78.091 46.7356 78.3243 49.329L81.665 86.4706C81.9986 90.1791 83.7016 93.6304 86.4428 96.15C89.0111 98.5106 92.3175 99.8941 95.7865 100.074Z" fill="#32A52F" stroke="white" stroke-width="8"/>
</svg>
