<svg viewBox="6 -1.2 100 50" fill="none" xmlns="http://www.w3.org/2000/svg">
<path d="M102.17 3.62409V43.2195C102.17 43.7011 102.075 44.178 101.891 44.6229C101.707 45.0678 101.437 45.4721 101.097 45.8126C100.756 46.1531 100.352 46.4232 99.9075 46.6075C99.4629 46.7918 98.9863 46.8867 98.505 46.8867H14.9462C13.9742 46.8867 13.042 46.5003 12.3547 45.8126C11.6674 45.1249 11.2813 44.1921 11.2812 43.2195V3.62409C11.2932 2.65917 11.6845 1.73778 12.3704 1.05947C13.0564 0.381156 13.9818 0.000522133 14.9462 0H98.505C99.4694 0.000522133 100.395 0.381156 101.081 1.05947C101.767 1.73778 102.158 2.65917 102.17 3.62409Z" fill="white"/>
<path opacity="0.3" d="M32.5122 8.60718H18.2326C17.815 8.60748 17.4145 8.7737 17.1193 9.06932C16.824 9.36493 16.6582 9.76575 16.6582 10.1837V29.5692C16.6585 29.9871 16.8246 30.3878 17.1201 30.6832C17.4155 30.9786 17.8161 31.1445 18.2338 31.1445H32.5122C32.7191 31.1446 32.924 31.104 33.1153 31.0249C33.3065 30.9458 33.4802 30.8298 33.6267 30.6836C33.7731 30.5373 33.8892 30.3636 33.9686 30.1724C34.0479 29.9811 34.0888 29.7762 34.0889 29.5692V10.1837C34.0889 9.97654 34.0481 9.77144 33.9689 9.5801C33.8896 9.38876 33.7735 9.21492 33.6271 9.06852C33.4806 8.92211 33.3068 8.80602 33.1155 8.72686C32.9242 8.6477 32.7192 8.60703 32.5122 8.60718Z" fill="#32A52F"/>
<path d="M102.17 3.62409H11.2812C11.2932 2.65917 11.6845 1.73778 12.3704 1.05947C13.0564 0.381156 13.9818 0.000522134 14.9462 0H98.505C99.4694 0.000522134 100.395 0.381156 101.081 1.05947C101.767 1.73778 102.158 2.65917 102.17 3.62409Z" fill="#BCC1CB"/>
<path d="M14.7894 2.60458C15.227 2.60458 15.5817 2.24965 15.5817 1.81181C15.5817 1.37398 15.227 1.01904 14.7894 1.01904C14.3518 1.01904 13.9971 1.37398 13.9971 1.81181C13.9971 2.24965 14.3518 2.60458 14.7894 2.60458Z" fill="#F2F2F2"/>
<path d="M17.1663 2.60458C17.6039 2.60458 17.9586 2.24965 17.9586 1.81181C17.9586 1.37398 17.6039 1.01904 17.1663 1.01904C16.7288 1.01904 16.374 1.37398 16.374 1.81181C16.374 2.24965 16.7288 2.60458 17.1663 2.60458Z" fill="#F2F2F2"/>
<path d="M19.5433 2.60458C19.9809 2.60458 20.3356 2.24965 20.3356 1.81181C20.3356 1.37398 19.9809 1.01904 19.5433 1.01904C19.1057 1.01904 18.751 1.37398 18.751 1.81181C18.751 2.24965 19.1057 2.60458 19.5433 2.60458Z" fill="#F2F2F2"/>
<path d="M58.5661 7.36157H41.0765C40.7489 7.36157 40.4834 7.62727 40.4834 7.95502V10.5055C40.4834 10.8332 40.7489 11.0989 41.0765 11.0989H58.5661C58.8936 11.0989 59.1592 10.8332 59.1592 10.5055V7.95502C59.1592 7.62727 58.8936 7.36157 58.5661 7.36157Z" fill="#BCC1CB"/>
<path d="M95.9176 7.36157H78.4281C78.1005 7.36157 77.835 7.62727 77.835 7.95502V10.5055C77.835 10.8332 78.1005 11.0989 78.4281 11.0989H95.9176C96.2452 11.0989 96.5107 10.8332 96.5107 10.5055V7.95502C96.5107 7.62727 96.2452 7.36157 95.9176 7.36157Z" fill="#BCC1CB"/>
<path d="M95.7377 14.9998H41.5322C41.0959 14.9998 40.7422 15.1281 40.7422 15.2864V23.4631C40.7422 23.6214 41.0959 23.7498 41.5322 23.7498H95.7377C96.174 23.7498 96.5277 23.6214 96.5277 23.4631V15.2864C96.5277 15.1281 96.174 14.9998 95.7377 14.9998Z" fill="#BCC1CB"/>
<path d="M95.7377 25H41.5322C41.0959 25 40.7422 25.1742 40.7422 25.389V36.486C40.7422 36.7008 41.0959 36.875 41.5322 36.875H95.7377C96.174 36.875 96.5277 36.7008 96.5277 36.486V25.389C96.5277 25.1742 96.174 25 95.7377 25Z" fill="#BCC1CB"/>
<path d="M91.7546 17.6672H45.2394C45.1444 17.6672 45.0674 17.7443 45.0674 17.8394V18.6276C45.0674 18.7227 45.1444 18.7998 45.2394 18.7998H91.7546C91.8496 18.7998 91.9266 18.7227 91.9266 18.6276V17.8394C91.9266 17.7443 91.8496 17.6672 91.7546 17.6672Z" fill="#F2F2F2"/>
<path d="M91.7546 20.8386H45.2394C45.1444 20.8386 45.0674 20.9157 45.0674 21.0108V21.799C45.0674 21.8941 45.1444 21.9712 45.2394 21.9712H91.7546C91.8496 21.9712 91.9266 21.8941 91.9266 21.799V21.0108C91.9266 20.9157 91.8496 20.8386 91.7546 20.8386Z" fill="#F2F2F2"/>
<path d="M91.7546 24.0098H45.2394C45.1444 24.0098 45.0674 24.0868 45.0674 24.1819V24.9702C45.0674 25.0652 45.1444 25.1423 45.2394 25.1423H91.7546C91.8496 25.1423 91.9266 25.0652 91.9266 24.9702V24.1819C91.9266 24.0868 91.8496 24.0098 91.7546 24.0098Z" fill="#F2F2F2"/>
<path d="M91.7546 27.1807H45.2394C45.1444 27.1807 45.0674 27.2577 45.0674 27.3528V28.141C45.0674 28.2361 45.1444 28.3132 45.2394 28.3132H91.7546C91.8496 28.3132 91.9266 28.2361 91.9266 28.141V27.3528C91.9266 27.2577 91.8496 27.1807 91.7546 27.1807Z" fill="#F2F2F2"/>
<path d="M91.7546 30.3518H45.2394C45.1444 30.3518 45.0674 30.4289 45.0674 30.524V31.3122C45.0674 31.4073 45.1444 31.4843 45.2394 31.4843H91.7546C91.8496 31.4843 91.9266 31.4073 91.9266 31.3122V30.524C91.9266 30.4289 91.8496 30.3518 91.7546 30.3518Z" fill="#F2F2F2"/>
<path d="M91.7546 33.5227H45.2394C45.1444 33.5227 45.0674 33.5998 45.0674 33.6948V34.4831C45.0674 34.5782 45.1444 34.6552 45.2394 34.6552H91.7546C91.8496 34.6552 91.9266 34.5782 91.9266 34.4831V33.6948C91.9266 33.5998 91.8496 33.5227 91.7546 33.5227Z" fill="#F2F2F2"/>
<path d="M31.0065 7.57568H16.7269C15.8568 7.57568 15.1514 8.2815 15.1514 9.15216V28.5365C15.1514 29.4072 15.8568 30.113 16.7269 30.113H31.0065C31.8767 30.113 32.5821 29.4072 32.5821 28.5365V9.15216C32.5821 8.2815 31.8767 7.57568 31.0065 7.57568Z" fill="#32A52F"/>
<path d="M24.2427 23.485C26.7531 23.485 28.7882 21.4499 28.7882 18.9395C28.7882 16.4291 26.7531 14.394 24.2427 14.394C21.7323 14.394 19.6973 16.4291 19.6973 18.9395C19.6973 21.4499 21.7323 23.485 24.2427 23.485Z" fill="#F2F2F2"/>
<path d="M31.4389 29.1667H17.0449C17.0964 27.739 17.2106 27.5274 18.0426 26.5396C18.8746 25.5518 19.9815 25.0003 21.1328 25H27.351C28.5023 25.0003 29.6092 25.5518 30.4412 26.5396C31.2732 27.5274 31.3874 27.739 31.4389 29.1667Z" fill="#F2F2F2"/>
</svg>
