<svg width="36" height="36" viewBox="0 0 36 36" fill="none" xmlns="http://www.w3.org/2000/svg">
<path fill-rule="evenodd" clip-rule="evenodd" d="M6 7C6 6.44772 6.44772 6 7 6H14C14.5523 6 15 6.44772 15 7C15 7.55228 14.5523 8 14 8H8V14C8 14.5523 7.55228 15 7 15C6.44772 15 6 14.5523 6 14V7Z" fill="var(--ion-text-color)"/>
<path fill-rule="evenodd" clip-rule="evenodd" d="M31 30C31 30.5523 30.5523 31 30 31L23 31C22.4477 31 22 30.5523 22 30C22 29.4477 22.4477 29 23 29L29 29L29 23C29 22.4477 29.4477 22 30 22C30.5523 22 31 22.4477 31 23L31 30Z" fill="var(--ion-text-color)"/>
<path fill-rule="evenodd" clip-rule="evenodd" d="M30 6C30.5523 6 31 6.44772 31 7L31 14C31 14.5523 30.5523 15 30 15C29.4477 15 29 14.5523 29 14L29 8L23 8C22.4477 8 22 7.55228 22 7C22 6.44771 22.4477 6 23 6L30 6Z" fill="var(--ion-text-color)"/>
<path fill-rule="evenodd" clip-rule="evenodd" d="M7 31C6.44772 31 6 30.5523 6 30L6 23C6 22.4477 6.44771 22 7 22C7.55228 22 8 22.4477 8 23L8 29L14 29C14.5523 29 15 29.4477 15 30C15 30.5523 14.5523 31 14 31L7 31Z" fill="var(--ion-text-color)"/>
<path fill-rule="evenodd" clip-rule="evenodd" d="M26 11H11V26H26V11ZM22.7768 16.2803C23.0744 15.9874 23.0744 15.5126 22.7768 15.2197C22.4793 14.9268 21.9969 14.9268 21.6993 15.2197L17.6667 19.1893L16.3007 17.8447C16.0031 17.5518 15.5207 17.5518 15.2232 17.8447C14.9256 18.1376 14.9256 18.6124 15.2232 18.9053L17.1279 20.7803C17.4255 21.0732 17.9079 21.0732 18.2054 20.7803L22.7768 16.2803Z" fill="var(--ion-text-color)"/>
</svg>
