<svg viewBox="3 3 30 30" fill="none" xmlns="http://www.w3.org/2000/svg">
<path d="M29.0004 31.5141V5.01402C29.0004 4.47276 28.5674 4.0181 28.0045 4.0181C27.4632 4.0181 27.0085 4.45111 27.0085 5.01402V31.5141C27.0085 32.0554 27.4416 32.5101 28.0045 32.5101C28.5457 32.5101 29.0004 32.0771 29.0004 31.5141Z" fill="#EE4A39"/>
<path d="M22.0936 7.91498C23.2411 7.91498 24.3669 8.10984 25.4278 8.4779V6.81081C24.3453 6.48606 23.2195 6.3345 22.0936 6.3345C15.7717 6.3345 10.5973 11.2708 10.1859 17.5061H6.22388L8.36727 15.3627C8.67038 15.0596 8.67038 14.5617 8.36727 14.2369C8.06416 13.9338 7.5662 13.9338 7.24145 14.2369L3.77738 17.701C3.47427 18.0041 3.47427 18.502 3.77738 18.8268L7.24145 22.2909C7.393 22.4424 7.58785 22.529 7.80436 22.529C8.02086 22.529 8.21572 22.4424 8.36727 22.2909C8.67038 21.9878 8.67038 21.4898 8.36727 21.165L6.22388 19.0217H10.1859C10.5756 25.2353 15.7717 30.1933 22.0936 30.1933C23.2195 30.1933 24.3453 30.0201 25.4278 29.717V28.0499C24.3669 28.4179 23.2195 28.6128 22.0936 28.6128C16.3996 28.6128 11.7447 23.9796 11.7447 18.2639C11.7447 12.5698 16.3779 7.91498 22.0936 7.91498Z" fill="#EE4A39"/>
<path d="M25.4278 9.82052C24.3886 9.40916 23.2628 9.19266 22.0937 9.19266C17.0924 9.19266 13.0005 13.2629 13.0005 18.2858C13.0005 23.3087 17.0708 27.379 22.0937 27.379C23.2628 27.379 24.4103 27.1409 25.4278 26.7512V9.82052ZM19.7771 16.4239H18.3698V21.6633H17.1357V16.4239H15.7284V15.363H19.7771V16.4239ZM24.1072 20.4942C23.8257 20.6457 23.5226 20.7107 23.2195 20.7323V21.7716H22.3318V20.754C21.7256 20.6674 21.2926 20.3643 21.0111 20.0828C20.7946 19.8447 20.34 19.2818 20.34 18.2642C20.34 17.4631 20.6214 16.8569 21.0545 16.4239C21.3143 16.1641 21.7256 15.861 22.3318 15.7527V14.7568H23.2195V15.7744C23.5226 15.7744 23.8257 15.861 24.1072 16.0125V17.3549C23.8041 17.0085 23.4143 16.8786 23.0679 16.8786C22.7215 16.8786 22.3968 17.0085 22.1586 17.225C21.9638 17.4198 21.7473 17.7662 21.7473 18.2858C21.7473 18.7188 21.8988 19.0869 22.1586 19.3251C22.3535 19.5199 22.6782 19.6498 23.0463 19.6498C23.371 19.6498 23.8041 19.5632 24.1072 19.1735V20.4942Z" fill="#EE4A39"/>
</svg>
