<svg width="36" height="36" viewBox="0 0 36 36" fill="none" xmlns="http://www.w3.org/2000/svg">
<path fill-rule="evenodd" clip-rule="evenodd" d="M30.3163 19.8952C30.2593 19.618 29.8791 19.2115 29.4419 18.7495C29.0427 18.3244 28.5865 17.8254 28.2253 17.271C27.8261 16.6427 27.8451 15.7741 27.8451 14.7022C27.8451 14.1848 27.8451 13.6303 27.8071 13.039C27.8071 8.04922 22.9596 4.00198 16.9717 4.00198C16.9146 4.00198 16.8766 4.00198 16.8196 4.00198C15.736 3.9835 14.6525 4.09438 13.607 4.33463C11.763 4.77816 10.0712 5.62827 8.75954 6.92191C7.40987 8.27099 6.59246 9.84183 6.28831 11.4866C6.19326 12.0041 6.13623 12.5215 6.13623 13.039C6.13623 13.0574 6.13623 13.0574 6.13623 13.0759C6.13623 13.2423 6.13623 13.3901 6.13623 13.5564C6.25029 16.0883 7.39086 18.657 9.38686 20.7453C10.4134 21.8357 10.3754 23.7762 10.3183 25.7721C10.2803 27.0472 10.2613 28.3409 10.5084 29.3942L21.9331 32C22.0662 31.9076 22.3323 30.3183 22.3323 30.3183C22.3513 30.0041 22.3513 29.6715 22.3513 29.3388C22.3513 28.156 22.3704 26.9918 22.8646 26.4558C23.568 25.6797 24.3854 25.7351 25.3929 25.7905C25.64 25.809 25.9251 25.8275 26.1723 25.8275C27.8261 25.8645 28.1683 25.0328 28.1873 24.0718C28.1873 23.7022 28.1492 23.2957 28.1112 22.9076C28.0162 21.8727 27.9211 20.9486 28.7005 20.6345H28.7195C28.8526 20.579 28.9096 20.579 29.0237 20.5605L29.1377 20.5421C30.0882 20.3388 30.3734 20.1355 30.3163 19.8952ZM20.7545 12.8911C20.7545 13.0574 20.7355 13.2238 20.7165 13.3901L21.8381 14.2402C21.9331 14.3141 21.9712 14.462 21.8951 14.5729L20.8496 16.347C20.7926 16.4579 20.6405 16.4948 20.5264 16.4579L19.2148 15.9404C18.9486 16.1437 18.6445 16.31 18.3213 16.4394L18.1312 17.7885C18.1122 17.9178 17.9982 18.0102 17.8651 18.0102H15.755C15.622 18.0102 15.5269 17.9178 15.4889 17.8069L15.2988 16.4579C14.9757 16.3285 14.6905 16.1622 14.4054 15.9589L13.0937 16.4763C12.9797 16.5133 12.8276 16.4763 12.7706 16.3655L11.725 14.5913C11.668 14.4804 11.687 14.3511 11.7821 14.2587L12.9036 13.4086C12.8846 13.2423 12.8656 13.0759 12.8656 12.9096C12.8656 12.7433 12.8846 12.577 12.9036 12.4106L11.7821 11.5605C11.687 11.4866 11.649 11.3388 11.725 11.2279L12.7706 9.45374C12.8276 9.34286 12.9797 9.30589 13.0937 9.34286L14.4054 9.86031C14.6715 9.65703 14.9757 9.4907 15.2988 9.36134L15.4889 8.01226C15.5079 7.88289 15.622 7.79049 15.755 7.79049H17.8651C17.9982 7.79049 18.0932 7.88289 18.1312 7.99378L18.3213 9.34286C18.6445 9.47222 18.9296 9.63855 19.2148 9.84183L20.5264 9.32438C20.6405 9.28741 20.7926 9.32438 20.8496 9.43526L21.8951 11.2094C21.9521 11.3203 21.9331 11.4496 21.8381 11.542L20.7165 12.3921C20.7355 12.54 20.7545 12.7063 20.7545 12.8911Z" fill="var(--ion-text-color)"/>
<path fill-rule="evenodd" clip-rule="evenodd" d="M16.8005 11.0986C15.793 11.0986 14.9756 11.8933 14.9756 12.8728C14.9756 13.8522 15.793 14.6469 16.8005 14.6469C17.808 14.6469 18.6254 13.8522 18.6254 12.8728C18.6254 11.8933 17.808 11.0986 16.8005 11.0986Z" fill="var(--ion-text-color)"/>
</svg>
