<svg width="38" height="38" viewBox="0 0 38 38" fill="none" xmlns="http://www.w3.org/2000/svg">
<path d="M19.0033 32.0065C11.832 32.0065 6 26.1745 6 19.0033C6 15.4404 7.41085 12.118 9.97899 9.64091C10.3951 9.23781 11.0583 9.25081 11.4549 9.66692C11.858 10.083 11.845 10.7462 11.4289 11.1428C9.27682 13.2233 8.09352 16.0125 8.09352 19.0033C8.09352 25.0173 12.9892 29.913 19.0033 29.913C25.0173 29.913 29.913 25.0173 29.913 19.0033C29.913 13.3403 25.5764 8.66567 20.0435 8.13903V12.2091C20.0435 12.7877 19.5754 13.2558 18.9967 13.2558C18.4181 13.2558 17.95 12.7877 17.95 12.2091V7.04676C17.95 6.46812 18.4181 6 18.9967 6C26.168 6 32 11.832 32 19.0033C32 26.1745 26.1745 32.0065 19.0033 32.0065Z" fill="var(--ion-text-color)"/>
<path d="M13.7954 12.8854L20.2645 17.534C21.1423 18.1647 21.3503 19.387 20.7197 20.2647C20.089 21.1424 18.8667 21.3505 17.989 20.7198C17.8069 20.5898 17.6509 20.4338 17.5339 20.2647L12.8852 13.7956C12.6772 13.503 12.7422 13.0934 13.0347 12.8854C13.2688 12.7163 13.5744 12.7293 13.7954 12.8854Z" fill="var(--ion-text-color)"/>
</svg>
