<svg viewBox="2.5 2.5 25 25" class="s-ion-icon" xmlns="http://www.w3.org/2000/svg">
<path d="M4.16602 11.3333C4.16602 12.5833 5.16602 13.5833 6.41602 13.5833C7.66602 13.5833 8.66602 12.5833 8.66602 11.3333C8.66602 10.9999 8.74935 10.6666 9.16602 10.6666C9.58268 10.6666 9.83268 10.9999 9.83268 11.3333C9.83268 12.5833 10.8327 13.5833 12.0827 13.5833C13.3327 13.5833 14.3327 12.5833 14.3327 11.3333C14.3327 10.9166 14.5827 10.6666 14.9993 10.6666C15.416 10.6666 15.666 10.9999 15.666 11.3333C15.666 12.5833 16.666 13.5833 17.916 13.5833C19.166 13.5833 20.166 12.5833 20.166 11.3333C20.166 10.9166 20.416 10.6666 20.8327 10.6666C21.2493 10.6666 21.4993 10.9999 21.4993 11.3333C21.4993 12.5833 22.4993 13.5833 23.7493 13.5833C24.9993 13.5833 25.9993 12.5833 25.9993 11.2499C25.9993 11.2499 25.916 11.3333 25.9993 11.2499L25.0827 5.83325H5.24935L4.16602 11.3333Z" />
<path d="M23.832 14.9167C22.7487 14.9167 21.832 14.5 21.1654 13.75C20.9987 13.5833 20.7487 13.5833 20.6654 13.75C19.9987 14.5 19.082 14.9167 17.9987 14.9167C16.9154 14.9167 15.9987 14.5 15.332 13.75C15.1654 13.5833 14.9154 13.5833 14.832 13.75C14.1654 14.5 13.2487 14.9167 12.1654 14.9167C11.082 14.9167 10.1654 14.5 9.4987 13.75C9.41536 13.5833 9.16536 13.5833 8.9987 13.75C8.33203 14.5 7.33203 14.9167 6.33203 14.9167C6.16536 14.9167 5.9987 14.8333 5.83203 14.8333V22.9167C5.83203 23.25 6.08203 23.5 6.41536 23.5H17.332V18.4167C17.332 18 17.6654 17.75 17.9987 17.75H20.082C20.4987 17.75 20.7487 18.0833 20.7487 18.4167V23.5H23.832C24.1654 23.5 24.4987 23.25 24.4987 22.9167V14.8333C24.332 14.9167 24.082 14.9167 23.832 14.9167ZM13.9154 20.5833C13.9154 20.9167 13.6654 21.0833 13.4154 21.0833H9.33203C8.9987 21.0833 8.83203 20.8333 8.83203 20.5833V18.5833C8.83203 18.25 9.08203 18.0833 9.33203 18.0833H13.4154C13.7487 18.0833 13.9154 18.3333 13.9154 18.5833V20.5833Z" />
</svg>
