<svg viewBox="3 7 24.3 17" class="s-ion-icon" xmlns="http://www.w3.org/2000/svg">
<path d="M25.5099 10.5592H4.88489C4.36926 10.5592 3.94739 10.1373 3.94739 9.6217C3.94739 9.10608 4.36926 8.6842 4.88489 8.6842H25.5099C26.0255 8.6842 26.4474 9.10608 26.4474 9.6217C26.4474 10.1373 26.0255 10.5592 25.5099 10.5592ZM25.5099 16.1842H4.88489C4.36926 16.1842 3.94739 15.7623 3.94739 15.2467C3.94739 14.7311 4.36926 14.3092 4.88489 14.3092H25.5099C26.0255 14.3092 26.4474 14.7311 26.4474 15.2467C26.4474 15.7623 26.0255 16.1842 25.5099 16.1842ZM25.5099 21.8092H4.88489C4.36926 21.8092 3.94739 21.3873 3.94739 20.8717C3.94739 20.3561 4.36926 19.9342 4.88489 19.9342H25.5099C26.0255 19.9342 26.4474 20.3561 26.4474 20.8717C26.4474 21.3873 26.0255 21.8092 25.5099 21.8092Z" />
</svg>
