<svg width="210" height="172" viewBox="0 0 210 172" fill="none" xmlns="http://www.w3.org/2000/svg">
<path d="M11.6468 137.046L2.22772 105.569L56.771 89.3704L66.1901 120.847L11.6468 137.046Z" fill="white" stroke="#858891" stroke-width="2"/>
<g opacity="0.6">
<path opacity="0.6" d="M5.78998 111.997L12.9727 109.864L11.388 104.568L4.20534 106.701L5.78998 111.997Z" fill="#32A52F"/>
<path opacity="0.6" d="M14.7642 120.55L42.3477 112.358L41.834 110.642L14.2505 118.834L14.7642 120.55Z" fill="#32A52F"/>
<path opacity="0.6" d="M23.3481 122.05L43.4609 116.077L43.1183 114.932L23.0054 120.905L23.3481 122.05Z" fill="#32A52F"/>
</g>
<path d="M200.421 47.3749L144.554 36.5364L150.857 4.29695L206.723 15.1354L200.421 47.3749Z" fill="white" stroke="#858891" stroke-width="2"/>
<g opacity="0.6">
<path opacity="0.6" d="M150.999 11.6369L158.355 13.0642L159.416 7.64027L152.059 6.21299L150.999 11.6369Z" fill="#32A52F"/>
<path opacity="0.6" d="M154.97 23.3638L183.223 28.845L183.566 27.0868L155.314 21.6056L154.97 23.3638Z" fill="#32A52F"/>
<path opacity="0.6" d="M161.878 28.661L182.479 32.6577L182.708 31.4848L162.107 27.4881L161.878 28.661Z" fill="#32A52F"/>
</g>
<path d="M178.05 141.88L155.403 89.8681L185.655 76.795L208.302 128.807L178.05 141.88Z" fill="white" stroke="#858891" stroke-width="2"/>
<g opacity="0.6">
<path opacity="0.6" d="M179.65 81.0738L182.633 87.9238L187.721 85.7248L184.739 78.8748L179.65 81.0738Z" fill="#32A52F"/>
<path opacity="0.6" d="M172.194 90.9697L183.648 117.276L185.298 116.563L173.844 90.2569L172.194 90.9697Z" fill="#32A52F"/>
<path opacity="0.6" d="M171.72 99.6383L180.072 118.82L181.173 118.344L172.821 99.1628L171.72 99.6383Z" fill="#32A52F"/>
</g>
<path d="M29.5971 54.8327L18.5752 23.8767L72.2157 4.9218L83.2377 35.8778L29.5971 54.8327Z" fill="white" stroke="#858891" stroke-width="2"/>
<g opacity="0.6">
<path opacity="0.6" d="M22.444 30.1282L29.5078 27.6321L27.6535 22.4242L20.5897 24.9203L22.444 30.1282Z" fill="#32A52F"/>
<path opacity="0.6" d="M31.8455 38.2167L58.9727 28.6309L58.3716 26.9427L31.2445 36.5285L31.8455 38.2167Z" fill="#32A52F"/>
<path opacity="0.6" d="M40.4953 39.278L60.2754 32.2883L59.8744 31.1621L40.0943 38.1518L40.4953 39.278Z" fill="#32A52F"/>
</g>
<path d="M106.605 3.1974L105.579 2.23503L104.553 3.19739L33.552 69.785L33.0781 70.2294V70.8791V168.932V170.432H34.5781H176.577H178.077V168.932V70.8791V70.2294L177.603 69.785L106.605 3.1974Z" fill="white" stroke="white" stroke-width="3"/>
<path d="M174.856 165.781H36.2969V71.1558L105.578 6.85072L174.856 71.1558V165.781Z" fill="white" stroke="#127127" stroke-width="2"/>
<path d="M58.8809 132.566V20.8237H152.271V132.566H58.8809Z" fill="white" stroke="#858891" stroke-width="2"/>
<path d="M36.2969 164.886V72.6144L103.805 118.75L36.2969 164.886Z" fill="#F0F0F0" stroke="#127127" stroke-width="2"/>
<path d="M174.857 164.886L107.35 118.75L174.857 72.6144V164.886Z" fill="#F0F0F0" stroke="#127127" stroke-width="2"/>
<path d="M35.2969 166.778L102.818 114.444C103.603 113.827 104.574 113.492 105.574 113.492C106.574 113.492 107.545 113.827 108.331 114.444L175.856 166.778H35.2969Z" fill="#127127"/>
<path d="M107.735 117.533L172.828 165.778H38.3253L103.413 117.533C103.413 117.533 103.413 117.533 103.413 117.533C104.037 117.07 104.795 116.82 105.574 116.82C106.353 116.82 107.111 117.07 107.735 117.533C107.735 117.533 107.735 117.533 107.735 117.533Z" fill="white" stroke="#127127" stroke-width="2"/>
<path d="M92.2647 41.8062H72.3555V45.1521H92.2647V41.8062Z" fill="#32A52F"/>
<path d="M138.798 50.6492H72.3555V53.9951H138.798V50.6492Z" fill="#BCC1CB"/>
<path d="M138.798 56.3826H72.3555V59.7285H138.798V56.3826Z" fill="#BCC1CB"/>
<path d="M138.798 62.1184H72.3555V65.4643H138.798V62.1184Z" fill="#BCC1CB"/>
<path d="M138.798 67.8518H72.3555V71.1977H138.798V67.8518Z" fill="#BCC1CB"/>
<path d="M102.578 73.5876H72.3555V76.9336H102.578V73.5876Z" fill="#BCC1CB"/>
<path d="M138.799 73.5876H108.576V76.9336H138.799V73.5876Z" fill="#32A52F"/>
</svg>
