<svg width="386" height="69" viewBox="0 0 386 69" fill="none" xmlns="http://www.w3.org/2000/svg">
<path d="M251.427 47.0886L258.556 5.50613H266.357L276.221 34.0913L285.817 5.50613H293.573L300.657 47.0886H292.721L288.372 20.8707L279.674 47.0886H272.455L263.622 20.8707L259.184 47.0886H251.427Z" fill="#38AA2C"/>
<path d="M306.262 47.0886V5.50613H314.422V47.0886H306.262Z" fill="#38AA2C"/>
<path d="M323.076 47.0886V5.50613H331.281L348.543 32.3047V5.50613H356.883V47.0886H349.081L331.281 19.8434V47.0886H323.076Z" fill="#38AA2C"/>
<path d="M361.994 13.1437V5.50613H385.085V13.1437H377.732V47.0886H369.437V13.1437H361.994Z" fill="#38AA2C"/>
<path d="M90.2969 68.7468C88.5888 68.7468 87.0466 68.3654 85.6701 67.6026C84.3103 66.8397 83.2324 65.7867 82.4363 64.4434C81.6569 63.1001 81.2672 61.591 81.2672 59.9161C81.2672 58.2412 81.6569 56.7321 82.4363 55.3888C83.2324 54.0455 84.3103 52.9925 85.6701 52.2297C87.0466 51.4668 88.5888 51.0854 90.2969 51.0854C91.5573 51.0854 92.7181 51.2927 93.7795 51.7073C94.8408 52.1053 95.7446 52.7023 96.4909 53.4983L95.6949 54.3192C94.3018 52.9427 92.5191 52.2545 90.3467 52.2545C88.8873 52.2545 87.5606 52.5862 86.3666 53.2495C85.1726 53.9129 84.2357 54.8333 83.5557 56.0107C82.8758 57.1715 82.5358 58.4733 82.5358 59.9161C82.5358 61.3589 82.8758 62.669 83.5557 63.8464C84.2357 65.0072 85.1726 65.9193 86.3666 66.5827C87.5606 67.246 88.8873 67.5777 90.3467 67.5777C92.5025 67.5777 94.2853 66.8812 95.6949 65.4882L96.4909 66.309C95.7446 67.105 94.8325 67.7103 93.7546 68.1249C92.6932 68.5395 91.5407 68.7468 90.2969 68.7468Z" fill="var(--im-logo-text-color)"/>
<path d="M104.809 68.7219C103.582 68.7219 102.471 68.44 101.476 67.8762C100.498 67.3123 99.7265 66.5329 99.1626 65.5379C98.5988 64.5263 98.3169 63.3903 98.3169 62.13C98.3169 60.8697 98.5988 59.742 99.1626 58.747C99.7265 57.7354 100.498 56.9477 101.476 56.3838C102.471 55.82 103.582 55.5381 104.809 55.5381C106.036 55.5381 107.139 55.82 108.118 56.3838C109.113 56.9477 109.892 57.7354 110.456 58.747C111.02 59.742 111.302 60.8697 111.302 62.13C111.302 63.3903 111.02 64.5263 110.456 65.5379C109.892 66.5329 109.113 67.3123 108.118 67.8762C107.139 68.44 106.036 68.7219 104.809 68.7219ZM104.809 67.6026C105.804 67.6026 106.692 67.3704 107.471 66.906C108.267 66.4417 108.889 65.795 109.337 64.9658C109.801 64.1366 110.033 63.1913 110.033 62.13C110.033 61.0687 109.801 60.1234 109.337 59.2942C108.889 58.465 108.267 57.8183 107.471 57.354C106.692 56.8896 105.804 56.6574 104.809 56.6574C103.814 56.6574 102.919 56.8896 102.123 57.354C101.343 57.8183 100.721 58.465 100.257 59.2942C99.8094 60.1234 99.5855 61.0687 99.5855 62.13C99.5855 63.1913 99.8094 64.1366 100.257 64.9658C100.721 65.795 101.343 66.4417 102.123 66.906C102.919 67.3704 103.814 67.6026 104.809 67.6026Z" fill="var(--im-logo-text-color)"/>
<path d="M131.329 55.5381C132.938 55.5381 134.198 56.0107 135.11 56.9559C136.039 57.9012 136.503 59.2611 136.503 61.0355V68.6224H135.26V61.135C135.26 59.6756 134.903 58.5645 134.19 57.8017C133.477 57.0389 132.482 56.6574 131.205 56.6574C129.745 56.6574 128.585 57.1135 127.722 58.0256C126.877 58.9377 126.454 60.1649 126.454 61.7071V68.6224H125.21V61.135C125.21 59.6756 124.853 58.5645 124.14 57.8017C123.427 57.0389 122.432 56.6574 121.155 56.6574C119.696 56.6574 118.535 57.1135 117.673 58.0256C116.827 58.9377 116.404 60.1649 116.404 61.7071V68.6224H115.16V55.6376H116.354V58.4236C116.785 57.5115 117.424 56.8067 118.27 56.3092C119.132 55.7951 120.152 55.5381 121.329 55.5381C122.507 55.5381 123.502 55.8034 124.314 56.3341C125.144 56.8647 125.732 57.6442 126.081 58.6723C126.512 57.7105 127.183 56.9477 128.095 56.3838C129.024 55.82 130.102 55.5381 131.329 55.5381Z" fill="var(--im-logo-text-color)"/>
<path d="M157.808 55.5381C159.416 55.5381 160.677 56.0107 161.589 56.9559C162.517 57.9012 162.982 59.2611 162.982 61.0355V68.6224H161.738V61.135C161.738 59.6756 161.381 58.5645 160.668 57.8017C159.955 57.0389 158.96 56.6574 157.683 56.6574C156.224 56.6574 155.063 57.1135 154.201 58.0256C153.355 58.9377 152.932 60.1649 152.932 61.7071V68.6224H151.688V61.135C151.688 59.6756 151.332 58.5645 150.619 57.8017C149.906 57.0389 148.911 56.6574 147.634 56.6574C146.174 56.6574 145.014 57.1135 144.151 58.0256C143.305 58.9377 142.883 60.1649 142.883 61.7071V68.6224H141.639V55.6376H142.833V58.4236C143.264 57.5115 143.902 56.8067 144.748 56.3092C145.611 55.7951 146.63 55.5381 147.808 55.5381C148.985 55.5381 149.98 55.8034 150.793 56.3341C151.622 56.8647 152.211 57.6442 152.559 58.6723C152.99 57.7105 153.662 56.9477 154.574 56.3838C155.503 55.82 156.581 55.5381 157.808 55.5381Z" fill="var(--im-logo-text-color)"/>
<path d="M179.485 55.6376V68.6224H178.291V65.8364C177.86 66.7485 177.222 67.4616 176.376 67.9757C175.53 68.4732 174.535 68.7219 173.391 68.7219C171.699 68.7219 170.373 68.2493 169.411 67.304C168.449 66.3588 167.968 64.9989 167.968 63.2245V55.6376H169.212V63.125C169.212 64.5844 169.585 65.6955 170.331 66.4583C171.078 67.2211 172.131 67.6026 173.49 67.6026C174.95 67.6026 176.102 67.1465 176.948 66.2344C177.81 65.3223 178.242 64.0951 178.242 62.5529V55.6376H179.485Z" fill="var(--im-logo-text-color)"/>
<path d="M191.101 55.5381C192.726 55.5381 194.011 56.0107 194.956 56.9559C195.902 57.9012 196.374 59.2611 196.374 61.0355V68.6224H195.131V61.135C195.131 59.6756 194.757 58.5645 194.011 57.8017C193.281 57.0389 192.253 56.6574 190.927 56.6574C189.401 56.6574 188.199 57.1135 187.32 58.0256C186.441 58.9377 186.001 60.1649 186.001 61.7071V68.6224H184.758V55.6376H185.952V58.4485C186.399 57.5364 187.063 56.8233 187.942 56.3092C188.837 55.7951 189.89 55.5381 191.101 55.5381Z" fill="var(--im-logo-text-color)"/>
<path d="M201.495 55.6376H202.739V68.6224H201.495V55.6376ZM202.117 52.4784C201.835 52.4784 201.594 52.3872 201.395 52.2048C201.196 52.0058 201.097 51.7653 201.097 51.4834C201.097 51.2015 201.196 50.961 201.395 50.762C201.594 50.563 201.835 50.4635 202.117 50.4635C202.399 50.4635 202.639 50.563 202.838 50.762C203.037 50.9444 203.137 51.1766 203.137 51.4585C203.137 51.7404 203.037 51.9809 202.838 52.1799C202.639 52.3789 202.399 52.4784 202.117 52.4784Z" fill="var(--im-logo-text-color)"/>
<path d="M214.424 67.8016C214.109 68.1001 213.711 68.3322 213.23 68.4981C212.765 68.6473 212.276 68.7219 211.762 68.7219C210.634 68.7219 209.764 68.4151 209.15 67.8016C208.536 67.1714 208.23 66.3007 208.23 65.1897V56.7072H205.842V55.6376H208.23V52.8018H209.473V55.6376H213.603V56.7072H209.473V65.0653C209.473 65.911 209.672 66.5578 210.07 67.0055C210.485 67.4367 211.09 67.6523 211.886 67.6523C212.699 67.6523 213.371 67.4118 213.901 66.9309L214.424 67.8016Z" fill="var(--im-logo-text-color)"/>
<path d="M217.892 55.6376H219.136V68.6224H217.892V55.6376ZM218.514 52.4784C218.232 52.4784 217.992 52.3872 217.793 52.2048C217.594 52.0058 217.494 51.7653 217.494 51.4834C217.494 51.2015 217.594 50.961 217.793 50.762C217.992 50.563 218.232 50.4635 218.514 50.4635C218.796 50.4635 219.036 50.563 219.235 50.762C219.434 50.9444 219.534 51.1766 219.534 51.4585C219.534 51.7404 219.434 51.9809 219.235 52.1799C219.036 52.3789 218.796 52.4784 218.514 52.4784Z" fill="var(--im-logo-text-color)"/>
<path d="M235.348 62.4285H224.179C224.212 63.4401 224.469 64.3439 224.95 65.1399C225.431 65.9193 226.078 66.5246 226.891 66.9558C227.72 67.387 228.648 67.6026 229.677 67.6026C230.522 67.6026 231.302 67.4533 232.015 67.1548C232.745 66.8397 233.35 66.3837 233.831 65.7867L234.552 66.6075C233.988 67.2875 233.275 67.8098 232.413 68.1747C231.567 68.5395 230.647 68.7219 229.652 68.7219C228.358 68.7219 227.206 68.44 226.194 67.8762C225.182 67.3123 224.386 66.5329 223.806 65.5379C223.242 64.5429 222.96 63.4069 222.96 62.13C222.96 60.8697 223.226 59.742 223.756 58.747C224.304 57.7354 225.05 56.9477 225.995 56.3838C226.94 55.82 228.002 55.5381 229.179 55.5381C230.357 55.5381 231.41 55.82 232.338 56.3838C233.283 56.9311 234.021 57.7022 234.552 58.6972C235.099 59.6922 235.373 60.8199 235.373 62.0802L235.348 62.4285ZM229.179 56.6326C228.267 56.6326 227.446 56.8399 226.716 57.2545C225.987 57.6525 225.398 58.2246 224.95 58.9708C224.519 59.7005 224.27 60.5297 224.204 61.4584H234.154C234.104 60.5297 233.856 59.7005 233.408 58.9708C232.96 58.2412 232.371 57.669 231.642 57.2545C230.912 56.8399 230.091 56.6326 229.179 56.6326Z" fill="var(--im-logo-text-color)"/>
<path d="M242.504 68.7219C241.459 68.7219 240.464 68.5644 239.519 68.2493C238.574 67.9342 237.836 67.5362 237.305 67.0553L237.877 66.0603C238.408 66.508 239.088 66.8812 239.917 67.1797C240.763 67.4782 241.642 67.6274 242.554 67.6274C243.864 67.6274 244.826 67.4118 245.44 66.9807C246.07 66.5495 246.385 65.9525 246.385 65.1897C246.385 64.6424 246.211 64.2112 245.862 63.8961C245.531 63.5811 245.116 63.3489 244.619 63.1996C244.121 63.0504 243.433 62.8928 242.554 62.727C241.526 62.5446 240.697 62.3456 240.066 62.13C239.436 61.9144 238.897 61.5662 238.45 61.0852C238.002 60.6043 237.778 59.941 237.778 59.0952C237.778 58.067 238.201 57.2213 239.047 56.5579C239.909 55.878 241.128 55.5381 242.703 55.5381C243.532 55.5381 244.353 55.6541 245.166 55.8863C245.978 56.1185 246.642 56.4253 247.156 56.8067L246.584 57.8017C246.053 57.4203 245.448 57.1301 244.768 56.9311C244.088 56.7321 243.391 56.6326 242.678 56.6326C241.468 56.6326 240.556 56.8564 239.942 57.3042C239.329 57.752 239.022 58.3407 239.022 59.0703C239.022 59.6508 239.196 60.1068 239.544 60.4385C239.892 60.7536 240.315 60.994 240.813 61.1599C241.327 61.3091 242.04 61.475 242.952 61.6574C243.964 61.8398 244.776 62.0388 245.39 62.2544C246.02 62.4534 246.551 62.785 246.982 63.2494C247.413 63.7137 247.629 64.3522 247.629 65.1648C247.629 66.2427 247.181 67.105 246.285 67.7518C245.39 68.3986 244.129 68.7219 242.504 68.7219Z" fill="var(--im-logo-text-color)"/>
<path d="M269.976 68.6224L265.822 62.8016C265.208 62.8845 264.644 62.926 264.13 62.926H259.155V68.6224H257.886V51.2098H264.13C266.319 51.2098 268.036 51.7321 269.279 52.7769C270.523 53.8051 271.145 55.2396 271.145 57.0803C271.145 58.4568 270.788 59.6176 270.075 60.5629C269.379 61.4915 268.376 62.1466 267.065 62.528L271.419 68.6224H269.976ZM264.13 61.8066C265.988 61.8066 267.405 61.4003 268.384 60.5877C269.362 59.7586 269.851 58.5894 269.851 57.0803C269.851 55.5712 269.362 54.4104 268.384 53.5978C267.405 52.7686 265.988 52.354 264.13 52.354H259.155V61.8066H264.13Z" fill="var(--im-logo-text-color)"/>
<path d="M286.362 62.4285H275.193C275.226 63.4401 275.483 64.3439 275.964 65.1399C276.445 65.9193 277.092 66.5246 277.904 66.9558C278.733 67.387 279.662 67.6026 280.69 67.6026C281.536 67.6026 282.315 67.4533 283.029 67.1548C283.758 66.8397 284.364 66.3837 284.844 65.7867L285.566 66.6075C285.002 67.2875 284.289 67.8098 283.427 68.1747C282.581 68.5395 281.66 68.7219 280.665 68.7219C279.372 68.7219 278.219 68.44 277.208 67.8762C276.196 67.3123 275.4 66.5329 274.82 65.5379C274.256 64.5429 273.974 63.4069 273.974 62.13C273.974 60.8697 274.239 59.742 274.77 58.747C275.317 57.7354 276.063 56.9477 277.009 56.3838C277.954 55.82 279.015 55.5381 280.193 55.5381C281.37 55.5381 282.423 55.82 283.352 56.3838C284.297 56.9311 285.035 57.7022 285.566 58.6972C286.113 59.6922 286.387 60.8199 286.387 62.0802L286.362 62.4285ZM280.193 56.6326C279.281 56.6326 278.46 56.8399 277.73 57.2545C277 57.6525 276.412 58.2246 275.964 58.9708C275.533 59.7005 275.284 60.5297 275.218 61.4584H285.168C285.118 60.5297 284.869 59.7005 284.422 58.9708C283.974 58.2412 283.385 57.669 282.655 57.2545C281.926 56.8399 281.105 56.6326 280.193 56.6326Z" fill="var(--im-logo-text-color)"/>
<path d="M294.14 51.1351C292.515 51.1351 291.702 52.0058 291.702 53.747V55.6376H295.856V56.7072H291.727V68.6224H290.483V56.7072H288.095V55.6376H290.483V53.6475C290.483 52.553 290.798 51.6824 291.428 51.0356C292.059 50.3889 292.946 50.0655 294.09 50.0655C294.588 50.0655 295.06 50.1401 295.508 50.2894C295.972 50.4221 296.354 50.6293 296.652 50.9113L296.155 51.8565C295.624 51.3756 294.952 51.1351 294.14 51.1351Z" fill="var(--im-logo-text-color)"/>
<path d="M301.583 58.4733C301.981 57.5281 302.602 56.8067 303.448 56.3092C304.294 55.7951 305.322 55.5381 306.533 55.5381V56.7569L306.234 56.7321C304.791 56.7321 303.664 57.1881 302.851 58.1002C302.039 58.9957 301.632 60.2478 301.632 61.8564V68.6224H300.389V55.6376H301.583V58.4733Z" fill="var(--im-logo-text-color)"/>
<path d="M320.808 62.4285H309.639C309.672 63.4401 309.929 64.3439 310.41 65.1399C310.891 65.9193 311.538 66.5246 312.351 66.9558C313.18 67.387 314.108 67.6026 315.137 67.6026C315.982 67.6026 316.762 67.4533 317.475 67.1548C318.205 66.8397 318.81 66.3837 319.291 65.7867L320.012 66.6075C319.448 67.2875 318.735 67.8098 317.873 68.1747C317.027 68.5395 316.107 68.7219 315.112 68.7219C313.818 68.7219 312.666 68.44 311.654 67.8762C310.643 67.3123 309.846 66.5329 309.266 65.5379C308.702 64.5429 308.42 63.4069 308.42 62.13C308.42 60.8697 308.686 59.742 309.216 58.747C309.764 57.7354 310.51 56.9477 311.455 56.3838C312.4 55.82 313.462 55.5381 314.639 55.5381C315.817 55.5381 316.87 55.82 317.798 56.3838C318.744 56.9311 319.482 57.7022 320.012 58.6972C320.559 59.6922 320.833 60.8199 320.833 62.0802L320.808 62.4285ZM314.639 56.6326C313.727 56.6326 312.906 56.8399 312.176 57.2545C311.447 57.6525 310.858 58.2246 310.41 58.9708C309.979 59.7005 309.73 60.5297 309.664 61.4584H319.614C319.564 60.5297 319.316 59.7005 318.868 58.9708C318.42 58.2412 317.831 57.669 317.102 57.2545C316.372 56.8399 315.551 56.6326 314.639 56.6326Z" fill="var(--im-logo-text-color)"/>
<path d="M327.964 68.7219C326.92 68.7219 325.925 68.5644 324.979 68.2493C324.034 67.9342 323.296 67.5362 322.765 67.0553L323.338 66.0603C323.868 66.508 324.548 66.8812 325.377 67.1797C326.223 67.4782 327.102 67.6274 328.014 67.6274C329.324 67.6274 330.286 67.4118 330.9 66.9807C331.53 66.5495 331.845 65.9525 331.845 65.1897C331.845 64.6424 331.671 64.2112 331.322 63.8961C330.991 63.5811 330.576 63.3489 330.079 63.1996C329.581 63.0504 328.893 62.8928 328.014 62.727C326.986 62.5446 326.157 62.3456 325.527 62.13C324.896 61.9144 324.357 61.5662 323.91 61.0852C323.462 60.6043 323.238 59.941 323.238 59.0952C323.238 58.067 323.661 57.2213 324.507 56.5579C325.369 55.878 326.588 55.5381 328.163 55.5381C328.992 55.5381 329.813 55.6541 330.626 55.8863C331.439 56.1185 332.102 56.4253 332.616 56.8067L332.044 57.8017C331.513 57.4203 330.908 57.1301 330.228 56.9311C329.548 56.7321 328.852 56.6326 328.138 56.6326C326.928 56.6326 326.016 56.8564 325.402 57.3042C324.789 57.752 324.482 58.3407 324.482 59.0703C324.482 59.6508 324.656 60.1068 325.004 60.4385C325.352 60.7536 325.775 60.994 326.273 61.1599C326.787 61.3091 327.5 61.475 328.412 61.6574C329.424 61.8398 330.236 62.0388 330.85 62.2544C331.48 62.4534 332.011 62.785 332.442 63.2494C332.873 63.7137 333.089 64.3522 333.089 65.1648C333.089 66.2427 332.641 67.105 331.745 67.7518C330.85 68.3986 329.589 68.7219 327.964 68.7219Z" fill="var(--im-logo-text-color)"/>
<path d="M342.903 55.5381C344.528 55.5381 345.813 56.0107 346.759 56.9559C347.704 57.9012 348.176 59.2611 348.176 61.0355V68.6224H346.933V61.135C346.933 59.6756 346.56 58.5645 345.813 57.8017C345.084 57.0389 344.055 56.6574 342.729 56.6574C341.203 56.6574 340.001 57.1135 339.122 58.0256C338.243 58.9377 337.803 60.1649 337.803 61.7071V68.6224H336.56V50.165H337.803V58.349C338.251 57.4535 338.915 56.7652 339.793 56.2843C340.672 55.7868 341.709 55.5381 342.903 55.5381Z" fill="var(--im-logo-text-color)"/>
<path d="M364.291 62.4285H353.122C353.155 63.4401 353.413 64.3439 353.893 65.1399C354.374 65.9193 355.021 66.5246 355.834 66.9558C356.663 67.387 357.592 67.6026 358.62 67.6026C359.465 67.6026 360.245 67.4533 360.958 67.1548C361.688 66.8397 362.293 66.3837 362.774 65.7867L363.495 66.6075C362.931 67.2875 362.218 67.8098 361.356 68.1747C360.51 68.5395 359.59 68.7219 358.595 68.7219C357.301 68.7219 356.149 68.44 355.137 67.8762C354.126 67.3123 353.33 66.5329 352.749 65.5379C352.185 64.5429 351.903 63.4069 351.903 62.13C351.903 60.8697 352.169 59.742 352.699 58.747C353.247 57.7354 353.993 56.9477 354.938 56.3838C355.883 55.82 356.945 55.5381 358.122 55.5381C359.3 55.5381 360.353 55.82 361.281 56.3838C362.227 56.9311 362.965 57.7022 363.495 58.6972C364.043 59.6922 364.316 60.8199 364.316 62.0802L364.291 62.4285ZM358.122 56.6326C357.21 56.6326 356.389 56.8399 355.66 57.2545C354.93 57.6525 354.341 58.2246 353.893 58.9708C353.462 59.7005 353.214 60.5297 353.147 61.4584H363.097C363.048 60.5297 362.799 59.7005 362.351 58.9708C361.903 58.2412 361.315 57.669 360.585 57.2545C359.855 56.8399 359.034 56.6326 358.122 56.6326Z" fill="var(--im-logo-text-color)"/>
<path d="M379.706 50.165V68.6224H378.487V65.5628C377.973 66.5744 377.252 67.3538 376.323 67.9011C375.394 68.4483 374.341 68.7219 373.164 68.7219C371.953 68.7219 370.859 68.44 369.88 67.8762C368.902 67.3123 368.131 66.5329 367.567 65.5379C367.02 64.5429 366.746 63.4069 366.746 62.13C366.746 60.8531 367.02 59.7171 367.567 58.7221C368.131 57.7105 368.902 56.9311 369.88 56.3838C370.859 55.82 371.953 55.5381 373.164 55.5381C374.325 55.5381 375.361 55.8117 376.273 56.3589C377.202 56.9062 377.932 57.669 378.462 58.6475V50.165H379.706ZM373.238 67.6026C374.233 67.6026 375.121 67.3704 375.9 66.906C376.696 66.4417 377.318 65.795 377.766 64.9658C378.23 64.1366 378.462 63.1913 378.462 62.13C378.462 61.0687 378.23 60.1234 377.766 59.2942C377.318 58.465 376.696 57.8183 375.9 57.354C375.121 56.8896 374.233 56.6574 373.238 56.6574C372.243 56.6574 371.348 56.8896 370.552 57.354C369.772 57.8183 369.151 58.465 368.686 59.2942C368.238 60.1234 368.015 61.0687 368.015 62.13C368.015 63.1913 368.238 64.1366 368.686 64.9658C369.151 65.795 369.772 66.4417 370.552 66.906C371.348 67.3704 372.243 67.6026 373.238 67.6026Z" fill="var(--im-logo-text-color)"/>
<path d="M82.1267 4.76358V11.4358H86.1432V4.76358H82.1267Z" fill="var(--im-logo-text-color)"/>
<path d="M86.1432 15.2918H82.1267V44.3717H86.1432V15.2918Z" fill="var(--im-logo-text-color)"/>
<path d="M117.425 15.2918H121.526L131.452 39.0395L141.417 15.2918H145.75L133.738 44.3578H129.39L117.425 15.2918Z" fill="var(--im-logo-text-color)"/>
<path d="M187.937 15.2918H192.041L201.964 39.0395L211.932 15.2918H216.266L204.25 44.3578H199.905L187.937 15.2918Z" fill="var(--im-logo-text-color)"/>
<path d="M184.1 4.93594H180.151V44.3578H184.1V4.93594Z" fill="var(--im-logo-text-color)"/>
<path d="M116.861 26.2037C116.02 19.5315 110.194 14.4717 103.519 14.5885C97.0117 14.7052 91.5003 19.6983 90.6841 26.2037V44.3717H94.7006V26.2037C94.9678 24.0027 96.04 21.9752 97.714 20.5051C99.388 19.0349 101.548 18.2241 103.784 18.2262C106.021 18.2283 108.179 19.043 109.85 20.5162C111.522 21.9895 112.59 24.0189 112.853 26.2204V44.3717H116.87V26.2037H116.861Z" fill="var(--im-logo-text-color)"/>
<path d="M160.922 14.7859C157.921 14.7848 154.987 15.6658 152.491 17.3174C149.996 18.9691 148.05 21.3173 146.901 24.0649C145.752 26.8126 145.451 29.8363 146.036 32.7537C146.62 35.6711 148.065 38.351 150.186 40.4546C152.308 42.5582 155.011 43.991 157.954 44.5716C160.897 45.1523 163.948 44.8549 166.72 43.7169C169.493 42.5789 171.863 40.6515 173.53 38.1784C175.197 35.7054 176.087 32.7978 176.087 29.8234C176.087 25.8362 174.489 22.0122 171.645 19.1922C168.802 16.3723 164.944 14.7873 160.922 14.7859ZM160.922 41.4748C158.599 41.4754 156.328 40.7932 154.396 39.5145C152.464 38.2359 150.958 36.4182 150.068 34.2912C149.178 32.1643 148.945 29.8236 149.397 27.5651C149.849 25.3066 150.967 23.2317 152.609 21.6028C154.251 19.9739 156.343 18.8641 158.621 18.4136C160.899 17.9632 163.261 18.1924 165.407 19.0723C167.554 19.9522 169.389 21.4432 170.681 23.3569C171.973 25.2705 172.663 27.5209 172.665 29.8234C172.664 32.9101 171.427 35.8702 169.225 38.0526C167.022 40.2349 164.036 41.4609 160.922 41.4609V41.4748Z" fill="var(--im-logo-text-color)"/>
<path d="M246.165 31.1078C246.201 30.6853 246.229 30.2571 246.229 29.8234C246.246 26.0406 244.83 22.3893 242.261 19.5915C239.693 16.7937 236.158 15.0532 232.357 14.714C228.556 14.3748 224.765 15.4617 221.734 17.7597C218.702 20.0578 216.651 23.3997 215.986 27.1246C215.32 30.8495 216.09 34.6863 218.141 37.8762C220.192 41.0661 223.377 43.3769 227.064 44.3516C230.752 45.3264 234.674 44.8942 238.056 43.1404C241.437 41.3866 244.031 38.439 245.326 34.8804H241.604C240.488 37.1574 238.656 39.0139 236.385 40.1714C234.113 41.3288 231.524 41.7246 229.006 41.2994C226.489 40.8743 224.178 39.651 222.421 37.8133C220.664 35.9757 219.557 33.6227 219.264 31.1078H246.165ZM230.988 18.1831C233.713 18.1778 236.357 19.1095 238.467 20.8195C240.577 22.5294 242.024 24.9117 242.56 27.5604H219.421C219.957 24.9126 221.403 22.531 223.512 20.8212C225.621 19.1114 228.263 18.1791 230.988 18.1831Z" fill="var(--im-logo-text-color)"/>
<path d="M46.1197 0H0V45.8737C0 58.646 10.354 69 23.1263 69H69.246V23.1263C69.246 10.354 58.8927 0 46.1197 0Z" fill="#099929"/>
<path opacity="0.33" d="M45.9679 1.43646H1.38098C1.38098 1.43646 11.6436 11.7631 34.9505 35.0685C58.2574 58.374 68.1314 68.1461 68.1314 68.1461V23.5999C68.1314 11.3597 58.2089 1.43646 45.9679 1.43646Z" fill="#99CC33"/>
<path d="M27.5362 23.7412C27.0754 23.7405 26.6189 23.8305 26.1929 24.0062C25.7669 24.1819 25.3797 24.4399 25.0534 24.7653C24.727 25.0907 24.468 25.4772 24.2911 25.9027C24.1142 26.3282 24.0229 26.7844 24.0223 27.2452V56.4807H31.0501V27.2452C31.0495 26.7844 30.9581 26.3283 30.7811 25.9028C30.6042 25.4773 30.3452 25.0909 30.0189 24.7655C29.6926 24.4401 29.3054 24.1822 28.8794 24.0064C28.4534 23.8307 27.997 23.7406 27.5362 23.7412Z" fill="white"/>
<path d="M41.5917 23.7412C41.1309 23.7405 40.6744 23.8305 40.2484 24.0062C39.8224 24.1819 39.4352 24.4399 39.1088 24.7653C38.7825 25.0907 38.5235 25.4772 38.3466 25.9027C38.1697 26.3282 38.0784 26.7844 38.0778 27.2452V56.4807H45.1056V27.2452C45.1049 26.7844 45.0135 26.3283 44.8366 25.9028C44.6597 25.4773 44.4006 25.0909 44.0744 24.7655C43.7481 24.4401 43.3609 24.1822 42.9349 24.0064C42.5089 23.8307 42.0525 23.7406 41.5917 23.7412V23.7412Z" fill="white"/>
<path d="M21.5753 16.5153H42.7288C48.0383 16.5153 52.3428 20.9716 52.3428 26.4687L52.3681 46.2448C52.3681 47.8886 53.2044 49.2295 54.3506 50.3666L59.7016 55.6599L59.6763 26.6085C59.6763 17.3368 51.6604 9.38559 42.7042 9.38559L21.2773 9.57885C21.8233 10.7131 22.1312 12.0962 22.1312 13.4497C22.1319 14.4967 21.9436 15.5352 21.5753 16.5153V16.5153Z" fill="white"/>
<path d="M49.6631 52.4862H26.8046C21.3075 52.4862 16.8512 48.1135 16.8512 42.7176V21.4473C15.8504 21.8398 14.7847 22.0405 13.7098 22.0391C12.3857 22.0391 10.7019 21.7404 9.58588 21.2084V42.7197C9.58588 51.8171 17.4682 59.6938 26.7392 59.6938L44.0156 59.5252L52.0055 59.4992C53.4229 59.4939 54.788 60.0336 55.8187 61.0066L57.2411 62.233L59.7009 59.7121L53.9325 54.2199C52.7915 53.1049 51.2584 52.4823 49.6631 52.4862V52.4862Z" fill="white"/>
<path d="M13.2263 16.6635C15.2368 16.6635 16.8666 15.0337 16.8666 13.0231C16.8666 11.0126 15.2368 9.38277 13.2263 9.38277C11.2157 9.38277 9.58588 11.0126 9.58588 13.0231C9.58588 15.0337 11.2157 16.6635 13.2263 16.6635Z" fill="white"/>
<path d="M13.0316 18.4205C16.0357 18.4205 18.4711 15.9851 18.4711 12.981C18.4711 9.97685 16.0357 7.5415 13.0316 7.5415C10.0274 7.5415 7.5921 9.97685 7.5921 12.981C7.5921 15.9851 10.0274 18.4205 13.0316 18.4205Z" fill="white"/>
</svg>
