<?xml version="1.0" encoding="UTF-8"?>
<svg xmlns="http://www.w3.org/2000/svg" id="Layer_1" data-name="Layer 1" viewBox="89 114 1337 1337">
   <defs>
      <style>.cls-1{fill:#099929;}.cls-2{fill:#9c3;opacity:0.33;}.cls-3{fill:#fff;}</style>
   </defs>
   <title>ImCoinLogo-04</title>
   <circle class="cls-1" cx="758.19" cy="781.64" r="668.03" />
   <path class="cls-2" d="M310.42,341.14C424.36,225.33,582.89,153.52,758.19,153.52c346.9,0,628.12,281.22,628.12,628.12,0,172.57-69.6,328.89-182.25,442.42" />
   <path class="cls-3" d="M645.23,605.61A58.14,58.14,0,0,0,587,663.67v484.48H703.47V663.67a58.15,58.15,0,0,0-58.24-58.06Z" />
   <path class="cls-3" d="M878.16,605.61a58.14,58.14,0,0,0-58.23,58.06v484.48H936.4V663.67a58.14,58.14,0,0,0-58.24-58.06Z" />
   <path class="cls-3" d="M546.47,485.88H897.08c88,0,159.33,73.85,159.33,165l.42,327.74c0,27.25,13.86,49.46,32.85,68.31l88.61,87.65-.41-481.45c0-153.65-132.85-285.42-281.27-285.42l-355.1,3.24c9,18.8,14.15,41.72,14.15,64.15A144.09,144.09,0,0,1,546.47,485.88Z" />
   <path class="cls-3" d="M014.26,1082H633.11c-91.1,0-164.95-72.46-164.95-161.85V567.59a142,142,0,0,1-52.06,9.81c-21.94,0-49.85-4.95-68.34-13.77v356.5c0,150.76,130.62,281.29,284.27,281.29l286.31-2.79,132.35-.42a91.54,91.54,0,0,1,63.2,25l23.57,20.32,43.07-41.77-95.59-91A101,101,0,0,0,1014.26,1082Z" />
   <circle class="cls-3" cx="408.52" cy="427.99" r="90.14" />
</svg>