<svg width="70" height="69" viewBox="0 0 70 69" fill="none" xmlns="http://www.w3.org/2000/svg">
<path d="M46.1197 0H0V45.8737C0 58.646 10.354 69 23.1263 69H69.246V23.1263C69.246 10.354 58.8927 0 46.1197 0Z" fill="#099929"/>
<path opacity="0.33" d="M45.9679 1.43646H1.38098C1.38098 1.43646 11.6436 11.7631 34.9505 35.0685C58.2574 58.374 68.1314 68.1461 68.1314 68.1461V23.5999C68.1314 11.3597 58.2089 1.43646 45.9679 1.43646Z" fill="#99CC33"/>
<path d="M27.5362 23.7412C27.0754 23.7404 26.6189 23.8305 26.1929 24.0062C25.7669 24.1819 25.3797 24.4399 25.0534 24.7653C24.727 25.0906 24.468 25.4771 24.2911 25.9027C24.1142 26.3282 24.0229 26.7844 24.0223 27.2452V56.4807H31.0501V27.2452C31.0495 26.7844 30.9581 26.3283 30.7811 25.9028C30.6042 25.4773 30.3452 25.0908 30.0189 24.7655C29.6926 24.4401 29.3054 24.1822 28.8794 24.0064C28.4534 23.8307 27.997 23.7405 27.5362 23.7412Z" fill="white"/>
<path d="M41.5917 23.7412C41.1309 23.7404 40.6744 23.8305 40.2484 24.0062C39.8224 24.1819 39.4352 24.4399 39.1088 24.7653C38.7825 25.0906 38.5235 25.4771 38.3466 25.9027C38.1697 26.3282 38.0784 26.7844 38.0778 27.2452V56.4807H45.1056V27.2452C45.1049 26.7844 45.0135 26.3283 44.8366 25.9028C44.6597 25.4773 44.4006 25.0908 44.0744 24.7655C43.7481 24.4401 43.3609 24.1822 42.9349 24.0064C42.5089 23.8307 42.0525 23.7405 41.5917 23.7412V23.7412Z" fill="white"/>
<path d="M21.5753 16.5153H42.7288C48.0383 16.5153 52.3428 20.9716 52.3428 26.4687L52.3681 46.2448C52.3681 47.8886 53.2044 49.2295 54.3506 50.3666L59.7016 55.6599L59.6763 26.6085C59.6763 17.3368 51.6604 9.38559 42.7042 9.38559L21.2773 9.57885C21.8233 10.7131 22.1312 12.0962 22.1312 13.4497C22.1319 14.4967 21.9436 15.5352 21.5753 16.5153V16.5153Z" fill="white"/>
<path d="M49.6631 52.4862H26.8046C21.3075 52.4862 16.8512 48.1135 16.8512 42.7176V21.4473C15.8504 21.8398 14.7847 22.0405 13.7098 22.0391C12.3857 22.0391 10.7019 21.7404 9.58588 21.2084V42.7197C9.58588 51.8171 17.4682 59.6938 26.7392 59.6938L44.0156 59.5252L52.0055 59.4992C53.4229 59.4939 54.788 60.0336 55.8187 61.0066L57.2411 62.233L59.7009 59.7121L53.9325 54.2199C52.7915 53.1049 51.2584 52.4823 49.6631 52.4862V52.4862Z" fill="white"/>
<path d="M13.2263 16.6635C15.2368 16.6635 16.8666 15.0337 16.8666 13.0231C16.8666 11.0126 15.2368 9.38275 13.2263 9.38275C11.2157 9.38275 9.58588 11.0126 9.58588 13.0231C9.58588 15.0337 11.2157 16.6635 13.2263 16.6635Z" fill="white"/>
<path d="M13.0316 18.4205C16.0357 18.4205 18.4711 15.9851 18.4711 12.981C18.4711 9.97685 16.0357 7.5415 13.0316 7.5415C10.0274 7.5415 7.5921 9.97685 7.5921 12.981C7.5921 15.9851 10.0274 18.4205 13.0316 18.4205Z" fill="white"/>
</svg>
