<svg width="180" height="151" viewBox="0 0 180 151" fill="none" xmlns="http://www.w3.org/2000/svg">
<path fill-rule="evenodd" clip-rule="evenodd" d="M149.924 108.484L171.853 108.484C173.538 108.484 174.904 109.853 174.904 111.541L174.904 129.121C174.904 130.81 173.538 132.178 171.853 132.178L149.924 132.178C148.239 132.178 146.873 130.81 146.873 129.121L146.873 111.541C146.873 109.853 148.239 108.484 149.924 108.484ZM152.975 113.834C152.554 113.834 152.212 114.176 152.212 114.599L152.212 126.064C152.212 126.486 152.554 126.828 152.975 126.828L168.802 126.828C169.223 126.828 169.565 126.486 169.565 126.064L169.565 114.599C169.565 114.176 169.223 113.834 168.802 113.834L152.975 113.834Z" fill="#C5CFD6"/>
<path fill-rule="evenodd" clip-rule="evenodd" d="M17.4654 100.667L45.3629 100.667C47.5066 100.667 49.2443 102.293 49.2443 104.299L49.2443 125.187C49.2443 127.193 47.5066 128.819 45.3629 128.819L17.4654 128.819C15.3217 128.819 13.584 127.193 13.584 125.187L13.584 104.299C13.584 102.293 15.3217 100.667 17.4654 100.667ZM21.3468 107.024C20.8109 107.024 20.3764 107.43 20.3764 107.932L20.3764 121.554C20.3764 122.056 20.8109 122.462 21.3468 122.462L41.4815 122.462C42.0175 122.462 42.4519 122.056 42.4519 121.554L42.4519 107.932C42.4519 107.43 42.0175 107.024 41.4815 107.024L21.3468 107.024Z" fill="#C5CFD6"/>
<path d="M121.396 -7.3779e-09L107.511 -5.70289e-09L107.511 0.812833C107.493 2.40237 106.696 3.88353 105.39 4.78668C104.484 5.41888 103.415 5.74402 102.309 5.74402L84.0007 5.74402C81.1185 5.74402 78.7801 3.54034 78.7801 0.812833L78.7801 -2.23699e-09L66.1638 -7.15048e-10C62.901 -3.21444e-10 60.2363 2.51075 60.2363 5.58145L60.2363 133.865C60.2545 135.743 61.2333 137.495 62.8466 138.489C63.8436 139.121 64.9856 139.446 66.1638 139.446L121.378 139.446C122.774 139.446 124.134 138.976 125.221 138.109C126.526 137.08 127.288 135.526 127.306 133.865L127.306 5.58145C127.324 2.51075 124.659 -7.7715e-09 121.396 -7.3779e-09Z" fill="#3F3D56"/>
<path d="M175.341 54.0491C174.967 60.0819 169.931 64.8541 163.784 64.8541C157.638 64.8541 152.601 60.0819 152.227 54.0491C152.214 54.2935 152.201 54.5379 152.201 54.7823C152.201 61.1495 157.379 66.3205 163.784 66.3205C170.189 66.3205 175.367 61.1624 175.367 54.7823C175.354 54.5379 175.354 54.2935 175.341 54.0491Z" fill="#3F3D56"/>
<path d="M163.784 43.1155C158.128 43.1155 153.531 47.6947 153.531 53.3288C153.531 58.9628 158.128 63.5421 163.784 63.5421C169.44 63.5421 174.037 58.9628 174.037 53.3288C174.037 47.6947 169.427 43.1155 163.784 43.1155ZM163.629 51.2449L162.028 51.2449L162.028 57.1362L160.646 57.1362L160.646 51.2449L159.045 51.2449L159.045 50.0615L163.629 50.0615L163.629 51.2449ZM168.51 52.3126C168.175 51.9138 167.723 51.7723 167.348 51.7723C166.974 51.7723 166.586 51.901 166.315 52.1582C166.096 52.364 165.863 52.7628 165.863 53.3288C165.863 53.8047 166.031 54.2292 166.315 54.4864C166.535 54.6923 166.896 54.8466 167.322 54.8466C167.684 54.8466 168.175 54.7437 168.51 54.3064L168.51 55.8242C168.188 55.9786 167.865 56.0686 167.516 56.0815L167.516 57.2391L166.509 57.2391L166.509 56.1072C165.824 56.0043 165.334 55.6827 165.024 55.3611C164.779 55.1039 164.262 54.4607 164.262 53.3159C164.262 52.4155 164.585 51.7337 165.076 51.2449C165.36 50.962 165.824 50.6275 166.509 50.4989L166.509 49.3798L167.516 49.3798L167.516 50.5117C167.865 50.5246 168.188 50.6147 168.51 50.7819L168.51 52.3126Z" fill="#99CC33"/>
<path d="M163.298 64.3338L158.534 63.3851L158.573 66.2588C159.546 66.3396 161.618 66.567 162.122 66.8301C162.752 67.1591 164.583 67.4525 166.429 67.2945C168.275 67.1364 168.249 65.081 168.071 64.6685C167.838 64.1305 165.007 65.3025 164.463 65.3025C163.829 65.3025 165.503 63.8777 165.457 63.5972C165.085 63.0821 163.891 63.8528 163.298 64.3338Z" fill="#B28B67"/>
<path d="M78.5331 130.32C116.276 130.32 146.873 129.748 146.873 129.043C146.873 128.337 116.276 127.765 78.5331 127.765C40.7901 127.765 10.1934 128.337 10.1934 129.043C10.1934 129.748 40.7901 130.32 78.5331 130.32Z" fill="#3F3D56"/>
<path d="M99.1906 135.31C143.821 135.31 180 133.911 180 132.185C180 130.459 143.821 129.06 99.1906 129.06C54.5606 129.06 18.3809 130.459 18.3809 132.185C18.3809 133.911 54.5606 135.31 99.1906 135.31Z" fill="#3F3D56"/>
<path d="M84.273 139.934C106.178 139.934 123.935 138.535 123.935 136.809C123.935 135.083 106.178 133.684 84.273 133.684C62.3685 133.684 44.6113 135.083 44.6113 136.809C44.6113 138.535 62.3685 139.934 84.273 139.934Z" fill="#3F3D56"/>
<path d="M141.589 142.137C151.34 142.137 159.245 141.418 159.245 140.53C159.245 139.642 151.34 138.922 141.589 138.922C131.838 138.922 123.934 139.642 123.934 140.53C123.934 141.418 131.838 142.137 141.589 142.137Z" fill="#3F3D56"/>
<path d="M149.637 132.492C149.818 138.832 146.102 141.162 141.425 141.307C141.317 141.307 141.208 141.307 141.099 141.307C140.882 141.307 140.664 141.307 140.446 141.289C136.223 141.108 132.869 138.886 132.706 132.98C132.525 126.874 140.138 118.927 140.7 118.349C140.718 118.331 140.737 118.312 140.737 118.312C140.737 118.312 149.456 126.152 149.637 132.492Z" fill="#99CC33"/>
<path d="M141.1 140.349L144.073 135.96L141.118 140.837L141.118 141.325C140.901 141.325 140.683 141.325 140.484 141.307L140.629 134.948L140.629 134.894L140.629 134.876L140.647 134.28L137.402 129.584L140.647 133.829L140.665 133.955L140.774 129.15L137.946 124.273L140.756 128.301L140.72 118.349L140.72 118.312L140.72 118.349L140.901 126.188L143.457 123.009L140.901 126.874L140.955 131.173L143.312 126.983L140.973 131.806L141.01 134.19L144.436 128.355L141.028 135.039L141.1 140.349Z" fill="#3F3D56"/>
<path d="M41.4571 123.045C41.6384 129.385 37.9224 131.715 33.2456 131.86C33.1369 131.86 33.0281 131.86 32.9194 131.86C32.7018 131.86 32.4843 131.86 32.2668 131.842C28.0432 131.661 24.6898 129.439 24.5266 123.533C24.3454 117.427 31.9586 109.48 32.5206 108.902C32.5387 108.884 32.5568 108.865 32.5568 108.865C32.5568 108.865 41.2759 116.705 41.4571 123.045Z" fill="#099929"/>
<path d="M32.9016 130.884L35.8744 126.495L32.9197 131.372L32.9197 131.86C32.7022 131.86 32.4846 131.86 32.2671 131.842L32.4121 125.483L32.4121 125.429L32.4121 125.411L32.4303 124.815L29.1855 120.119L32.4303 124.363L32.4484 124.49L32.5571 119.685L29.7475 114.808L32.5571 118.836L32.5209 108.884L32.5209 108.847L32.5209 108.884L32.7022 116.723L35.258 113.544L32.7022 117.409L32.7565 121.708L35.113 117.518L32.7747 122.34L32.8109 124.725L36.2369 118.89L32.829 125.574L32.9016 130.884Z" fill="#3F3D56"/>
<path d="M123.011 10.6019L123.011 127.627C123.011 130.534 120.632 132.881 117.726 132.881L69.9185 132.881C66.9941 132.881 64.6328 130.534 64.6328 127.645L64.6328 127.627L64.6328 10.6019C64.6328 7.69525 66.9941 5.34825 69.9185 5.34825L77.075 5.34825L77.075 6.26899C77.075 8.6521 79.0185 10.6019 81.4343 10.6019L105.737 10.6019C106.664 10.6019 107.572 10.3131 108.317 9.75339C108.462 9.64506 108.607 9.51869 108.753 9.39231C109.606 8.57989 110.097 7.44249 110.097 6.26899L110.097 5.34825L117.726 5.34825C120.632 5.33019 123.011 7.69525 123.011 10.6019Z" fill="white" stroke="#099929" stroke-miterlimit="10"/>
<rect x="69.623" y="15.356" width="49.2453" height="96.4011" rx="5" fill="#E0E0E0"/>
<path d="M119.19 151C123.86 151 127.646 150.272 127.646 149.374C127.646 148.476 123.86 147.748 119.19 147.748C114.52 147.748 110.734 148.476 110.734 149.374C110.734 150.272 114.52 151 119.19 151Z" fill="#3F3D56"/>
<path d="M124.166 144.912C124.275 148.628 122.095 149.999 119.334 150.071C119.261 150.071 119.207 150.071 119.152 150.071C119.025 150.071 118.898 150.071 118.771 150.071C116.282 149.963 114.32 148.664 114.211 145.201C114.102 141.612 118.589 136.976 118.916 136.615C118.934 136.597 118.934 136.597 118.934 136.597C118.934 136.597 124.057 141.179 124.166 144.912Z" fill="#099929"/>
<path fill-rule="evenodd" clip-rule="evenodd" d="M143.658 45.9193C143.015 44.8552 142.664 43.6226 142.962 42.3552C143.821 38.7034 148.824 40.3595 149.52 42.3882C150.216 44.4168 149.329 49.127 147.984 49.2482C147.447 49.2965 146.403 48.7908 145.397 47.9337L145.291 53.0128L141.153 52.3333L143.658 45.9193Z" fill="#B28B67"/>
<path fill-rule="evenodd" clip-rule="evenodd" d="M147.517 39.8505C146.987 39.6716 145.53 39.3695 145.259 39.3252C145.086 39.2968 144.892 39.3057 144.816 39.1298C144.753 38.9858 144.82 38.7706 144.819 38.6153C144.819 38.435 144.806 38.2549 144.792 38.0752C144.753 37.5638 144.65 37.0663 144.47 36.5857C144.132 35.684 143.547 34.9249 142.735 34.4061C141.84 33.8332 140.765 33.5595 139.715 33.4737C138.592 33.3819 137.528 33.584 136.425 33.7574C135.374 33.9226 134.308 33.8807 133.29 33.549C132.265 33.2148 131.564 32.5136 130.765 31.8264C129.948 31.1228 128.969 30.5898 127.883 30.4972C126.868 30.4108 125.877 30.6738 124.959 31.0915C124.1 31.4824 123.359 32.0006 122.855 32.8185C122.313 33.6982 122.145 34.7339 122.648 35.6724C123.377 37.0328 125.045 37.6272 126.48 37.8306C127.31 37.9484 128.147 37.9303 128.972 37.7832C130.073 37.5871 131.074 37.1127 132.131 36.7678C132.627 36.606 133.131 36.489 133.649 36.4301C134.152 36.373 134.635 36.3882 135.023 36.7505C135.434 37.1338 135.797 37.5038 136.292 37.7828C136.768 38.0505 137.286 38.2417 137.825 38.3258C138.874 38.4895 139.959 38.3319 141.012 38.2797C141.871 38.2372 142.788 38.2048 143.605 38.5151C143.947 38.6447 144.438 38.8771 144.506 39.2654C142.297 39.3031 141.022 41.823 141.309 43.8735C141.464 44.9802 143.226 46.5332 144.079 46.1046C144.619 45.8331 144.401 45.3245 144.26 44.9894C143.991 44.3476 143.989 43.5794 144.728 43.2844C145.365 43.03 145.84 43.9603 145.852 43.9612C146.013 43.9748 147.519 43.4198 148.654 42.4358C149.582 42.6451 149.825 42.0495 149.684 41.5067C149.542 40.9638 148.25 40.0977 147.517 39.8505Z" fill="#152B2B"/>
<path fill-rule="evenodd" clip-rule="evenodd" d="M140.424 66.7051L153.39 88.4428L163.112 106.82L165.206 106.82L148.917 66.7051L140.424 66.7051Z" fill="#997659"/>
<path fill-rule="evenodd" clip-rule="evenodd" d="M161.83 105.972C161.635 106.494 161.537 106.885 161.537 107.145C161.537 107.46 161.59 107.921 161.694 108.526C162.059 108.526 165.34 108.526 171.537 108.526C171.792 107.678 171.645 107.221 171.094 107.153C170.543 107.085 170.085 107.024 169.72 106.97L165.146 104.925C165.058 104.886 164.955 104.925 164.915 105.013C164.915 105.015 164.914 105.016 164.913 105.018L164.619 105.733C164.109 105.972 163.695 106.091 163.376 106.091C163.117 106.091 162.759 105.986 162.302 105.776L162.302 105.776C162.127 105.696 161.92 105.773 161.84 105.949C161.836 105.956 161.833 105.964 161.83 105.972Z" fill="#244C4C"/>
<path fill-rule="evenodd" clip-rule="evenodd" d="M160.412 103.877L164.45 102.652C162.681 97.3491 160.512 91.5129 157.945 85.1439C155.377 78.7749 152.62 72.6286 149.672 66.7051L138.268 66.7051C141.544 74.1981 145.018 81.0064 148.689 87.1301C152.36 93.2538 156.268 98.8362 160.412 103.877Z" fill="#193434"/>
<path fill-rule="evenodd" clip-rule="evenodd" d="M139.57 66.7051C138.346 74.3439 135.986 84.1033 135.763 84.4044C135.615 84.6052 130.269 86.4016 119.725 89.7936L120.177 91.6451C132.75 89.826 139.376 88.4146 140.053 87.411C141.068 85.9056 146.137 74.0129 148.1 66.7051L139.57 66.7051Z" fill="#B28B67"/>
<path fill-rule="evenodd" clip-rule="evenodd" d="M123.432 88.1932L124.228 91.1751C133.633 92.0022 139.395 91.4046 141.515 89.3823C143.635 87.3599 146.051 79.8009 148.764 66.7051L137.889 66.7051C136.17 77.4288 135.209 83.0157 135.006 83.4659C134.803 83.916 130.945 85.4918 123.432 88.1932Z" fill="#244C4C"/>
<path fill-rule="evenodd" clip-rule="evenodd" d="M120.243 89.0228C119.696 88.9209 119.294 88.8926 119.039 88.9377C118.729 88.9926 118.286 89.1245 117.709 89.3333C117.772 89.6937 118.341 92.933 119.416 99.0511C120.294 99.1561 120.718 98.9307 120.689 98.3749C120.66 97.819 120.64 97.3564 120.631 96.9871L121.847 92.1145C121.871 92.0208 121.814 91.9258 121.72 91.9024C121.719 91.902 121.717 91.9017 121.715 91.9013L120.961 91.7354C120.638 91.2733 120.449 90.8847 120.394 90.5698C120.349 90.314 120.39 89.9424 120.517 89.4551L120.517 89.4551C120.566 89.268 120.454 89.0769 120.267 89.0282C120.259 89.0261 120.251 89.0243 120.243 89.0228Z" fill="#244C4C"/>
<path d="M119.183 150.435L120.939 147.852L119.183 150.706L119.183 150.995C119.055 150.995 118.927 150.995 118.799 150.995L118.89 147.256L118.89 147.22L118.89 146.859L116.988 144.113L118.909 146.606L118.909 146.678L118.982 143.861L117.317 141.007L118.982 143.373L118.963 137.539L118.963 137.521L118.963 137.539L119.073 142.145L120.591 140.266L119.073 142.542L119.11 145.071L120.5 142.614L119.11 145.45L119.128 146.859L121.158 143.427L119.128 147.346L119.183 150.435Z" fill="#3F3D56"/>
<ellipse cx="95.5596" cy="124.048" rx="4.74903" ry="4.8783" fill="#C4C4C4"/>
<path d="M160.828 61.8035C153.646 60.9904 149.387 54.2537 147.044 52.9761C145.998 49.423 146.255 50.5369 146.255 49.3877L141.664 49.3877C139.771 52.7633 135.984 62.155 135.984 72.7165C138.975 72.1262 147.868 75.1253 149.387 71.8869C150.126 70.3117 149.484 65.1252 149.387 63.3134C151.412 64.6153 154.11 67.3787 160.133 67.3787C160.227 66.2771 162.075 64.3901 160.828 61.8035Z" fill="#099929"/>
<path fill-rule="evenodd" clip-rule="evenodd" d="M39.1435 40.8309C38.2663 40.0366 37.6087 39.0081 37.5349 37.7684C37.3224 34.1965 42.3427 34.3277 43.532 35.9881C44.7213 37.6485 45.1971 42.1946 44.002 42.6766C43.5254 42.8689 42.4342 42.6952 41.2809 42.1904L42.5708 46.8578L38.6079 47.3794L39.1435 40.8309Z" fill="#B28B67"/>
<path fill-rule="evenodd" clip-rule="evenodd" d="M41.0034 34.2232C40.4702 34.206 39.0572 34.3318 38.7981 34.3659C38.6324 34.3877 38.4579 34.4492 38.3399 34.3097C38.2434 34.1955 38.2453 33.9806 38.2025 33.839C38.1527 33.6744 38.0916 33.5135 38.03 33.3532C37.8548 32.8968 37.6243 32.4711 37.3287 32.0817C36.774 31.3513 36.0315 30.8197 35.1489 30.5696C34.1744 30.2934 33.1183 30.3396 32.1362 30.5508C31.0852 30.7767 30.1694 31.2544 29.2096 31.7169C28.2949 32.1576 27.3101 32.4133 26.2905 32.3908C25.2632 32.3682 24.431 31.9213 23.5139 31.5138C22.5751 31.0967 21.536 30.8798 20.5184 31.0948C19.5684 31.2956 18.7357 31.8089 18.0112 32.4436C17.3334 33.0375 16.7986 33.7151 16.5621 34.6008C16.3078 35.5536 16.4373 36.5458 17.1532 37.2641C18.1909 38.3055 19.8763 38.3885 21.2422 38.1786C22.0322 38.0573 22.7915 37.8101 23.5051 37.4481C24.4569 36.9654 25.2413 36.2562 26.1116 35.65C26.5201 35.3655 26.9485 35.1197 27.4055 34.9231C27.849 34.7322 28.2948 34.6128 28.748 34.8368C29.2274 35.0736 29.6604 35.3113 30.189 35.4296C30.6961 35.5431 31.2217 35.5747 31.7368 35.5029C32.7392 35.3632 33.6875 34.92 34.6346 34.582C35.407 34.3065 36.2351 34.0242 37.0666 34.0821C37.4136 34.1063 37.9259 34.1831 38.0939 34.5191C36.0874 35.1625 35.6119 37.8152 36.4348 39.6086C36.8789 40.5765 38.9121 41.509 39.5738 40.8824C39.9931 40.4855 39.6545 40.0812 39.4347 39.8139C39.0137 39.302 38.8012 38.6012 39.3952 38.1281C39.9076 37.7201 40.5958 38.4386 40.6068 38.4362C40.758 38.4041 41.9811 37.4822 42.7486 36.2706C43.6531 36.2059 43.7121 35.595 43.4346 35.1382C43.1571 34.6814 41.7399 34.247 41.0034 34.2232Z" fill="#2A292C"/>
<path fill-rule="evenodd" clip-rule="evenodd" d="M34.6197 60.9411C34.9197 65.0472 54.2473 77.136 54.3601 77.4752C54.4102 77.6259 52.4049 82.3912 48.3441 91.771L50.0337 92.4293C56.2622 82.4955 59.2165 76.9993 58.8966 75.9408C58.4385 74.4253 53.4398 69.44 43.9005 60.9848L34.6197 60.9411Z" fill="#B28B67"/>
<path fill-rule="evenodd" clip-rule="evenodd" d="M48.7877 89.6527L51.5461 90.6596C57.3626 84.0788 59.6425 78.6489 59.2268 75.8823C58.9497 74.0379 53.9682 69.0609 44.2825 60.9513L34.4208 60.9513C34.7573 70.4603 52.6716 77.5115 52.9112 77.9167C53.1508 78.3219 50.7927 82.2906 48.7877 89.6527Z" fill="#2A292C"/>
<path fill-rule="evenodd" clip-rule="evenodd" d="M47.7203 91.4466C47.3757 91.8504 47.1612 92.1685 47.077 92.4007C46.9745 92.6831 46.872 93.1124 46.7694 93.6885C47.0966 93.808 50.0369 94.8817 55.5905 96.9096C56.095 96.2345 56.1113 95.7765 55.6394 95.5356C55.1675 95.2947 54.777 95.0903 54.4681 94.9223L51.0321 91.5948C50.966 91.5308 50.8606 91.5325 50.7968 91.5987C50.7957 91.5998 50.7946 91.6009 50.7936 91.6021L50.2978 92.146C49.7631 92.1927 49.3528 92.1638 49.067 92.0595C48.8347 91.9746 48.5481 91.7636 48.207 91.4263L48.207 91.4263C48.0761 91.2969 47.8654 91.2981 47.7364 91.4291C47.7308 91.4347 47.7255 91.4406 47.7203 91.4466Z" fill="#E4E4E4"/>
<path fill-rule="evenodd" clip-rule="evenodd" d="M36.8417 60.9412L28.2318 81.6682L19.7695 99.1911L21.766 99.1911L43.6093 60.9412L36.8417 60.9412Z" fill="#997659"/>
<path fill-rule="evenodd" clip-rule="evenodd" d="M19.6503 98.3821C19.4642 98.8804 19.3711 99.2533 19.3711 99.5006C19.3711 99.8015 19.4211 100.241 19.5211 100.818C19.8691 100.818 22.9973 100.818 28.9057 100.818C29.1495 100.009 29.0088 99.5729 28.4833 99.5084C27.9579 99.444 27.5214 99.3857 27.1739 99.3338L22.812 97.3839C22.7281 97.3464 22.6297 97.3842 22.5923 97.4683C22.5916 97.4698 22.591 97.4712 22.5904 97.4727L22.3101 98.1547C21.8236 98.3823 21.4284 98.4961 21.1243 98.4961C20.8772 98.4961 20.536 98.396 20.1006 98.1959L20.1006 98.1959C19.9336 98.1191 19.736 98.1926 19.6594 98.3601C19.6561 98.3674 19.6531 98.3747 19.6503 98.3821Z" fill="#E4E4E4"/>
<path fill-rule="evenodd" clip-rule="evenodd" d="M20.5332 95.5509L24.9695 96.3852C28.3996 91.3283 42.7548 70.5936 44.3287 60.9412L34.4525 60.9412C29.1964 67.9189 23.8028 90.4104 20.5332 95.5509Z" fill="#3F3E42"/>
<path fill-rule="evenodd" clip-rule="evenodd" d="M51.8153 56.3723L57.8443 53.7173C58.9005 52.6619 59.9203 51.8598 60.9039 51.311C61.198 51.2171 61.7005 51.1887 61.1644 51.9739C60.6283 52.7591 60.0996 53.6091 60.3138 53.8843C60.528 54.1595 61.1485 53.8558 61.3937 54.3033C61.5571 54.6016 60.5111 54.9585 58.2558 55.3739L53.7404 58.8454L51.8153 56.3723ZM27.4407 57.1036L30.8503 57.782C27.4214 64.1898 25.5825 67.586 25.3337 67.9704C24.7739 68.8355 25.2962 70.4209 25.4892 71.2558C24.2787 71.5384 24.7561 69.7115 23.2243 70.0929C21.8261 70.4411 20.6406 71.3346 19.3369 70.1295C19.1766 69.9814 19.0593 69.5183 19.6058 69.2808C20.9673 68.689 22.9788 67.581 23.305 67.1509C23.7498 66.5642 25.1284 63.2151 27.4407 57.1036Z" fill="#B28B67"/>
<path fill-rule="evenodd" clip-rule="evenodd" d="M40.118 44.3118L41.5568 44.0643C44.6906 47.1126 45.9695 54.4362 48.058 55.4056C50.0325 56.3221 52.8316 55.4352 56.1588 54.2376L57.1777 56.5205C54.1546 59.8 47.7144 62.5707 45.1039 60.989C40.9303 58.4601 39.9667 49.4276 40.118 44.3118Z" fill="#676A72"/>
<path fill-rule="evenodd" clip-rule="evenodd" d="M33.8457 62.4428C39.6147 62.4428 43.8582 62.4428 46.5763 62.4428C47.1581 62.4428 47.0484 61.6005 46.9643 61.1754C45.9938 56.27 42.2053 50.9823 42.2053 43.9995L38.5332 43.4221C35.4959 48.3205 34.4455 54.3514 33.8457 62.4428Z" fill="white"/>
<path fill-rule="evenodd" clip-rule="evenodd" d="M32.576 57.4762C29.9808 62.1705 27.7994 65.5501 26.0317 67.6151L23.3633 67.091C25.0822 56.4013 30.0599 48.5117 38.2963 43.4221L38.3382 43.4221L39.7503 43.4221C43.0469 54.6905 43.9557 62.1987 42.4767 65.9466L31.0171 65.9466C31.1985 63.2042 31.7798 60.304 32.576 57.4762H32.576Z" fill="#858891"/>
<rect x="72" y="35" width="43" height="29" rx="5" fill="white"/>
<path d="M101.768 47.8982C99.9845 47.8982 98.5352 49.4761 98.5352 51.4174C98.5352 53.3587 99.9845 54.9366 101.768 54.9366C103.551 54.9366 105 53.3587 105 51.4174C105 49.4761 103.547 47.8982 101.768 47.8982ZM101.719 50.6994H101.214V52.7293H100.778V50.6994H100.273V50.2916H101.719V50.6994ZM103.258 51.0672C103.152 50.9298 103.009 50.8811 102.891 50.8811C102.773 50.8811 102.651 50.9254 102.566 51.014C102.496 51.085 102.423 51.2224 102.423 51.4174C102.423 51.5814 102.476 51.7276 102.566 51.8163C102.635 51.8872 102.749 51.9404 102.883 51.9404C102.997 51.9404 103.152 51.9049 103.258 51.7542V52.2772C103.156 52.3304 103.054 52.3614 102.944 52.3659V52.7648H102.627V52.3747C102.411 52.3393 102.256 52.2285 102.158 52.1177C102.081 52.029 101.918 51.8074 101.918 51.4129C101.918 51.1027 102.02 50.8678 102.175 50.6994C102.264 50.6018 102.411 50.4866 102.627 50.4423V50.0567H102.944V50.4467C103.054 50.4512 103.156 50.4822 103.258 50.5398V51.0672Z" fill="#99CC33"/>
<rect x="82" y="60" width="25" height="1" rx="0.5" fill="#C4C4C4"/>
<g filter="url(#filter0_b)">
<circle cx="93" cy="34" r="6" fill="#99CC33"/>
</g>
<path d="M93.6774 31H90V34.6774C90 35.9603 91.04 37 92.3226 37H96V33.3226C96 32.04 94.96 31 93.6774 31ZM95.0191 35.8376C95.0191 35.8376 94.8854 35.7041 94.8409 35.6594C94.8004 35.6188 94.6784 35.5078 94.6784 35.2862C94.6784 34.9034 94.6784 33.6468 94.6784 33.6468C94.6784 32.952 94.113 32.3866 93.4182 32.3866H91.3869V34.4179C91.3869 35.1128 91.9522 35.6781 92.6471 35.6781C92.6471 35.6781 93.9237 35.6781 94.2969 35.6781C94.3424 35.6781 94.4397 35.6883 94.5778 35.8264C94.6129 35.8617 94.9307 36.1772 94.9307 36.1772L94.8305 36.3301H94.8274C94.8157 36.3176 94.6641 36.1631 94.6212 36.1202C94.5169 36.016 94.4561 36.0188 94.4053 36.0188C94.0121 36.0188 92.6471 36.0188 92.6471 36.0188C91.7642 36.0188 91.0462 35.3005 91.0462 34.4179V32.0462H93.4182C94.3011 32.0462 95.0191 32.7645 95.0191 33.6471V35.8376ZM91.7666 33.3413C91.8214 33.3686 91.8825 33.3857 91.9478 33.3873H91.9676C91.9795 33.387 91.9907 33.385 92.0022 33.3839C92.0399 33.38 92.0763 33.372 92.1104 33.3592V34.3646C92.1104 34.6608 92.2386 34.854 92.4809 34.9242L92.4971 34.9289V33.7038C92.4971 33.6089 92.5743 33.5319 92.6689 33.5319C92.7639 33.5319 92.8411 33.6091 92.8411 33.7038V34.9549H93.2236V33.7038C93.2236 33.6089 93.3009 33.5319 93.3955 33.5319C93.4905 33.5319 93.5677 33.6091 93.5677 33.7038V34.9549H93.9541V33.7009C93.9541 33.3205 93.7445 33.1109 93.3643 33.1109H92.3587C92.3756 33.0664 92.3863 33.0186 92.3876 32.9681V32.9478C92.386 32.8825 92.3688 32.8217 92.3415 32.7666H93.3649C93.932 32.7666 94.2987 33.1332 94.2987 33.7007V35.2987H92.7007C92.1335 35.2987 91.7668 34.932 91.7668 34.3646V33.3413H91.7666ZM91.7023 32.9577C91.7023 32.8167 91.8167 32.7023 91.9577 32.7023C92.0968 32.7023 92.2092 32.8136 92.2126 32.9517V32.9637C92.21 33.0693 92.1439 33.1585 92.0505 33.1951C92.0297 33.2032 92.0074 33.2081 91.9842 33.2105C91.9775 33.2113 91.9707 33.2123 91.9637 33.2126H91.952C91.8134 33.2092 91.7023 33.0966 91.7023 32.9577Z" fill="white"/>
<path d="M86 44.94V42.06H87.1473C87.3429 42.06 87.503 42.0993 87.6276 42.178C87.7535 42.2553 87.8466 42.3547 87.9069 42.476C87.9685 42.5973 87.9993 42.7227 87.9993 42.852C87.9993 43.0107 87.9611 43.1453 87.8847 43.256C87.8097 43.3667 87.7073 43.4413 87.5773 43.48V43.38C87.7595 43.4213 87.8975 43.5073 87.9912 43.638C88.0864 43.7687 88.1339 43.9173 88.1339 44.084C88.1339 44.2547 88.1011 44.404 88.0354 44.532C87.9698 44.66 87.872 44.76 87.7421 44.832C87.6135 44.904 87.4541 44.94 87.2639 44.94H86ZM86.4903 44.486H87.2036C87.288 44.486 87.3637 44.4693 87.4306 44.436C87.4976 44.4013 87.5499 44.3533 87.5874 44.292C87.6262 44.2293 87.6456 44.1553 87.6456 44.07C87.6456 43.9927 87.6289 43.9233 87.5954 43.862C87.5619 43.8007 87.513 43.752 87.4487 43.716C87.3844 43.6787 87.3074 43.66 87.2177 43.66H86.4903V44.486ZM86.4903 43.21H87.1413C87.211 43.21 87.2732 43.1967 87.3282 43.17C87.3831 43.1433 87.4266 43.104 87.4588 43.052C87.4909 43 87.507 42.936 87.507 42.86C87.507 42.76 87.4748 42.6767 87.4105 42.61C87.3462 42.5433 87.2565 42.51 87.1413 42.51H86.4903V43.21Z" fill="#858891"/>
<path d="M89.142 45C88.9853 45 88.8527 44.9707 88.7442 44.912C88.6357 44.852 88.5533 44.7727 88.497 44.674C88.4421 44.5753 88.4146 44.4667 88.4146 44.348C88.4146 44.244 88.4321 44.1507 88.4669 44.068C88.5017 43.984 88.5553 43.912 88.6276 43.852C88.7 43.7907 88.7937 43.7407 88.9089 43.702C88.996 43.674 89.0978 43.6487 89.2144 43.626C89.3322 43.6033 89.4595 43.5827 89.5961 43.564C89.7341 43.544 89.8781 43.5227 90.0281 43.5L89.8553 43.598C89.8567 43.4487 89.8232 43.3387 89.7549 43.268C89.6866 43.1973 89.5714 43.162 89.4093 43.162C89.3115 43.162 89.217 43.1847 89.1259 43.23C89.0349 43.2753 88.9712 43.3533 88.9351 43.464L88.493 43.326C88.5466 43.1433 88.6484 42.9967 88.7984 42.886C88.9498 42.7753 89.1534 42.72 89.4093 42.72C89.6022 42.72 89.7716 42.7513 89.9176 42.814C90.065 42.8767 90.1741 42.9793 90.2451 43.122C90.284 43.198 90.3074 43.276 90.3155 43.356C90.3235 43.4347 90.3275 43.5207 90.3275 43.614V44.94H89.9036V44.472L89.9739 44.548C89.8761 44.704 89.7616 44.8187 89.6303 44.892C89.5004 44.964 89.3376 45 89.142 45ZM89.2385 44.616C89.3483 44.616 89.4421 44.5967 89.5198 44.558C89.5975 44.5193 89.6591 44.472 89.7046 44.416C89.7515 44.36 89.783 44.3073 89.7991 44.258C89.8245 44.1967 89.8386 44.1267 89.8413 44.048C89.8453 43.968 89.8473 43.9033 89.8473 43.854L89.996 43.898C89.85 43.9207 89.7247 43.9407 89.6202 43.958C89.5158 43.9753 89.426 43.992 89.351 44.008C89.276 44.0227 89.2097 44.0393 89.1521 44.058C89.0958 44.078 89.0483 44.1013 89.0094 44.128C88.9706 44.1547 88.9404 44.1853 88.919 44.22C88.8989 44.2547 88.8888 44.2953 88.8888 44.342C88.8888 44.3953 88.9022 44.4427 88.929 44.484C88.9558 44.524 88.9947 44.556 89.0456 44.58C89.0978 44.604 89.1621 44.616 89.2385 44.616Z" fill="#858891"/>
<path d="M90.8908 44.94V42H91.3751V44.94H90.8908Z" fill="#858891"/>
<path d="M92.5838 45C92.4271 45 92.2944 44.9707 92.1859 44.912C92.0774 44.852 91.995 44.7727 91.9388 44.674C91.8839 44.5753 91.8564 44.4667 91.8564 44.348C91.8564 44.244 91.8738 44.1507 91.9086 44.068C91.9435 43.984 91.9971 43.912 92.0694 43.852C92.1417 43.7907 92.2355 43.7407 92.3507 43.702C92.4378 43.674 92.5396 43.6487 92.6561 43.626C92.774 43.6033 92.9013 43.5827 93.0379 43.564C93.1759 43.544 93.3199 43.5227 93.4699 43.5L93.2971 43.598C93.2984 43.4487 93.2649 43.3387 93.1966 43.268C93.1283 43.1973 93.0131 43.162 92.851 43.162C92.7532 43.162 92.6588 43.1847 92.5677 43.23C92.4766 43.2753 92.413 43.3533 92.3768 43.464L91.9348 43.326C91.9884 43.1433 92.0902 42.9967 92.2402 42.886C92.3916 42.7753 92.5952 42.72 92.851 42.72C93.0439 42.72 93.2134 42.7513 93.3594 42.814C93.5067 42.8767 93.6159 42.9793 93.6869 43.122C93.7258 43.198 93.7492 43.276 93.7572 43.356C93.7653 43.4347 93.7693 43.5207 93.7693 43.614V44.94H93.3453V44.472L93.4156 44.548C93.3179 44.704 93.2033 44.8187 93.072 44.892C92.9421 44.964 92.7794 45 92.5838 45ZM92.6802 44.616C92.7901 44.616 92.8838 44.5967 92.9615 44.558C93.0392 44.5193 93.1009 44.472 93.1464 44.416C93.1933 44.36 93.2248 44.3073 93.2408 44.258C93.2663 44.1967 93.2803 44.1267 93.283 44.048C93.287 43.968 93.2891 43.9033 93.2891 43.854L93.4377 43.898C93.2917 43.9207 93.1665 43.9407 93.062 43.958C92.9575 43.9753 92.8678 43.992 92.7928 44.008C92.7177 44.0227 92.6514 44.0393 92.5938 44.058C92.5376 44.078 92.49 44.1013 92.4512 44.128C92.4123 44.1547 92.3822 44.1853 92.3607 44.22C92.3407 44.2547 92.3306 44.2953 92.3306 44.342C92.3306 44.3953 92.344 44.4427 92.3708 44.484C92.3976 44.524 92.4364 44.556 92.4873 44.58C92.5396 44.604 92.6039 44.616 92.6802 44.616Z" fill="#858891"/>
<path d="M95.7934 44.94V43.9C95.7934 43.832 95.7887 43.7567 95.7793 43.674C95.7699 43.5913 95.7478 43.512 95.713 43.436C95.6795 43.3587 95.6286 43.2953 95.5603 43.246C95.4933 43.1967 95.4022 43.172 95.287 43.172C95.2254 43.172 95.1645 43.182 95.1042 43.202C95.0439 43.222 94.989 43.2567 94.9394 43.306C94.8912 43.354 94.8523 43.4207 94.8229 43.506C94.7934 43.59 94.7787 43.698 94.7787 43.83L94.4913 43.708C94.4913 43.524 94.5268 43.3573 94.5978 43.208C94.6702 43.0587 94.776 42.94 94.9153 42.852C95.0546 42.7627 95.2261 42.718 95.4297 42.718C95.5904 42.718 95.723 42.7447 95.8275 42.798C95.932 42.8513 96.0151 42.9193 96.0767 43.002C96.1383 43.0847 96.1839 43.1727 96.2133 43.266C96.2428 43.3593 96.2615 43.448 96.2696 43.532C96.279 43.6147 96.2836 43.682 96.2836 43.734V44.94H95.7934ZM94.2884 44.94V42.78H94.7204V43.45H94.7787V44.94H94.2884Z" fill="#858891"/>
<path d="M97.715 45C97.4913 45 97.3005 44.9507 97.1424 44.852C96.9843 44.752 96.8631 44.616 96.7787 44.444C96.6956 44.272 96.6534 44.0773 96.6521 43.86C96.6534 43.6387 96.697 43.4427 96.7827 43.272C96.8698 43.1 96.993 42.9653 97.1524 42.868C97.3118 42.7693 97.5014 42.72 97.7211 42.72C97.9675 42.72 98.1758 42.782 98.346 42.906C98.5174 43.0287 98.6293 43.1967 98.6815 43.41L98.1993 43.54C98.1618 43.424 98.0995 43.334 98.0124 43.27C97.9254 43.2047 97.8262 43.172 97.715 43.172C97.5891 43.172 97.4853 43.202 97.4036 43.262C97.3219 43.3207 97.2616 43.402 97.2228 43.506C97.1839 43.61 97.1645 43.728 97.1645 43.86C97.1645 44.0653 97.2107 44.2313 97.3031 44.358C97.3956 44.4847 97.5329 44.548 97.715 44.548C97.8436 44.548 97.9448 44.5187 98.0184 44.46C98.0935 44.4013 98.1497 44.3167 98.1872 44.206L98.6815 44.316C98.6146 44.536 98.4973 44.7053 98.3299 44.824C98.1625 44.9413 97.9575 45 97.715 45Z" fill="#858891"/>
<path d="M100.012 45C99.7922 45 99.5993 44.9527 99.4332 44.858C99.2671 44.7633 99.1372 44.632 99.0434 44.464C98.951 44.296 98.9048 44.1027 98.9048 43.884C98.9048 43.648 98.9503 43.4433 99.0414 43.27C99.1325 43.0953 99.2591 42.96 99.4211 42.864C99.5832 42.768 99.7708 42.72 99.9838 42.72C100.209 42.72 100.4 42.7727 100.556 42.878C100.714 42.982 100.832 43.1293 100.908 43.32C100.984 43.5107 101.013 43.7353 100.994 43.994H100.514V43.818C100.513 43.5833 100.471 43.412 100.39 43.304C100.308 43.196 100.179 43.142 100.004 43.142C99.8056 43.142 99.6583 43.2033 99.5618 43.326C99.4654 43.4473 99.4171 43.6253 99.4171 43.86C99.4171 44.0787 99.4654 44.248 99.5618 44.368C99.6583 44.488 99.7989 44.548 99.9838 44.548C100.103 44.548 100.205 44.522 100.291 44.47C100.378 44.4167 100.445 44.34 100.492 44.24L100.97 44.384C100.887 44.5787 100.759 44.73 100.585 44.838C100.412 44.946 100.221 45 100.012 45ZM99.2644 43.994V43.63H100.757V43.994H99.2644Z" fill="#858891"/>
<path d="M81.3426 55.82V48.758L80 49.748V48.152L81.3426 47.18H82.5659V55.82H81.3426Z" fill="#152B2B"/>
<path d="M86.9516 56C86.4775 56 86.0565 55.884 85.6885 55.652C85.3206 55.42 85.0321 55.098 84.8233 54.686C84.6144 54.274 84.51 53.802 84.51 53.27C84.51 52.794 84.6012 52.352 84.7835 51.944C84.9658 51.536 85.2327 51.21 85.5841 50.966L85.5593 51.428C85.2841 51.176 85.0703 50.886 84.9178 50.558C84.7686 50.226 84.694 49.854 84.694 49.442C84.694 48.946 84.7901 48.516 84.9824 48.152C85.178 47.788 85.4449 47.506 85.783 47.306C86.1212 47.102 86.5107 47 86.9516 47C87.3925 47 87.7821 47.102 88.1202 47.306C88.4617 47.506 88.7285 47.788 88.9208 48.152C89.1164 48.516 89.2142 48.946 89.2142 49.442C89.2142 49.854 89.1413 50.224 88.9954 50.552C88.8528 50.88 88.6357 51.176 88.344 51.44L88.339 50.972C88.6838 51.208 88.9473 51.532 89.1297 51.944C89.3153 52.352 89.4081 52.794 89.4081 53.27C89.4081 53.802 89.302 54.274 89.0899 54.686C88.881 55.098 88.591 55.42 88.2197 55.652C87.8517 55.884 87.429 56 86.9516 56ZM86.9516 54.638C87.303 54.638 87.5881 54.522 87.8069 54.29C88.029 54.058 88.1401 53.718 88.1401 53.27C88.1401 52.822 88.0307 52.482 87.8119 52.25C87.5931 52.014 87.3063 51.896 86.9516 51.896C86.6002 51.896 86.3168 52.014 86.1013 52.25C85.8858 52.482 85.7781 52.822 85.7781 53.27C85.7781 53.718 85.8858 54.058 86.1013 54.29C86.3168 54.522 86.6002 54.638 86.9516 54.638ZM86.9516 50.522C87.2467 50.522 87.4854 50.434 87.6677 50.258C87.8533 50.078 87.9462 49.806 87.9462 49.442C87.9462 49.078 87.8533 48.808 87.6677 48.632C87.4854 48.452 87.2467 48.362 86.9516 48.362C86.6599 48.362 86.4212 48.452 86.2355 48.632C86.0532 48.808 85.962 49.078 85.962 49.442C85.962 49.806 86.0532 50.078 86.2355 50.258C86.4212 50.434 86.6599 50.522 86.9516 50.522Z" fill="#152B2B"/>
<path d="M93.4241 56C92.9169 56 92.4694 55.87 92.0815 55.61C91.6936 55.346 91.3903 54.98 91.1715 54.512C90.956 54.044 90.8483 53.504 90.8483 52.892V50.108C90.8483 49.496 90.956 48.956 91.1715 48.488C91.3903 48.02 91.6936 47.656 92.0815 47.396C92.4694 47.132 92.9169 47 93.4241 47C93.9314 47 94.3772 47.132 94.7618 47.396C95.1497 47.656 95.453 48.02 95.6718 48.488C95.8906 48.956 96 49.496 96 50.108V52.892C96 53.504 95.8906 54.044 95.6718 54.512C95.453 54.98 95.1497 55.346 94.7618 55.61C94.3772 55.87 93.9314 56 93.4241 56ZM93.4241 54.626C93.6761 54.626 93.9048 54.554 94.1104 54.41C94.3159 54.262 94.4784 54.066 94.5977 53.822C94.717 53.574 94.7767 53.298 94.7767 52.994V50C94.7767 49.692 94.717 49.416 94.5977 49.172C94.4784 48.924 94.3159 48.728 94.1104 48.584C93.9048 48.436 93.6761 48.362 93.4241 48.362C93.1722 48.362 92.9434 48.436 92.7379 48.584C92.5324 48.728 92.3699 48.924 92.2506 49.172C92.1312 49.416 92.0716 49.692 92.0716 50V52.994C92.0716 53.298 92.1312 53.574 92.2506 53.822C92.3699 54.066 92.5324 54.262 92.7379 54.41C92.9434 54.554 93.1722 54.626 93.4241 54.626Z" fill="#152B2B"/>
<defs>
<filter id="filter0_b" x="83" y="24" width="20" height="20" filterUnits="userSpaceOnUse" color-interpolation-filters="sRGB">
<feFlood flood-opacity="0" result="BackgroundImageFix"/>
<feGaussianBlur in="BackgroundImage" stdDeviation="2"/>
<feComposite in2="SourceAlpha" operator="in" result="effect1_backgroundBlur"/>
<feBlend mode="normal" in="SourceGraphic" in2="effect1_backgroundBlur" result="shape"/>
</filter>
</defs>
</svg>
