<svg width="226" height="108" viewBox="0 0 226 108" fill="none" xmlns="http://www.w3.org/2000/svg">
<g clip-path="url(#clip0)">
<path d="M219.276 7.82804V93.3542C219.276 94.3944 219.073 95.4244 218.677 96.3855C218.282 97.3465 217.703 98.2197 216.972 98.9552C216.242 99.6907 215.375 100.274 214.42 100.672C213.466 101.07 212.443 101.275 211.41 101.275H32.0776C29.9915 101.275 27.9908 100.441 26.5157 98.9552C25.0406 97.4697 24.2119 95.455 24.2119 93.3542V7.82804C24.2375 5.74381 25.0773 3.75361 26.5495 2.28845C28.0217 0.823297 30.0078 0.00112781 32.0776 0H211.41C213.48 0.00112781 215.466 0.823297 216.939 2.28845C218.411 3.75361 219.251 5.74381 219.276 7.82804Z" fill="#F2F2F2"/>
<path opacity="0.3" d="M69.7786 18.5916H39.1319C38.2355 18.5922 37.3761 18.9512 36.7425 19.5898C36.1089 20.2283 35.7529 21.0941 35.7529 21.9968V63.8694C35.7536 64.7721 36.1101 65.6376 36.7442 66.2757C37.3783 66.9137 38.238 67.2722 39.1344 67.2722H69.7786C70.2227 67.2725 70.6625 67.1847 71.0728 67.0139C71.4832 66.8431 71.8562 66.5925 72.1704 66.2765C72.4846 65.9606 72.7339 65.5854 72.9042 65.1723C73.0744 64.7593 73.1622 64.3166 73.1625 63.8694V21.9968C73.1625 21.5494 73.075 21.1064 72.9049 20.6931C72.7348 20.2798 72.4855 19.9043 72.1712 19.588C71.857 19.2718 71.4839 19.021 71.0734 18.8501C70.6629 18.6791 70.2229 18.5912 69.7786 18.5916Z" fill="#99CC33"/>
<path d="M219.276 7.82804H24.2119C24.2375 5.74381 25.0773 3.75361 26.5495 2.28845C28.0217 0.823297 30.0078 0.00112781 32.0776 0H211.41C213.48 0.00112781 215.466 0.823297 216.939 2.28845C218.411 3.75361 219.251 5.74381 219.276 7.82804Z" fill="#BCC1CB"/>
<path d="M31.7424 5.62643C32.6816 5.62643 33.4429 4.85977 33.4429 3.91404C33.4429 2.96832 32.6816 2.20166 31.7424 2.20166C30.8033 2.20166 30.042 2.96832 30.042 3.91404C30.042 4.85977 30.8033 5.62643 31.7424 5.62643Z" fill="#F2F2F2"/>
<path d="M36.844 5.62643C37.7831 5.62643 38.5444 4.85977 38.5444 3.91404C38.5444 2.96832 37.7831 2.20166 36.844 2.20166C35.9049 2.20166 35.1436 2.96832 35.1436 3.91404C35.1436 4.85977 35.9049 5.62643 36.844 5.62643Z" fill="#F2F2F2"/>
<path d="M41.9446 5.62643C42.8837 5.62643 43.645 4.85977 43.645 3.91404C43.645 2.96832 42.8837 2.20166 41.9446 2.20166C41.0054 2.20166 40.2441 2.96832 40.2441 3.91404C40.2441 4.85977 41.0054 5.62643 41.9446 5.62643Z" fill="#F2F2F2"/>
<path d="M125.694 15.9006H88.1577C87.4547 15.9006 86.8848 16.4745 86.8848 17.1825V22.6915C86.8848 23.3994 87.4547 23.9733 88.1577 23.9733H125.694C126.397 23.9733 126.966 23.3994 126.966 22.6915V17.1825C126.966 16.4745 126.397 15.9006 125.694 15.9006Z" fill="#BCC1CB"/>
<path d="M205.857 15.9006H168.321C167.618 15.9006 167.048 16.4745 167.048 17.1825V22.6915C167.048 23.3994 167.618 23.9733 168.321 23.9733H205.857C206.56 23.9733 207.13 23.3994 207.13 22.6915V17.1825C207.13 16.4745 206.56 15.9006 205.857 15.9006Z" fill="#BCC1CB"/>
<path d="M205.471 32.3999H89.1359C88.1995 32.3999 87.4404 32.6771 87.4404 33.019V50.6808C87.4404 51.0227 88.1995 51.2999 89.1359 51.2999H205.471C206.408 51.2999 207.167 51.0227 207.167 50.6808V33.019C207.167 32.6771 206.408 32.3999 205.471 32.3999Z" fill="#BCC1CB"/>
<path d="M205.471 54H89.1359C88.1995 54 87.4404 54.3762 87.4404 54.8402V78.8098C87.4404 79.2738 88.1995 79.65 89.1359 79.65H205.471C206.408 79.65 207.167 79.2738 207.167 78.8098V54.8402C207.167 54.3762 206.408 54 205.471 54Z" fill="#BCC1CB"/>
<path d="M196.923 38.1616H97.0929C96.8889 38.1616 96.7236 38.3281 96.7236 38.5335V40.236C96.7236 40.4414 96.8889 40.6079 97.0929 40.6079H196.923C197.127 40.6079 197.292 40.4414 197.292 40.236V38.5335C197.292 38.3281 197.127 38.1616 196.923 38.1616Z" fill="#F2F2F2"/>
<path d="M196.923 45.0112H97.0929C96.8889 45.0112 96.7236 45.1777 96.7236 45.3831V47.0857C96.7236 47.291 96.8889 47.4575 97.0929 47.4575H196.923C197.127 47.4575 197.292 47.291 197.292 47.0857V45.3831C197.292 45.1777 197.127 45.0112 196.923 45.0112Z" fill="#F2F2F2"/>
<path d="M196.923 51.8608H97.0929C96.8889 51.8608 96.7236 52.0273 96.7236 52.2327V53.9353C96.7236 54.1406 96.8889 54.3071 97.0929 54.3071H196.923C197.127 54.3071 197.292 54.1406 197.292 53.9353V52.2327C197.292 52.0273 197.127 51.8608 196.923 51.8608Z" fill="#F2F2F2"/>
<path d="M196.923 58.7102H97.0929C96.8889 58.7102 96.7236 58.8767 96.7236 59.082V60.7846C96.7236 60.99 96.8889 61.1564 97.0929 61.1564H196.923C197.127 61.1564 197.292 60.99 197.292 60.7846V59.082C197.292 58.8767 197.127 58.7102 196.923 58.7102Z" fill="#F2F2F2"/>
<path d="M196.923 65.5598H97.0929C96.8889 65.5598 96.7236 65.7263 96.7236 65.9316V67.6343C96.7236 67.8396 96.8889 68.0061 97.0929 68.0061H196.923C197.127 68.0061 197.292 67.8396 197.292 67.6343V65.9316C197.292 65.7263 197.127 65.5598 196.923 65.5598Z" fill="#F2F2F2"/>
<path d="M196.923 72.4094H97.0929C96.8889 72.4094 96.7236 72.5759 96.7236 72.7813V74.4838C96.7236 74.6892 96.8889 74.8557 97.0929 74.8557H196.923C197.127 74.8557 197.292 74.6892 197.292 74.4838V72.7813C197.292 72.5759 197.127 72.4094 196.923 72.4094Z" fill="#F2F2F2"/>
<path d="M38.1334 50.0017C36.8921 50.4763 34.0038 50.5301 32.7139 50.5276C32.3252 50.5276 32.0823 50.5276 32.0823 50.5276L31.2588 48.8397L32.0823 47.4307C32.0823 47.4307 32.8378 47.2227 33.841 47.0393C35.3228 46.7702 37.3488 46.55 38.3156 47.164C39.9359 48.1719 39.7537 49.3828 38.1334 50.0017Z" fill="#FEC2BE"/>
<path opacity="0.1" d="M32.7139 50.5274C32.3252 50.5274 32.0823 50.5274 32.0823 50.5274L31.2588 48.8395L32.0823 47.4305C32.0823 47.4305 32.8378 47.2225 33.841 47.0391C33.0272 47.6408 31.0693 48.9471 32.7139 50.5274Z" fill="#152B2B"/>
<path d="M19.0739 29.7955L19.4383 29.3723C19.4383 29.3723 21.3087 32.3567 21.5055 33.482C21.7023 34.6073 21.9525 35.9014 21.9525 35.9014C21.9525 35.9014 22.4383 37.3691 22.7347 38.0125C23.031 38.6559 23.3225 39.2797 23.3493 39.561C23.376 39.8423 23.2375 40.4612 23.8351 40.8551C24.4327 41.2489 24.5639 42.3228 24.5639 42.3228C24.5639 42.3228 26.687 44.407 27.8044 44.4633C28.9218 44.5196 32.1381 45.0822 32.0263 45.6448C31.9146 46.2075 33.3672 46.5451 33.9527 46.6845C34.5381 46.8239 30.1801 48.5143 32.7235 50.6817C32.7235 50.6817 31.1032 51.0193 30.9356 51.4156C30.768 51.8119 29.0627 51.1905 29.0627 51.1905C29.0627 51.1905 28.7008 50.3196 27.4424 50.2634C26.1841 50.2071 25.5428 49.642 25.5428 49.5589C25.5428 49.4757 24.2845 48.7712 23.5849 48.5803C22.8853 48.3895 21.9646 48.299 21.9355 48.1033C21.9063 47.9076 17.7451 29.8102 17.7451 29.8102L19.0739 29.7955Z" fill="#4C4981"/>
<path d="M19.0739 29.7955L19.4383 29.3723C19.4383 29.3723 21.3087 32.3567 21.5055 33.482C21.7023 34.6073 21.9525 35.9014 21.9525 35.9014C21.9525 35.9014 22.4383 37.3691 22.7347 38.0125C23.031 38.6559 23.3225 39.2797 23.3493 39.561C23.376 39.8423 23.2375 40.4612 23.8351 40.8551C24.4327 41.2489 24.5639 42.3228 24.5639 42.3228C24.5639 42.3228 26.687 44.407 27.8044 44.4633C28.9218 44.5196 32.1381 45.0822 32.0263 45.6448C31.9146 46.2075 33.3672 46.5451 33.9527 46.6845C34.5381 46.8239 30.1801 48.5143 32.7235 50.6817C32.7235 50.6817 31.1032 51.0193 30.9356 51.4156C30.768 51.8119 29.0627 51.1905 29.0627 51.1905C29.0627 51.1905 28.7008 50.3196 27.4424 50.2634C26.1841 50.2071 25.5428 49.642 25.5428 49.5589C25.5428 49.4757 24.2845 48.7712 23.5849 48.5803C22.8853 48.3895 21.9646 48.299 21.9355 48.1033C21.9063 47.9076 17.7451 29.8102 17.7451 29.8102L19.0739 29.7955Z" fill="#6B6E74"/>
<path d="M14.721 107.892C11.0335 108.589 10.3606 105.74 10.3606 105.74C10.3606 105.74 9.90152 103.205 9.7339 103.017C9.71232 102.98 9.69857 102.94 9.69355 102.898C9.68853 102.856 9.69235 102.813 9.70475 102.772C9.80418 102.343 9.9884 101.937 10.2465 101.581C10.4772 101.307 10.2878 100.167 10.2878 100.167L14.5631 99.0686C14.7451 99.4757 14.8859 99.9002 14.9834 100.336C15.0247 100.737 15.6538 102.552 15.5907 102.804C15.5275 103.056 15.8628 103.839 15.904 104.24C15.9453 104.641 16.4701 105.233 16.5138 105.444C16.5835 105.633 16.6646 105.819 16.7567 105.999C16.8697 106.277 16.9607 106.564 17.0288 106.857C17.2158 107.743 14.721 107.892 14.721 107.892Z" fill="#BCC1CB"/>
<path opacity="0.1" d="M14.721 107.892C11.0335 108.59 10.3606 105.74 10.3606 105.74C10.3606 105.74 9.90152 103.205 9.7339 103.017C9.71232 102.981 9.69857 102.94 9.69355 102.898C9.68853 102.856 9.69235 102.813 9.70475 102.772L10.5914 105.336C10.5914 105.336 11.3202 106.877 14.0506 106.645C15.6004 106.513 16.3656 106.224 16.7348 105.997C16.8479 106.275 16.9388 106.562 17.0069 106.855C17.2158 107.743 14.721 107.892 14.721 107.892Z" fill="#152B2B"/>
<path opacity="0.1" d="M11.8496 103.881C11.8496 103.881 12.7727 103.903 12.8359 103.147L11.8496 103.881Z" fill="#152B2B"/>
<path d="M27.8847 78.9336C27.4232 79.6283 26.8985 82.669 26.8985 82.669C26.6979 83.0694 26.5837 83.5079 26.5633 83.9558C26.5851 84.5478 26.228 85.6241 26.228 85.6241L25.0645 89.9931C25.0645 89.9931 25.1908 91.1551 24.7511 91.9771C24.3114 92.799 24.3527 92.547 24.5616 93.983C24.7705 95.419 24.3187 96.7473 23.5559 97.1631C22.7932 97.579 23.8912 98.5771 23.8912 98.5771C23.8912 98.5771 19.0692 99.8858 18.0611 99.0834C17.053 98.2811 18.5858 94.3132 18.5858 94.3132C18.5858 94.3132 18.3429 90.9765 18.5008 90.4922C18.6587 90.0078 19.3826 85.8688 19.3826 85.8688C19.3826 85.8688 19.8223 83.99 19.6546 83.6671C19.487 83.3442 19.7591 82.444 19.7591 82.444C19.7591 82.444 20.4708 81.4288 20.4077 81.1132C20.3445 80.7977 20.619 80.2277 20.619 80.2277C20.619 80.2277 18.4813 76.935 18.6757 76.3137C18.87 75.6923 18.5931 74.7114 18.5931 74.7114C18.5931 74.7114 18.3234 74.2441 17.9979 73.6864C17.5995 73.0014 17.1186 72.1795 16.9582 71.9251C16.7518 71.5973 16.2562 70.2127 15.9866 69.4152C15.87 69.0752 15.7922 68.8428 15.7922 68.8428C15.7922 68.8428 15.4546 75.0489 15.1631 75.6923C14.8716 76.3357 14.4343 81.3187 14.4343 81.3187C14.2713 81.7644 14.1994 82.2387 14.223 82.7131C14.2667 83.4934 13.5525 86.8913 13.5525 86.8913C13.5525 86.8913 13.2391 89.2984 13.448 89.932C13.657 90.5656 13.4893 95.2281 13.4893 95.2281C13.4893 95.2281 14.6432 96.1357 14.9469 96.8329C15.2505 97.5301 14.9056 99.4284 14.9056 99.4284C14.9056 99.4284 11.5509 101.119 10.0618 100.676C8.57266 100.233 9.18239 97.6768 9.18239 97.6768C9.18239 97.6768 8.1767 95.9889 8.1767 95.3358C8.1024 94.4431 7.98322 93.5548 7.81961 92.6743C6.54185 90.3112 7.0447 84.5698 6.83579 84.1123C6.62688 83.6549 7.27547 81.9107 7.80747 81.1377C8.33946 80.3647 8.12326 78.2462 7.80747 77.6322C7.49167 77.0182 8.12326 74.9095 8.12326 74.9095C8.12326 74.9095 7.51596 70.8145 7.53539 70.1809C7.55483 69.5473 7.01312 67.671 7.01312 67.671C7.01312 67.671 6.46655 66.6925 6.59287 66.4039C6.71919 66.1152 6.17262 65.3495 6.3208 65.0119C6.46898 64.6744 6.19448 63.6396 5.92241 63.0256C5.71933 62.392 5.56981 61.7422 5.47544 61.0832C5.34669 60.3494 5.25195 59.7133 5.25195 59.7133L8.71112 56.905L17.291 54.6373L20.5413 53.583L23.6992 58.6052C23.6992 58.6052 24.0248 59.1311 24.3138 59.7378C24.5568 60.2589 24.7851 60.8411 24.7462 61.2056C24.6939 61.6628 24.7976 62.1243 25.0402 62.5143C25.0402 62.5143 26.9276 68.5297 26.8839 70.2592C26.8402 71.9887 27.5544 75.7902 27.5544 75.7902C27.5544 75.7902 28.3463 78.2364 27.8847 78.9336Z" fill="var(--ion-text-color)"/>
<path d="M15.1166 30.0059C14.983 29.9496 5.86381 26.1579 7.1197 25.4045C7.86546 24.9568 8.78369 23.0609 9.41043 21.5761C9.85011 20.5413 10.1392 19.7047 10.1392 19.7047C10.1392 19.7047 17.4583 18.3959 14.8397 22.9142C14.4264 23.6063 14.1154 24.3554 13.9166 25.1378C13.1757 28.2152 15.0534 29.9496 15.1166 30.0059Z" fill="#FCE2C9"/>
<path opacity="0.1" d="M14.8477 22.9142C14.4344 23.6063 14.1234 24.3554 13.9246 25.1378C12.9957 25.0738 12.102 24.755 11.3402 24.216C10.5785 23.6769 9.97771 22.9383 9.60304 22.08C9.53008 21.9156 9.46602 21.7474 9.41113 21.5761C9.85082 20.5413 10.1399 19.7047 10.1399 19.7047C10.1399 19.7047 17.4663 18.3959 14.8477 22.9142Z" fill="#152B2B"/>
<path d="M19.3949 19.8318C19.3952 21.0132 18.9921 22.1588 18.2532 23.0764C17.5142 23.9941 16.4844 24.6279 15.3365 24.8717C14.1885 25.1155 12.9923 24.9543 11.9483 24.4153C10.9044 23.8762 10.0762 22.9921 9.60282 21.9111C9.31424 21.2565 9.16607 20.548 9.16799 19.8318C9.16729 18.5903 9.61198 17.3904 10.4202 16.453C11.2284 15.5155 12.3457 14.9037 13.5664 14.7301C14.787 14.5564 16.0289 14.8328 17.0633 15.5082C18.0977 16.1835 18.855 17.2125 19.1957 18.4056C19.3289 18.8691 19.396 19.3493 19.3949 19.8318Z" fill="#FCE2C9"/>
<path opacity="0.1" d="M24.3355 59.7378C23.8011 60.227 23.5946 61.1615 23.5946 61.1615C23.5946 61.1615 21.0804 62.891 21.248 61.7927C21.4156 60.6943 19.9484 56.2641 19.9484 56.2641L20.116 62.299C20.116 62.299 12.0656 61.9199 11.4802 61.3205C10.8948 60.7212 7.45504 59.5886 7.45504 59.5886C7.45504 59.5886 6.4032 60.4399 5.43638 61.0857C5.30763 60.3518 5.21289 59.7158 5.21289 59.7158L8.67206 56.9075L17.2908 54.6373L20.5411 53.583L23.6991 58.6052C23.6991 58.6052 24.0391 59.1385 24.3355 59.7378Z" fill="#152B2B"/>
<path d="M24.593 59.2608C23.9226 59.684 23.6699 60.8215 23.6699 60.8215C23.6699 60.8215 21.1557 62.5535 21.3233 61.4551C21.491 60.3567 20.0237 55.9266 20.0237 55.9266L20.1913 61.9615C20.1913 61.9615 12.1434 61.5823 11.5556 60.983C10.9677 60.3837 7.53281 59.2535 7.53281 59.2535C7.53281 59.2535 4.55462 61.6606 4.01048 61.4551C3.46634 61.2496 4.98216 57.1497 4.98216 57.1497L6.53199 33.1763C6.53199 33.1763 6.11416 26.043 6.74333 25.7886C6.83994 25.7494 6.9288 25.693 7.00568 25.6223C7.42107 25.248 7.54496 24.4872 7.5814 23.8463C7.62269 23.0879 8.62838 23.4671 8.62838 23.4671L8.04294 24.2279L13.2366 27.408L13.2827 27.4349C13.4852 27.3283 13.6937 27.2336 13.907 27.1512C14.3661 26.9726 14.9783 26.8038 15.3791 26.9702C15.6013 27.0824 15.7905 27.251 15.9281 27.4594C16.2245 27.9078 16.4621 28.3929 16.635 28.9027L18.5055 32.1171C18.5055 32.1171 19.4772 36.3809 19.4772 36.5497C19.4772 36.7185 19.7711 40.6007 20.1063 41.0239C20.4415 41.4471 20.7768 43.5558 20.6505 44.1894C20.5241 44.823 20.8594 47.1885 20.8594 47.1885C22.244 48.326 22.9558 52.2107 22.9558 52.2107C22.9558 52.2107 25.142 56.5601 25.3024 57.0665C25.4627 57.5729 25.2635 58.8376 24.593 59.2608Z" fill="#F2F4F8"/>
<path d="M11.2491 29.4114C11.2491 29.4114 12.9899 28.2608 13.5 27.5L8.5 24.5L8 24L8.49929 23.7996L8.62075 23.6406C8.62075 23.6406 7.61506 23.2615 7.57376 24.0222C7.53733 24.6607 7.41344 25.4215 6.99805 25.7958L11.2491 29.4114Z" fill="#DFE4EA"/>
<path d="M15.1946 27.973C14.6456 28.6335 13.8683 29.382 13.9047 29.0078C13.9412 28.6335 13.4408 27.8018 13.1201 27.4299C13.6182 27.2709 14.155 27.2864 14.6432 27.474C14.8688 27.5865 15.0595 27.7591 15.1946 27.973Z" fill="#DFE4EA"/>
<path d="M13.9026 31.2289C14.0878 31.2289 14.2378 31.0777 14.2378 30.8913C14.2378 30.7049 14.0878 30.5537 13.9026 30.5537C13.7175 30.5537 13.5674 30.7049 13.5674 30.8913C13.5674 31.0777 13.7175 31.2289 13.9026 31.2289Z" fill="#192534"/>
<path d="M16.4456 40.3485C16.6307 40.3485 16.7808 40.1974 16.7808 40.0109C16.7808 39.8245 16.6307 39.6733 16.4456 39.6733C16.2604 39.6733 16.1104 39.8245 16.1104 40.0109C16.1104 40.1974 16.2604 40.3485 16.4456 40.3485Z" fill="#192534"/>
<path d="M19.3245 49.5785C19.5096 49.5785 19.6597 49.4273 19.6597 49.2409C19.6597 49.0545 19.5096 48.9033 19.3245 48.9033C19.1393 48.9033 18.9893 49.0545 18.9893 49.2409C18.9893 49.4273 19.1393 49.5785 19.3245 49.5785Z" fill="#192534"/>
<path d="M19.4094 59.6251C19.5946 59.6251 19.7447 59.474 19.7447 59.2875C19.7447 59.1011 19.5946 58.95 19.4094 58.95C19.2243 58.95 19.0742 59.1011 19.0742 59.2875C19.0742 59.474 19.2243 59.6251 19.4094 59.6251Z" fill="#192534"/>
<path d="M15.3841 35.5343C15.5692 35.5343 15.7193 35.3832 15.7193 35.1967C15.7193 35.0103 15.5692 34.8591 15.3841 34.8591C15.1989 34.8591 15.0488 35.0103 15.0488 35.1967C15.0488 35.3832 15.1989 35.5343 15.3841 35.5343Z" fill="#192534"/>
<path d="M17.6477 44.9061C17.8329 44.9061 17.983 44.755 17.983 44.5685C17.983 44.3821 17.8329 44.231 17.6477 44.231C17.4626 44.231 17.3125 44.3821 17.3125 44.5685C17.3125 44.755 17.4626 44.9061 17.6477 44.9061Z" fill="#192534"/>
<path d="M19.8557 54.1088C20.0409 54.1088 20.191 53.9576 20.191 53.7712C20.191 53.5847 20.0409 53.4336 19.8557 53.4336C19.6706 53.4336 19.5205 53.5847 19.5205 53.7712C19.5205 53.9576 19.6706 54.1088 19.8557 54.1088Z" fill="#192534"/>
<path d="M19.3538 60.7506C19.5389 60.7506 19.689 60.5995 19.689 60.413C19.689 60.2266 19.5389 60.0754 19.3538 60.0754C19.1686 60.0754 19.0186 60.2266 19.0186 60.413C19.0186 60.5995 19.1686 60.7506 19.3538 60.7506Z" fill="#192534"/>
<path d="M6.84555 25.8275C6.84555 25.8275 6.90142 25.3187 6.17509 26.192C5.44876 27.0654 4.0787 27.8237 4.0787 27.8237C4.0787 27.8237 0.976616 30.0253 0.809002 31.0332C0.641388 32.041 -0.364297 36.437 0.165267 37.8998C0.694831 39.3627 4.74915 46.3712 4.74915 46.3712C4.74915 46.3712 3.6876 47.6409 3.93052 49.1282C4.17344 50.6155 4.49166 52.6753 4.35077 53.1254C4.20987 53.5755 4.51838 54.7008 4.04469 55.0946C3.571 55.4885 3.07301 56.1636 4.54753 57.0663C4.54753 57.0663 4.82689 57.8247 4.57425 57.9934C4.32162 58.1622 8.29092 59.9089 9.85532 58.972C11.4197 58.035 14.2449 50.6131 14.3007 48.9423C14.3566 47.2715 13.4335 41.7943 12.9307 40.5002C12.4278 39.2061 10.9144 34.1864 10.2707 33.0587C9.62698 31.931 6.84555 25.8275 6.84555 25.8275Z" fill="#6B6E74"/>
<path opacity="0.1" d="M5.71582 30.6101C5.71582 30.6101 8.11829 33.2839 8.0357 35.0574C8.0357 35.0574 8.05999 32.1879 5.71582 30.6101Z" fill="#152B2B"/>
<path opacity="0.1" d="M9.03223 35.0012C9.03223 35.0868 10.6525 41.1658 10.5699 41.9241C10.4873 42.6825 11.0436 44.9355 11.0436 44.9355L11.7991 44.7398C11.7991 44.7398 11.2112 41.6159 11.0995 40.4613C10.9877 39.3066 9.03223 35.0012 9.03223 35.0012Z" fill="#152B2B"/>
<path opacity="0.1" d="M9.68261 52.3379C9.62674 52.4211 5.8542 56.7289 6.91576 57.0372C7.97732 57.3454 9.68261 52.3379 9.68261 52.3379Z" fill="#152B2B"/>
<path opacity="0.1" d="M6.58069 51.2395C6.4981 51.2958 5.07216 54.3365 4.90455 53.5194C4.73693 52.7024 6.13372 55.7431 6.36206 53.4925L6.58069 51.2395Z" fill="#152B2B"/>
<path d="M13.8055 26.784C13.8055 26.784 15.5521 25.8276 17.51 28.2738C17.51 28.2738 18.9335 29.0909 19.3537 29.289C19.774 29.4872 20.2477 34.7197 20.2477 34.7197C20.2477 34.7197 21.1708 36.9703 20.9181 38.2668C20.6655 39.5633 21.6469 44.0057 21.6469 44.0057C21.6469 44.0057 23.2696 52.0001 23.2137 52.2252C23.1579 52.4502 21.5643 49.7202 21.591 48.3699C21.6177 47.0195 20.2501 42.7973 20.0558 42.5429C19.8614 42.2885 18.5181 35.0573 18.5181 35.0573C18.5181 35.0573 17.4274 31.9897 16.7302 30.9769C16.033 29.9642 15.1634 28.0414 14.8014 27.7112C14.4909 27.4655 14.1409 27.2752 13.7666 27.1485L13.8055 26.784Z" fill="#6B6E74"/>
<path opacity="0.1" d="M19.1636 65.5499C18.6778 66.6214 18.2624 72.0007 17.9831 73.7082C17.5847 73.0233 17.1037 72.2013 16.9434 71.9469C16.7369 71.6191 16.2413 70.2345 15.9717 69.437C16.2875 68.664 17.1596 66.4477 17.1596 65.6355C17.1596 64.6424 18.7531 63.3972 18.7531 63.3972C19.0389 63.6662 19.2326 64.0194 19.3064 64.4063C19.3801 64.7931 19.3302 65.1935 19.1636 65.5499Z" fill="#152B2B"/>
<path opacity="0.1" d="M8.47559 82.077C8.47559 82.077 12.1631 80.4943 13.2538 81.6122C14.3445 82.7302 8.47559 82.077 8.47559 82.077Z" fill="#152B2B"/>
<path opacity="0.1" d="M10.5496 82.7104C10.5496 82.7104 6.81833 84.8216 8.09852 85.1812C9.3787 85.5408 10.5496 82.7104 10.5496 82.7104Z" fill="#152B2B"/>
<path opacity="0.1" d="M21.7001 80.8733C21.7001 80.8733 20.109 80.9809 20.7163 81.2965C21.3236 81.6121 21.7001 80.8733 21.7001 80.8733Z" fill="#152B2B"/>
<path opacity="0.1" d="M23.6918 81.3604C23.6699 81.4655 19.0593 82.9651 19.9605 83.6402C20.8618 84.3154 23.6918 81.3604 23.6918 81.3604Z" fill="#152B2B"/>
<path opacity="0.1" d="M9.03223 94.279C9.72455 94.1714 13.5821 92.3782 12.0711 93.665C11.6678 94.0358 11.1718 94.2888 10.6364 94.397C10.1009 94.5052 9.54636 94.4644 9.03223 94.279Z" fill="#152B2B"/>
<path opacity="0.1" d="M10.9268 95.6929C10.9268 95.6929 11.262 97.0016 12.5422 96.8328C13.8224 96.664 10.9268 95.6929 10.9268 95.6929Z" fill="#152B2B"/>
<path opacity="0.1" d="M9.85742 98.352C10.0882 98.2884 12.8356 97.0212 12.8963 97.6181C12.9571 98.215 10.2777 99.2425 10.0688 98.9269C9.94707 98.7585 9.87393 98.5596 9.85742 98.352Z" fill="#152B2B"/>
<path opacity="0.1" d="M18.748 96.833C19.0833 96.8109 22.2267 95.7982 22.8558 96.7058L18.748 96.833Z" fill="#152B2B"/>
<path opacity="0.1" d="M21.5957 97.4225C21.5957 97.4225 22.1423 96.9333 22.6864 97.1779C23.2305 97.4225 21.5957 97.4225 21.5957 97.4225Z" fill="#152B2B"/>
<path opacity="0.1" d="M14.6387 102.657C14.6745 102.836 14.7607 103 14.887 103.13C15.0132 103.26 15.1742 103.351 15.3504 103.391L14.6387 102.657Z" fill="#152B2B"/>
<path d="M30.6301 104.639C30.4212 105.505 27.4868 105.588 26.0827 105.356C24.6786 105.123 21.7636 104.279 21.7636 104.279C21.7636 104.279 18.7052 103.986 17.804 103.604C16.9028 103.222 17.6145 102.254 17.6145 102.254V102.163C17.5927 101.811 17.5319 100.529 17.7481 100.184C17.9911 99.7854 17.8526 98.4718 17.8526 98.4718C17.8526 98.4718 22.1911 99.3157 22.2737 98.9146C22.3563 98.5134 23.0292 97.9361 23.3426 97.8162C23.6559 97.6963 23.8891 98.873 23.8891 98.873C23.8891 98.873 25.8592 100.561 25.9855 101.172C26.1118 101.784 27.4941 102.102 27.4941 102.102C27.4941 102.102 29.5905 102.692 30.1346 102.988C30.2927 103.063 30.429 103.178 30.5303 103.321C30.6315 103.465 30.6944 103.632 30.7127 103.807C30.7363 104.087 30.7083 104.369 30.6301 104.639Z" fill="#BCC1CB"/>
<path opacity="0.1" d="M30.6301 104.639C30.4212 105.505 27.4868 105.588 26.0827 105.355C24.6786 105.123 21.7636 104.279 21.7636 104.279C21.7636 104.279 18.7052 103.986 17.804 103.604C16.9028 103.222 17.6145 102.254 17.6145 102.254V102.163L22.0016 103.142C22.0016 103.142 24.1612 104.071 25.5434 104.071C26.758 104.071 29.4568 104.56 30.7127 103.827C30.734 104.1 30.706 104.375 30.6301 104.639Z" fill="#152B2B"/>
<path opacity="0.1" d="M24.6974 101.307C24.6974 101.307 24.4885 102.699 23.6504 103.164L24.6974 101.307Z" fill="#152B2B"/>
<path opacity="0.1" d="M19.1957 18.4056C19.118 18.4479 19.0367 18.4831 18.9528 18.5108C18.5593 18.616 18.1755 18.3493 17.8257 18.1365C17.4759 17.9237 16.9949 17.7647 16.6912 18.0411C16.2977 18.4007 16.5843 19.1737 16.1787 19.5211C15.9212 19.7413 15.5131 19.6654 15.2264 19.8464C14.9398 20.0275 14.8548 20.4238 14.7819 20.7662C14.709 21.1087 14.5657 21.5001 14.2329 21.6004C13.9001 21.7007 13.5891 21.4805 13.2612 21.4928C13.1932 21.4928 13.1154 21.505 13.0693 21.4536C13.054 21.4319 13.0431 21.4072 13.0373 21.3812C13.0315 21.3552 13.0308 21.3283 13.0353 21.302C13.0781 20.8913 13.0426 20.4761 12.9308 20.0788C12.8716 19.881 12.7616 19.7024 12.6119 19.5611C12.4622 19.4198 12.2781 19.3208 12.0782 19.274C11.4903 19.1835 10.9948 19.7021 10.6474 20.1914C10.2839 20.7056 9.95286 21.2424 9.65628 21.7986C9.63794 21.8343 9.62171 21.871 9.60769 21.9086C9.31912 21.2541 9.17095 20.5455 9.17287 19.8293C9.17217 18.5879 9.61686 17.388 10.4251 16.4505C11.2333 15.5131 12.3506 14.9012 13.5712 14.7276C14.7919 14.554 16.0338 14.8303 17.0682 15.5057C18.1026 16.1811 18.8598 17.2101 19.2006 18.4032L19.1957 18.4056Z" fill="#152B2B"/>
<path d="M10.6423 20.1082C10.9897 19.6189 11.4828 19.1028 12.0731 19.1933C12.2723 19.2398 12.4555 19.3388 12.6041 19.4803C12.7527 19.6217 12.8612 19.8004 12.9184 19.9981C13.0321 20.395 13.0684 20.8104 13.0253 21.2212C13.0161 21.2751 13.0283 21.3305 13.0593 21.3753C13.1055 21.4243 13.1832 21.4169 13.2512 21.4145C13.5792 21.4145 13.9071 21.6175 14.2229 21.5221C14.5387 21.4267 14.7088 21.0329 14.7743 20.6879C14.8399 20.343 14.9225 19.9541 15.2189 19.7681C15.5152 19.5822 15.9112 19.663 16.1711 19.4403C16.5744 19.093 16.2902 18.3224 16.6837 17.9604C16.9873 17.6864 17.4707 17.8429 17.8181 18.0558C18.1655 18.2686 18.5469 18.545 18.9453 18.43C19.0753 18.3825 19.2026 18.3278 19.3266 18.2661C19.9485 18.0215 20.755 18.4325 21.27 18.0044C21.4561 17.818 21.5895 17.5849 21.6562 17.3292C21.7975 16.9846 21.8931 16.6227 21.9405 16.2529C21.9843 15.8799 21.8824 15.5044 21.6562 15.2059C21.3234 14.8096 20.7623 14.7166 20.3372 14.4206C19.9918 14.1481 19.705 13.8077 19.4943 13.4201C19.2837 13.0324 19.0065 12.6854 18.6756 12.3951C18.5076 12.2524 18.3039 12.1589 18.0867 12.1248C17.8695 12.0907 17.6472 12.1174 17.444 12.2019C17.3212 12.2879 17.1849 12.3524 17.0408 12.3927C16.8841 12.3953 16.7298 12.3529 16.5962 12.2703C15.1387 11.5805 13.4504 11.7028 11.8569 11.9083C11.2145 11.9613 10.5843 12.1148 9.98883 12.3633C9.69225 12.4902 9.42633 12.6801 9.20919 12.9198C8.99204 13.1596 8.82877 13.4437 8.73051 13.7528C8.59933 14.242 8.69893 14.7875 8.54346 15.2744C8.43658 15.607 8.21795 15.8908 8.09406 16.2162C7.7564 17.1066 8.16208 18.0851 8.33698 19.022C8.52403 20.047 8.42929 21.1552 8.86169 22.1239C8.94671 22.3147 9.04144 22.6474 9.25521 22.5226C9.41311 22.4297 9.56615 21.8891 9.65603 21.7203C9.95142 21.1629 10.2808 20.6245 10.6423 20.1082Z" fill="var(--ion-text-color)"/>
<path opacity="0.1" d="M1.44005 36.6058L0.68457 38.7732C0.68457 38.7732 2.47246 45.4711 3.31053 46.8777C4.1486 48.2843 5.38749 50.0872 5.38749 50.0872C6.78762 50.7219 8.34472 50.9187 9.8572 50.6522C12.2621 50.163 19.2752 48.9056 19.2752 48.9056C19.4409 48.9358 19.6117 48.9204 19.7695 48.861C19.9273 48.8016 20.0662 48.7004 20.1716 48.568C20.4776 48.1179 22.0712 47.8929 22.0712 47.8929C22.0712 47.8929 23.9149 45.202 21.6509 44.0669C21.6509 44.0669 21.3716 44.6858 20.1716 44.2626C18.9715 43.8394 18.6047 44.6002 18.6047 44.6002C18.6047 44.6002 16.6614 44.994 15.5585 44.8448C14.4557 44.6956 11.7593 44.6467 11.4799 44.4216C11.4443 44.3906 11.4029 44.367 11.3581 44.3522C11.3134 44.3374 11.2661 44.3316 11.2192 44.3353C11.1722 44.3389 11.1264 44.3519 11.0845 44.3734C11.0425 44.3949 11.0052 44.4246 10.9746 44.4607C10.6496 44.3429 10.3466 44.1709 10.0783 43.9519C9.85478 43.7073 9.5487 44.2357 9.5487 44.2357C9.5487 44.2357 9.1576 44.0082 9.26934 43.7269C9.38108 43.4455 8.90496 42.3765 8.90496 42.3765C8.77893 41.9674 8.75063 41.5341 8.82237 41.1118C8.96083 40.5467 8.12276 38.5212 8.12276 38.5212C8.11211 38.18 8.14974 37.839 8.2345 37.5085C8.3754 37.0021 7.17295 35.9893 7.17295 35.9893C7.17295 35.9893 5.99965 30.248 3.51215 32.134C1.02466 34.0201 1.44005 36.6058 1.44005 36.6058Z" fill="#152B2B"/>
<path opacity="0.1" d="M19.4388 45.6667C19.4096 45.8649 18.7951 46.6453 19.0185 46.792C19.242 46.9388 19.6064 46.8483 19.2615 47.3008C18.9165 47.7534 18.9554 48.4261 19.1789 48.3405C19.4024 48.2549 19.7667 47.2446 19.7667 46.8483C19.7124 46.441 19.6021 46.0434 19.4388 45.6667Z" fill="#152B2B"/>
<g opacity="0.1">
<path opacity="0.1" d="M12.9183 19.509C12.8594 19.3116 12.7497 19.1335 12.6004 18.9926C12.4511 18.8517 12.2675 18.753 12.0681 18.7066C11.4778 18.6161 10.9847 19.1347 10.6373 19.6239C10.2738 20.1382 9.94277 20.675 9.64619 21.2311C9.55631 21.3999 9.40327 21.9381 9.24538 22.031C9.03161 22.1583 8.93687 21.8231 8.85184 21.6323C8.41945 20.666 8.51419 19.5554 8.32714 18.5304C8.17585 17.9346 8.05585 17.3312 7.96762 16.7227C7.90203 17.4565 8.18868 18.232 8.32714 18.9806C8.51419 20.0055 8.41945 21.1161 8.85184 22.0849C8.93687 22.2732 9.03161 22.6084 9.24538 22.4812C9.40327 22.3882 9.55631 21.85 9.64619 21.6812C9.94277 21.1251 10.2738 20.5883 10.6373 20.074C10.9847 19.5848 11.4778 19.0662 12.0681 19.1567C12.2675 19.2031 12.4511 19.3018 12.6004 19.4427C12.7497 19.5836 12.8594 19.7617 12.9183 19.9591C12.9864 20.1636 13.0249 20.377 13.0325 20.5926C13.0619 20.2274 13.0232 19.8598 12.9183 19.509Z" fill="#152B2B"/>
<path opacity="0.1" d="M21.6632 16.845C21.5964 17.1006 21.4631 17.3337 21.277 17.5201C20.7668 17.9507 19.9603 17.5446 19.3336 17.7843C19.2096 17.8452 19.0822 17.8991 18.9522 17.9458C18.5587 18.0534 18.1749 17.7868 17.8251 17.574C17.4753 17.3611 16.9943 17.2021 16.6906 17.4786C16.2971 17.8382 16.5838 18.6087 16.1781 18.9585C15.9182 19.1787 15.5125 19.1029 15.2258 19.2839C14.9392 19.4649 14.8542 19.8612 14.7813 20.2037C14.7084 20.5462 14.5651 20.9376 14.2299 21.0379C13.8946 21.1382 13.5886 20.918 13.2582 20.9302C13.1902 20.9302 13.1124 20.9425 13.0663 20.8911C13.0559 20.8787 13.0477 20.8646 13.042 20.8495C13.042 20.962 13.042 21.077 13.042 21.1895C13.0375 21.2158 13.0382 21.2428 13.044 21.2688C13.0498 21.2948 13.0607 21.3194 13.076 21.3412C13.1222 21.3926 13.1999 21.3828 13.2679 21.3803C13.5959 21.3803 13.9238 21.5834 14.2396 21.488C14.5554 21.3926 14.7254 20.9987 14.791 20.6563C14.8566 20.3138 14.9392 19.9224 15.2356 19.734C15.5319 19.5457 15.9279 19.6288 16.1878 19.4087C16.5935 19.0613 16.3068 18.2883 16.7004 17.9409C17.004 17.6645 17.4874 17.8235 17.8348 18.0363C18.1822 18.2491 18.5636 18.5256 18.9619 18.4106C19.0956 18.3739 19.2049 18.2956 19.3433 18.2467C19.9652 18.0021 20.7717 18.413 21.2867 17.9825C21.4693 17.7949 21.5992 17.562 21.6632 17.3073C21.8042 16.9634 21.8997 16.6024 21.9474 16.2334C21.9608 16.1082 21.9608 15.9819 21.9474 15.8567C21.8916 16.1962 21.7962 16.5279 21.6632 16.845Z" fill="#152B2B"/>
</g>
<path d="M59.9402 15.1667H29.2935C27.426 15.1667 25.9121 16.6913 25.9121 18.5719V60.4421C25.9121 62.3228 27.426 63.8473 29.2935 63.8473H59.9402C61.8078 63.8473 63.3217 62.3228 63.3217 60.4421V18.5719C63.3217 16.6913 61.8078 15.1667 59.9402 15.1667Z" fill="#99CC33"/>
<path d="M44.615 53.3284C49.5789 53.3284 53.603 49.2761 53.603 44.2772C53.603 39.2784 49.5789 35.2261 44.615 35.2261C39.651 35.2261 35.627 39.2784 35.627 44.2772C35.627 49.2761 39.651 53.3284 44.615 53.3284Z" fill="#F2F2F2"/>
<path d="M57.9702 63.8473H31.2637C31.3544 61.8058 32.2234 59.8781 33.6899 58.4655C35.1564 57.053 37.1074 56.2644 39.1367 56.2639H50.0972C52.1265 56.2644 54.0775 57.053 55.544 58.4655C57.0105 59.8781 57.8795 61.8058 57.9702 63.8473Z" fill="#F2F2F2"/>
<path d="M21.4766 44.3728C21.4766 44.3728 24.8021 42.1712 26.4103 43.2622C28.0184 44.3532 30.6443 45.8797 28.0597 46.9903C25.475 48.1009 21.9065 47.8856 21.9065 47.8856L21.4766 44.3728Z" fill="#FCE2C9"/>
<path d="M1.27263 36.6058L0.529297 38.7732C0.529297 38.7732 2.31718 45.4711 3.15525 46.8777C3.99333 48.2843 5.21278 50.0872 5.21278 50.0872C6.61292 50.7219 8.17001 50.9187 9.6825 50.6522C12.0874 50.163 19.1005 48.9056 19.1005 48.9056C19.2662 48.9359 19.437 48.9205 19.5948 48.861C19.7526 48.8016 19.8915 48.7004 19.9969 48.568C20.3029 48.1155 21.9062 47.8855 21.9062 47.8855C21.9062 47.8855 23.75 45.1946 21.486 44.0596C21.486 44.0596 21.2066 44.6785 20.0066 44.2553C18.8065 43.8321 18.4397 44.5929 18.4397 44.5929C18.4397 44.5929 16.4842 44.9867 15.3935 44.8375C14.3028 44.6883 11.5943 44.6393 11.3149 44.4143C11.2443 44.3513 11.1517 44.319 11.0575 44.3245C10.9633 44.33 10.875 44.3728 10.8121 44.4436C10.4871 44.3258 10.184 44.1538 9.9157 43.9348C9.69221 43.6902 9.38614 44.2186 9.38614 44.2186C9.38614 44.2186 8.99504 43.9911 9.10678 43.7098C9.21852 43.4284 8.7424 42.3594 8.7424 42.3594C8.61637 41.9503 8.58807 41.5169 8.65981 41.0947C8.79827 40.5296 7.9602 38.5041 7.9602 38.5041C7.94955 38.1629 7.98718 37.8219 8.07194 37.4914C8.21284 36.985 7.01038 35.9722 7.01038 35.9722C7.01038 35.9722 5.83708 30.2309 3.34959 32.1169C0.862097 34.003 1.27263 36.6058 1.27263 36.6058Z" fill="#6B6E74"/>
</g>
<defs>
<clipPath id="clip0">
<rect width="226" height="108" fill="white"/>
</clipPath>
</defs>
</svg>
