<svg width="222" height="146" viewBox="0 0 222 146" fill="none" xmlns="http://www.w3.org/2000/svg">
<g opacity="0.2">
<path opacity="0.2" d="M178.378 139.707C178.311 140.196 178.284 140.689 178.297 141.183C181.563 141.235 184.843 141.345 188.137 141.513C188.159 141.386 188.182 141.252 188.201 141.119C188.412 139.743 188.253 138.335 187.742 137.04C187.063 135.382 185.798 134.197 184.215 133.97C182.632 133.743 181.088 134.522 179.973 135.914C179.113 137.013 178.562 138.322 178.378 139.707Z" fill="#3F3D56"/>
<path opacity="0.2" d="M189.34 133.252C189.85 129.694 188.065 126.493 185.352 126.102C182.64 125.712 180.027 128.279 179.517 131.837C179.007 135.395 180.792 138.596 183.504 138.987C186.217 139.378 188.829 136.81 189.34 133.252Z" fill="#3F3D56"/>
<path opacity="0.2" d="M190.469 125.379C190.979 121.821 189.194 118.62 186.481 118.23C183.769 117.839 181.156 120.406 180.646 123.964C180.135 127.522 181.921 130.724 184.633 131.114C187.346 131.505 189.958 128.937 190.469 125.379Z" fill="#3F3D56"/>
<path opacity="0.2" d="M191.598 117.505C192.108 113.947 190.323 110.746 187.61 110.355C184.898 109.964 182.285 112.532 181.775 116.09C181.264 119.648 183.05 122.849 185.762 123.24C188.475 123.63 191.087 121.063 191.598 117.505Z" fill="#3F3D56"/>
<path opacity="0.2" d="M192.727 109.63C193.237 106.072 191.452 102.871 188.739 102.48C186.027 102.089 183.414 104.657 182.904 108.215C182.393 111.773 184.178 114.974 186.891 115.365C189.604 115.756 192.216 113.188 192.727 109.63Z" fill="#3F3D56"/>
<path d="M213.919 57.6827C214.713 56.9206 215.453 56.1049 216.136 55.2415L203.536 51.2661L217.477 53.3806C219.235 50.6533 220.419 47.5952 220.957 44.3934C221.495 41.1917 221.375 37.9136 220.605 34.7599L200.487 41.7962L219.576 31.5676C218.36 28.534 216.533 25.7839 214.209 23.4886C211.886 21.1932 209.116 19.4019 206.072 18.226C203.028 17.0501 199.774 16.515 196.515 16.6538C193.255 16.7927 190.059 17.6026 187.126 19.0331C184.192 20.4636 181.584 22.4841 179.463 24.9688C177.342 27.4534 175.755 30.349 174.8 33.4751C173.845 36.6012 173.542 39.891 173.91 43.1395C174.279 46.388 175.311 49.5257 176.942 52.3572C175.706 53.5392 174.6 54.8512 173.644 56.2706L189.145 67.4024L172.147 58.8244C170.36 62.3583 169.481 66.283 169.589 70.2432C169.697 74.2034 170.789 78.0741 172.765 81.505C169.537 84.5889 167.241 88.5209 166.138 92.8512C165.035 97.1816 165.17 101.736 166.528 105.993C167.886 110.25 170.412 114.038 173.817 116.924C177.222 119.81 181.369 121.678 185.783 122.314C190.197 122.95 194.701 122.328 198.78 120.519C202.858 118.711 206.346 115.789 208.846 112.087C211.345 108.386 212.754 104.054 212.913 99.588C213.071 95.1216 211.973 90.7006 209.742 86.8305C213.599 83.1448 216.107 78.2673 216.865 72.9813C217.623 67.6952 216.586 62.3073 213.921 57.6827H213.919Z" fill="#127127"/>
<path opacity="0.1" d="M169.819 66.2061C169.052 71.4924 170.089 76.8834 172.762 81.5049C169.535 84.5888 167.238 88.5208 166.135 92.8512C165.032 97.1815 165.167 101.736 166.525 105.993C167.883 110.25 170.409 114.038 173.814 116.924C177.219 119.81 181.366 121.678 185.78 122.314C190.195 122.95 194.698 122.328 198.777 120.519C202.855 118.711 206.343 115.789 208.843 112.087C211.342 108.386 212.751 104.054 212.91 99.5879C213.069 95.1215 211.97 90.7005 209.739 86.8304C213.466 83.2738 170.197 63.5603 169.819 66.2061Z" fill="black"/>
</g>
<g opacity="0.2">
<path opacity="0.2" d="M21.8708 139.115C21.9448 139.539 22.0545 139.956 22.1987 140.362C24.8608 139.503 27.5504 138.689 30.2675 137.921C30.2525 137.808 30.2357 137.692 30.215 137.575C30.0226 136.379 29.5199 135.255 28.7572 134.315C27.7659 133.127 26.4242 132.492 25.0788 132.742C23.7334 132.991 22.6878 134.056 22.1537 135.528C21.7495 136.679 21.6519 137.915 21.8708 139.115Z" fill="#3F3D56"/>
<path opacity="0.2" d="M25.76 137.109C28.0743 136.743 29.5532 133.93 29.0634 130.827C28.5736 127.724 26.3004 125.506 23.9862 125.873C21.672 126.24 20.193 129.053 20.6828 132.156C21.1727 135.258 23.4458 137.476 25.76 137.109Z" fill="#3F3D56"/>
<path opacity="0.2" d="M34.4714 143.253C36.7909 142.877 38.2647 140.052 37.7632 136.942C37.2616 133.832 34.9747 131.615 32.6551 131.991C30.3355 132.366 28.8617 135.192 29.3632 138.302C29.8648 141.412 32.1518 143.629 34.4714 143.253Z" fill="#3F3D56"/>
<path opacity="0.2" d="M31.7962 108.759C34.1104 108.392 35.5894 105.58 35.0996 102.477C34.6097 99.3741 32.3366 97.1563 30.0223 97.5232C27.7081 97.8901 26.2291 100.703 26.719 103.806C27.2088 106.908 29.482 109.126 31.7962 108.759Z" fill="#3F3D56"/>
<path opacity="0.2" d="M30.6175 101.909C32.9317 101.542 34.4107 98.7294 33.9208 95.6266C33.431 92.5238 31.1578 90.3059 28.8436 90.6728C26.5294 91.0397 25.0504 93.8525 25.5402 96.9553C26.0301 100.058 28.3032 102.276 30.6175 101.909Z" fill="#3F3D56"/>
<path d="M38.1934 74.0392C38.635 73.1898 39.0188 72.3115 39.342 71.4102L28.0614 71.5867L39.9342 69.4892C40.679 66.5768 40.7991 63.5392 40.2865 60.577C39.8392 57.9554 38.8994 55.4429 37.5169 53.1727L23.0676 64.573L35.8323 50.8028C31.3201 45.3214 24.1582 42.3976 16.7677 43.7609C5.7213 45.7927 -1.63733 56.6241 0.313354 67.9475C1.0833 72.5217 3.3576 76.7065 6.77441 79.8361C6.08357 81.1605 5.5352 82.5548 5.13854 83.9955L20.6766 88.9548L4.59699 86.5305C4.26204 88.7774 4.28861 91.0636 4.67569 93.302C5.44564 97.8762 7.71993 102.061 11.1367 105.191C8.97972 109.326 8.24402 114.059 9.04365 118.657C10.9943 129.982 21.5235 137.51 32.5624 135.473C43.6013 133.435 50.9674 122.606 49.0168 111.28C48.246 106.707 45.9718 102.523 42.5557 99.3937C44.7123 95.2573 45.448 90.5237 44.6488 85.9259C43.8796 81.3532 41.6074 77.1694 38.1934 74.0392Z" fill="#127127"/>
<path opacity="0.1" d="M3.7578 65.8065C4.52774 70.3807 6.80204 74.5655 10.2189 77.6951C8.06182 81.8308 7.32612 86.5639 8.12576 91.1611C10.0764 102.486 20.6056 110.015 31.6445 107.977C42.6834 105.94 50.0495 95.1102 48.0989 83.7849C47.3281 79.2116 45.0539 75.0276 41.6378 71.8982C43.7159 67.9135 3.36054 63.5062 3.7578 65.8065Z" fill="black"/>
</g>
<path d="M12.0117 123.463C12.0117 133.286 18.1598 141.233 25.7583 141.233L12.0117 123.463Z" fill="#46455B"/>
<path d="M25.7588 141.233C25.7588 131.301 32.6209 123.264 41.1019 123.264L25.7588 141.233Z" fill="#32A52F"/>
<path d="M16.9932 124.353C16.9932 133.684 20.9133 141.233 25.7591 141.233L16.9932 124.353Z" fill="#32A52F"/>
<path d="M25.7588 141.233C25.7588 128.543 33.6908 118.273 43.493 118.273L25.7588 141.233Z" fill="#46455B"/>
<path opacity="0.9" d="M112.386 145.906C165.269 145.906 208.14 144.477 208.14 142.715C208.14 140.953 165.269 139.525 112.386 139.525C59.5024 139.525 16.6318 140.953 16.6318 142.715C16.6318 144.477 59.5024 145.906 112.386 145.906Z" fill="#46455B"/>
<path opacity="0.9" d="M110.5 144C135.077 144 155 142.657 155 141C155 139.343 135.077 138 110.5 138C85.9233 138 66 139.343 66 141C66 142.657 85.9233 144 110.5 144Z" fill="#152B2B"/>
<path opacity="0.1" d="M24.1713 143.755C26.1045 143.755 27.6716 143.489 27.6716 143.162C27.6716 142.834 26.1045 142.568 24.1713 142.568C22.2381 142.568 20.6709 142.834 20.6709 143.162C20.6709 143.489 22.2381 143.755 24.1713 143.755Z" fill="#32A52F"/>
<path d="M21.8203 140.405C21.8203 140.405 23.8178 140.345 24.4194 139.915C25.0209 139.485 27.4887 138.976 27.6386 139.662C27.7885 140.347 30.6368 143.087 28.3882 143.104C26.1396 143.121 23.1526 142.752 22.5511 142.386C21.9496 142.02 21.8203 140.405 21.8203 140.405Z" fill="#A8A8A8"/>
<path opacity="0.2" d="M28.4257 142.865C26.177 142.882 23.1882 142.512 22.5886 142.146C22.1314 141.868 21.9477 140.865 21.8878 140.403H21.8203C21.8203 140.403 21.9477 142.018 22.5474 142.384C23.147 142.751 26.1321 143.121 28.3844 143.102C29.0347 143.102 29.2595 142.865 29.2483 142.522C29.1583 142.732 28.9091 142.861 28.4257 142.865Z" fill="black"/>
<path d="M139.33 85.6494C136.641 72.3694 125.117 62.3643 111.097 62.3643C99.9568 62.3643 90.3533 68.7151 85.5506 77.9503C74.0264 79.1052 65 88.9206 65 100.86C65 113.562 75.3699 123.957 88.0484 123.957H137.987C148.55 123.957 157.194 115.295 157.194 104.71C157.214 99.8456 155.373 95.1589 152.051 91.6136C148.728 88.0682 144.176 85.9338 139.33 85.6494ZM117.241 97.001V111.629H104.949V97.001H91.888L111.095 77.7625L130.302 97.0104L117.241 97.001Z" fill="#32A52F"/>
<path d="M77.5747 46.1832C76.758 42.0866 73.258 39.0002 69 39.0002C65.6166 39.0002 62.7 40.9593 61.2414 43.8082C57.7414 44.1644 55 47.1923 55 50.8752C55 54.7934 58.1494 58.0002 62 58.0002H77.1666C80.3747 58.0002 83 55.3281 83 52.0627C83.0061 50.5624 82.4471 49.1166 81.438 48.023C80.4288 46.9293 79.0462 46.2709 77.5747 46.1832Z" fill="#BCC1CB"/>
<path d="M154.094 29.7807C153.656 27.6246 151.781 26.0002 149.5 26.0002C147.687 26.0002 146.125 27.0313 145.344 28.5307C143.469 28.7182 142 30.3118 142 32.2502C142 34.3124 143.687 36.0002 145.75 36.0002H153.875C155.594 36.0002 157 34.5938 157 32.8752C157.003 32.0856 156.704 31.3247 156.163 30.749C155.623 30.1734 154.882 29.8269 154.094 29.7807Z" fill="#BCC1CB"/>
<path d="M115.094 10.7807C114.656 8.62463 112.781 7.00024 110.5 7.00024C108.687 7.00024 107.125 8.03134 106.344 9.53073C104.469 9.71823 103 11.3118 103 13.2502C103 15.3124 104.687 17.0002 106.75 17.0002H114.875C116.594 17.0002 118 15.5938 118 13.8752C118.003 13.0856 117.704 12.3247 117.163 11.749C116.623 11.1734 115.882 10.8269 115.094 10.7807Z" fill="#BCC1CB"/>
<path d="M97.4499 35.8905C97.2166 34.8124 96.2166 34.0002 95 34.0002C94.0333 34.0002 93.2 34.5158 92.7832 35.2655C91.7833 35.3592 91 36.156 91 37.1252C91 38.1563 91.8998 39.0002 93 39.0002H97.3333C98.2499 39.0002 99 38.297 99 37.4377C99.0017 37.0429 98.842 36.6624 98.5537 36.3746C98.2654 36.0868 97.8704 35.9136 97.4499 35.8905Z" fill="#BCC1CB"/>
<path d="M39.4499 22.8905C39.2166 21.8124 38.2166 21.0002 37 21.0002C36.0333 21.0002 35.2 21.5158 34.7832 22.2655C33.7833 22.3592 33 23.156 33 24.1252C33 25.1563 33.8998 26.0002 35 26.0002H39.3333C40.2499 26.0002 41 25.297 41 24.4377C41.0017 24.0429 40.842 23.6624 40.5537 23.3746C40.2654 23.0868 39.8704 22.9136 39.4499 22.8905Z" fill="#BCC1CB"/>
<path d="M152.45 59.8905C152.217 58.8124 151.217 58.0002 150 58.0002C149.033 58.0002 148.2 58.5158 147.783 59.2655C146.783 59.3592 146 60.156 146 61.1252C146 62.1563 146.9 63.0002 148 63.0002H152.333C153.25 63.0002 154 62.297 154 61.4377C154.002 61.0429 153.842 60.6624 153.554 60.3746C153.265 60.0868 152.87 59.9136 152.45 59.8905Z" fill="#BCC1CB"/>
<g opacity="0.1">
<path opacity="0.1" d="M71.2422 0.170437L71.2722 0.153536C71.2646 0.115038 71.259 0.0761791 71.2553 0.0371094C71.2544 0.0452218 71.2544 0.0534097 71.2553 0.0615222C71.249 0.0975653 71.2446 0.133923 71.2422 0.170437Z" fill="black"/>
</g>
<path d="M168 116.014C168 129.285 176.308 140.025 186.575 140.025L168 116.014Z" fill="#46455B"/>
<path d="M186.575 140.025C186.575 126.603 195.845 115.745 207.304 115.745L186.575 140.025Z" fill="#32A52F"/>
<path d="M174.73 117.21C174.73 129.817 180.027 140.018 186.576 140.018L174.73 117.21Z" fill="#32A52F"/>
<path d="M186.575 140.025C186.575 122.876 197.291 109 210.535 109L186.575 140.025Z" fill="#46455B"/>
<path d="M182.666 140.187C182.666 140.187 185.3 140.106 186.094 139.539C186.889 138.973 190.147 138.296 190.344 139.205C190.54 140.114 194.303 143.723 191.329 143.748C188.356 143.772 184.419 143.284 183.626 142.804C182.833 142.323 182.666 140.187 182.666 140.187Z" fill="#A8A8A8"/>
<path opacity="0.1" d="M126.096 92.7647V88.2016L128.194 90.3047L128.719 89.7602L125.721 86.7556L122.723 89.7602L123.247 90.2841L125.346 88.2016V92.7647H126.096Z" fill="#32A52F"/>
<path opacity="0.1" d="M80.7489 107.787V103.224L82.8476 105.327L83.3723 104.783L80.3741 101.778L77.376 104.783L77.9007 105.307L79.9994 103.224V107.787H80.7489Z" fill="#32A52F"/>
<path opacity="0.1" d="M114.103 121.12V116.557L116.202 118.66L116.727 118.115L113.729 115.111L110.73 118.115L111.255 118.639L113.354 116.557V121.12H114.103Z" fill="#32A52F"/>
</svg>
