<svg width="204" height="119" viewBox="0 0 204 119" fill="none" xmlns="http://www.w3.org/2000/svg">
<path d="M185.098 48.7522C207.402 91.4775 149.453 113 94.763 113C40.0728 113 -0.448303 97.9769 8.15458 72.6187C25.2542 40.8678 38.1354 99.6818 109.796 48.7522C131.994 32.9763 160.989 11.2478 185.098 48.7522Z" fill="#F2F4F8"/>
<path d="M101.822 113.623C152.137 113.623 192.925 112.58 192.925 111.294C192.925 110.007 152.137 108.964 101.822 108.964C51.5071 108.964 10.7187 110.007 10.7187 111.294C10.7187 112.58 51.5071 113.623 101.822 113.623Z" fill="#3F3D56"/>
<path d="M120.148 108.936L79.8582 108.936C79.8582 108.936 79.0468 97.1101 83.8643 96.9598C88.7071 96.8345 88.1493 102.196 94.2092 94.8051C100.269 87.414 107.622 87.8149 108.56 92.1744C109.524 96.5339 106.735 100.042 111.831 98.9642C116.953 97.9119 124.281 100.743 120.148 108.936Z" fill="#099929"/>
<path fill-rule="evenodd" clip-rule="evenodd" d="M27.8595 41.2783C26.9717 40.2326 26.3708 38.951 26.4712 37.5149C26.7605 33.3773 32.5003 34.2875 33.6168 36.3758C34.7333 38.4642 34.6006 43.7614 33.1577 44.1346C32.5822 44.2835 31.3563 43.9189 30.1086 43.1642L30.8917 48.7239L26.2676 48.7239L27.8595 41.2783Z" fill="#915B3C"/>
<path fill-rule="evenodd" clip-rule="evenodd" d="M31.7901 34.1014C31.1582 33.9081 30.241 33.8425 29.8551 33.8869C30.0746 33.3592 30.1617 32.7712 30.0907 32.1988C30.0217 31.6425 29.774 31.1689 29.5449 30.6726C29.4393 30.4438 29.3196 30.2163 29.1412 30.0413C28.9595 29.863 28.7294 29.7453 28.4882 29.6892C28.2413 29.6317 27.9831 29.6365 27.7359 29.6887C27.6265 29.7117 27.5283 29.7619 27.4211 29.7898C27.3112 29.8184 27.2579 29.7494 27.1782 29.6801C26.986 29.513 26.7043 29.4305 26.4612 29.401C26.1884 29.3679 25.9054 29.4092 25.6453 29.4992C25.3921 29.5867 25.1489 29.729 24.9658 29.9362C24.8843 30.0284 24.8103 30.1334 24.7622 30.2493C24.7425 30.2969 24.7392 30.3251 24.6919 30.3425C24.6482 30.3586 24.597 30.3591 24.5519 30.3744C24.1153 30.5228 23.742 30.8613 23.5388 31.2959C23.4202 31.5495 23.3641 31.9959 23.3794 32.4962C23.3948 32.9966 23.8451 34.3021 24.2661 34.7783C24.642 35.2034 25.1945 35.4839 25.7277 35.6067C25.3738 36.0126 25.1382 36.5199 24.964 37.0357C24.7748 37.5961 24.6577 38.1784 24.6144 38.7717C24.5733 39.3353 24.5695 39.9314 24.7012 40.4831C24.8244 40.9989 25.0878 41.4221 25.5276 41.6906C25.7291 41.8136 25.9458 41.906 26.1638 41.9904C26.3787 42.0736 26.5942 42.1545 26.8192 42.2012C27.2452 42.2896 27.7359 42.2744 28.064 41.9342C28.1823 41.8116 28.3123 41.6575 28.3986 41.5076C28.4296 41.4538 28.4483 41.4185 28.4107 41.3658C28.3655 41.3028 28.2925 41.2544 28.2345 41.2051C27.9037 40.9238 27.699 40.5482 27.6474 40.1018C27.595 39.649 27.7163 39.0644 28.1551 38.8668C28.6967 38.6228 29.2932 38.9028 29.7746 39.1639C29.9792 38.4393 30.3993 37.7868 31.0579 37.4545C31.7865 37.0868 32.6227 37.0437 33.3715 36.7282C33.5666 36.646 33.7653 36.5527 33.909 36.3852C33.969 36.3152 34.0395 36.2243 34.0634 36.1317C34.0949 36.0101 34.0167 35.9081 33.9564 35.8133C33.6362 35.3105 32.4219 34.2948 31.7901 34.1014Z" fill="#193434"/>
<path fill-rule="evenodd" clip-rule="evenodd" d="M25.1113 64.7715L39.4282 88.79L50.1618 109.096L52.4737 109.096L34.4895 64.7715L25.1113 64.7715Z" fill="#784931"/>
<path fill-rule="evenodd" clip-rule="evenodd" d="M48.7472 108.158C48.5316 108.736 48.4238 109.168 48.4238 109.454C48.4238 109.803 48.4817 110.312 48.5975 110.981C49.0005 110.981 52.6229 110.981 59.4646 110.981C59.747 110.044 59.584 109.538 58.9756 109.463C58.3672 109.389 57.8617 109.321 57.4593 109.261L52.4083 107.001C52.3111 106.958 52.1972 107.002 52.1539 107.099C52.1532 107.101 52.1524 107.103 52.1517 107.104L51.8271 107.895C51.2638 108.158 50.8061 108.29 50.454 108.29C50.1679 108.29 49.7727 108.174 49.2686 107.942L49.2686 107.942C49.0751 107.853 48.8464 107.939 48.7577 108.133C48.7539 108.141 48.7504 108.15 48.7472 108.158Z" fill="#E4E4E4"/>
<path fill-rule="evenodd" clip-rule="evenodd" d="M47.1805 105.844L51.639 104.491C49.6856 98.6307 47.2915 92.1822 44.4566 85.1449C41.6217 78.1077 38.5771 71.3165 35.3228 64.7715L22.7305 64.7715C26.3485 73.0507 30.1841 80.5733 34.2373 87.3395C38.2905 94.1057 42.6049 100.274 47.1805 105.844Z" fill="#3F3D56"/>
<path fill-rule="evenodd" clip-rule="evenodd" d="M24.1699 64.7715C22.8187 73.2117 20.2125 83.9951 19.9666 84.3279C19.8026 84.5498 13.8997 86.5347 2.25781 90.2826L2.75721 92.3283C16.6401 90.3183 23.9552 88.7588 24.7025 87.6499C25.8235 85.9866 31.4206 72.8461 33.5885 64.7715L24.1699 64.7715Z" fill="#915B3C"/>
<path fill-rule="evenodd" clip-rule="evenodd" d="M6.34961 88.5142L7.22925 91.809C17.6129 92.7229 23.9751 92.0626 26.316 89.828C28.657 87.5935 31.3249 79.2413 34.3199 64.7715L22.3124 64.7715C20.4148 76.6203 19.3539 82.7934 19.1298 83.2909C18.9056 83.7883 14.6456 85.5294 6.34961 88.5142Z" fill="#757980"/>
<path fill-rule="evenodd" clip-rule="evenodd" d="M2.83077 89.4309C2.22615 89.3185 1.78302 89.2873 1.50138 89.3372C1.15885 89.398 0.66904 89.5438 0.0319473 89.7747C0.101774 90.1729 0.729323 93.752 1.91459 100.512C2.88391 100.628 3.35256 100.379 3.32055 99.7644C3.28853 99.1502 3.26723 98.6391 3.25665 98.231L4.60151 92.8468C4.62739 92.7432 4.56461 92.6382 4.46128 92.6124C4.45952 92.612 4.45774 92.6116 4.45596 92.6112L3.62328 92.4281C3.26662 91.9175 3.05779 91.4882 2.99678 91.1403C2.94721 90.8576 2.99268 90.447 3.13318 89.9085L3.13318 89.9085C3.1871 89.7018 3.06373 89.4907 2.85764 89.4369C2.84876 89.4346 2.8398 89.4326 2.83077 89.4309Z" fill="#E4E4E4"/>
<path d="M41.0507 52.1644L40.2324 50.1126L44.0509 48.3345L44.7328 50.3862L41.0507 52.1644Z" fill="#915B3C"/>
<path fill-rule="evenodd" clip-rule="evenodd" d="M31.6105 51.9075C33.9529 51.8826 37.0766 51.3862 40.4096 49.2632L41.7185 52.1923C39.4195 54.4818 36.1869 56.3629 33.3604 56.2833C31.1329 56.2205 29.9945 53.5168 31.6105 51.9075Z" fill="#7AA329"/>
<path d="M149.968 75.0365L148.239 78.4667L142.023 75.3422C140.743 75.6073 137.65 75.3722 138.022 74.8571C138.395 74.342 139.302 74.5921 139.329 73.9564C139.355 73.3207 136.597 70.9771 137.76 71.0256C138.088 71.0392 140.978 72.4332 142.102 73.4352L149.968 75.0365Z" fill="#B28B67"/>
<path d="M179.444 101.999L173.148 98.9897L171.889 101.33L179.129 104.673L179.444 101.999Z" fill="#B28B67"/>
<path d="M91.6115 53.9943C106.738 53.9943 119 41.9073 119 26.9972C119 12.087 106.738 -5.55785e-09 91.6115 -3.58043e-09C76.4851 -1.60301e-09 64.2227 12.087 64.2227 26.9972C64.2227 41.9073 76.4851 53.9943 91.6115 53.9943Z" fill="#32A52F"/>
<path d="M93.9714 108.936L88.3047 108.936L90.8932 23.208L93.9714 108.936Z" fill="#152B2B"/>
<path d="M91.4416 39.6191L97.7513 31.26L91.369 41.68L90.668 40.5222L91.4416 39.6191Z" fill="#152B2B"/>
<path d="M90.8891 48.1445L85 39.7854L90.9568 50.2054L91.6111 49.0476L90.8891 48.1445Z" fill="#152B2B"/>
<path d="M94.045 64.3533L91.3359 65.9128L92.1525 67.323L94.8615 65.7634L94.045 64.3533Z" fill="#152B2B"/>
<path fill-rule="evenodd" clip-rule="evenodd" d="M166.944 62.526C167.605 61.253 167.918 59.8083 167.481 58.3729C166.222 54.2372 160.588 56.5224 159.937 58.909C159.286 61.2956 160.656 66.6467 162.212 66.684C162.833 66.6989 163.997 66.0378 165.092 64.9753L165.59 70.8102L170.301 69.7143L166.944 62.526Z" fill="#B28B67"/>
<path fill-rule="evenodd" clip-rule="evenodd" d="M162.047 55.8445C162.644 55.5985 164.297 55.1403 164.605 55.0687C164.802 55.0229 165.025 55.0184 165.1 54.8104C165.162 54.6401 165.069 54.3978 165.058 54.2193C165.046 54.012 165.047 53.804 165.05 53.5964C165.057 53.0056 165.139 52.4259 165.311 51.8598C165.632 50.7977 166.25 49.8806 167.145 49.2225C168.133 48.4958 169.349 48.0993 170.55 47.9208C171.835 47.7297 173.073 47.881 174.355 47.9963C175.576 48.1062 176.799 47.9769 177.944 47.5181C179.099 47.0559 179.854 46.1966 180.722 45.3458C181.61 44.4749 182.696 43.7878 183.939 43.5986C185.1 43.422 186.258 43.6489 187.346 44.0591C188.363 44.4429 189.253 44.9822 189.893 45.8839C190.581 46.8538 190.851 48.0314 190.341 49.1485C189.603 50.7677 187.728 51.5779 186.093 51.921C185.147 52.1195 184.183 52.1625 183.223 52.0563C181.942 51.9146 180.756 51.4456 179.515 51.1296C178.933 50.9814 178.345 50.8853 177.744 50.8571C177.162 50.8297 176.607 50.884 176.187 51.33C175.744 51.8018 175.353 52.2547 174.804 52.6132C174.277 52.9571 173.695 53.2163 173.081 53.354C171.887 53.622 170.627 53.5234 169.412 53.5437C168.421 53.5602 167.365 53.5927 166.447 54.0117C166.064 54.1866 165.516 54.4911 165.467 54.9427C168.01 54.8178 169.662 57.6172 169.483 59.9959C169.386 61.2798 167.475 63.1989 166.462 62.7713C165.82 62.5004 166.034 61.8991 166.171 61.5032C166.433 60.745 166.379 59.8618 165.508 59.5791C164.756 59.3352 164.278 60.4406 164.265 60.4426C164.08 60.4705 162.307 59.9473 160.929 58.9027C159.878 59.2139 159.554 58.5478 159.677 57.913C159.799 57.2783 161.222 56.1844 162.047 55.8445Z" fill="#193434"/>
<path fill-rule="evenodd" clip-rule="evenodd" d="M170.835 100.359C171.473 100.3 171.935 100.31 172.222 100.389C172.571 100.485 173.065 100.683 173.702 100.984C173.591 101.391 172.689 102.878 170.795 109.791C170.104 109.81 167.762 109.841 167.762 109.841C167.361 109.789 167.101 109.045 167.131 108.841C167.046 108.888 168.98 107.989 169.031 107.566L168.664 103.741C168.647 103.631 168.723 103.528 168.832 103.511C168.834 103.51 168.836 103.51 168.838 103.51L169.719 103.399C170.139 102.902 170.398 102.476 170.495 102.12C170.574 101.831 170.568 101.4 170.475 100.827C170.44 100.607 170.588 100.399 170.807 100.363C170.816 100.361 170.826 100.36 170.835 100.359Z" fill="#E4E4E4"/>
<path fill-rule="evenodd" clip-rule="evenodd" d="M162.829 101.291C163.917 100.797 164.921 100.348 165.783 99.9816C171.355 97.6117 172.335 94.1066 169.776 87.5509L159.079 90.039C157.447 90.9479 149.241 96.8727 144.994 99.9964C142.184 102.064 144.276 106.673 146.331 107.522C146.359 107.597 146.402 107.642 146.464 107.652C156.868 109.384 163.909 105.568 166.571 105.645L166.891 101.708L162.829 101.291Z" fill="#193434"/>
<path fill-rule="evenodd" clip-rule="evenodd" d="M171.364 98.8009C172.452 98.3071 173.456 97.8587 174.319 97.4918C179.89 95.122 180.87 91.6168 178.312 85.0612L167.614 87.5492C165.982 88.4582 157.776 94.3829 153.529 97.5067C150.719 99.5741 152.812 104.184 154.866 105.032C154.894 105.107 154.937 105.152 154.999 105.162C165.403 106.895 172.444 103.079 175.106 103.155L175.426 99.2182L171.364 98.8009Z" fill="#244C4C"/>
<path fill-rule="evenodd" clip-rule="evenodd" d="M178.505 101.322C179.144 101.264 179.607 101.274 179.894 101.353C180.243 101.449 180.737 101.648 181.376 101.949C181.265 102.356 180.364 103.842 178.473 110.753C177.782 110.771 175.437 110.801 175.437 110.801C175.035 110.748 174.774 110.003 174.804 109.8C174.719 109.846 176.655 108.95 176.706 108.527L176.334 104.702C176.318 104.592 176.393 104.489 176.503 104.472C176.505 104.471 176.507 104.471 176.508 104.471L177.39 104.361C177.81 103.865 178.069 103.439 178.166 103.083C178.245 102.794 178.238 102.363 178.145 101.79C178.109 101.57 178.258 101.362 178.477 101.326C178.486 101.325 178.496 101.323 178.505 101.322Z" fill="#E4E4E4"/>
<path fill-rule="evenodd" clip-rule="evenodd" d="M169.158 67.0417L167.602 66.2114C162.851 68.5252 159.229 75.4509 156.466 75.7724C153.854 76.0763 148.593 74.6981 144.805 72.3879L144.741 76.7722C146.961 81.688 153.513 85.1415 157.106 84.3145C162.852 82.9921 167.388 72.978 169.158 67.0417Z" fill="#267E24"/>
<path fill-rule="evenodd" clip-rule="evenodd" d="M179.164 86.7041C172.361 88.2865 167.357 89.4506 164.152 90.1961C163.466 90.3557 163.368 89.3339 163.352 88.8104C163.172 82.7687 166.211 75.5038 164.326 67.2825L168.5 65.5954C173.404 70.5295 176.271 77.342 179.164 86.7041Z" fill="white"/>
<path d="M167.06 65.9335L168.726 65.5461C171.135 68.1105 176.627 74.6944 179.319 80.5149C181.022 83.6263 182.491 86.882 183.446 90.0617L169.929 93.2056C167.172 89.1979 166.216 80.1072 167.06 65.9335Z" fill="#32A52F"/>
<path d="M121.834 81.4539L124.134 84.2215L124.675 83.8581L122.646 81.4539C125.577 78.8354 131.671 73.4363 132.602 72.7877C133.765 71.977 134.468 71.6974 137.039 72.1447C138.472 72.3943 139.844 75.3744 139.96 76.1703C140.177 77.6519 140.465 80.2518 140.745 82.7398L142.612 84.7806C142.161 82.423 141.156 77.2606 140.745 75.4714C140.231 73.235 138.932 72.2845 137.039 71.362C135.524 70.6239 133.44 71.362 132.98 71.6974L121.834 81.4539Z" fill="#858891"/>
<path d="M116.432 90.4641L118.529 92.2669L118.529 94.6799L116.432 96.6213C116.186 96.2146 115.695 95.0571 115.695 93.6814C115.695 92.3057 116.186 90.9633 116.432 90.4641Z" fill="#C4C4C4"/>
<path d="M118.527 91.6102L129.109 90.9377L133.166 95.6741L118.527 94.8555L118.527 91.6102Z" fill="#858891"/>
<path d="M133.271 98.516L123.723 84.1398L133.907 75.3079L146.389 87.5666L133.271 98.516Z" fill="#C4C4C4"/>
<line x1="1.5" y1="-1.5" x2="13.5175" y2="-1.5" transform="matrix(0.763284 -0.646063 0.643815 0.765182 124.941 86.9788)" stroke="#858891" stroke-width="3" stroke-linecap="round"/>
<line x1="1.5" y1="-1.5" x2="14.0403" y2="-1.5" transform="matrix(0.766392 -0.642374 0.640119 0.768276 126.172 88.6052)" stroke="#858891" stroke-width="3" stroke-linecap="round"/>
<path d="M44.3887 34.0223C45.9545 32.6146 47.2593 35.7115 49.086 35.5226C46.2154 38.527 45.3133 34.3038 44.3887 34.0223Z" fill="#99CC33"/>
<path d="M50.1299 34.5854C50.2716 33.7407 53.2615 34.5854 54.3053 34.8669C51.9566 36.8377 50.6518 36.2746 50.1299 34.5854Z" fill="#99CC33"/>
<path d="M47.9516 41.0609C48.0933 40.2162 51.6957 40.7793 53.0005 39.6531C51.6957 43.5948 48.8251 41.9055 47.9516 41.0609Z" fill="#99CC33"/>
<path d="M49.3069 30.2685C48.9556 29.5283 46.7474 29.5441 45.4426 28.418C46.7474 32.3596 48.253 31.7489 49.3069 30.2685Z" fill="#99CC33"/>
<path d="M44.3887 34.0223C45.9545 32.6146 47.2593 35.7115 49.086 35.5226C46.2154 38.527 45.3133 34.3038 44.3887 34.0223Z" stroke="black"/>
<path d="M50.1299 34.5854C50.2716 33.7407 53.2615 34.5854 54.3053 34.8669C51.9566 36.8377 50.6518 36.2746 50.1299 34.5854Z" stroke="black"/>
<path d="M47.9516 41.0609C48.0933 40.2162 51.6957 40.7793 53.0005 39.6531C51.6957 43.5948 48.8251 41.9055 47.9516 41.0609Z" stroke="black"/>
<path d="M49.3069 30.2685C48.9556 29.5283 46.7474 29.5441 45.4426 28.418C46.7474 32.3596 48.253 31.7489 49.3069 30.2685Z" stroke="black"/>
<path d="M55.7218 44.5217L42.0273 44.5217L45.0706 53.5208L53.059 53.5208L55.7218 44.5217Z" fill="#858891"/>
<path d="M50.1503 45.9424L49.0167 45.9424C48.1666 43.9953 46.4666 39.6628 47.6002 37.9104C49.0171 35.7198 50.6226 34.2595 50.6226 33.5293C50.6226 31.3387 48.8278 29.6349 48.1666 28.418C49.1112 29.5132 51.0004 32.0689 51.0004 33.5293C51.0004 35.3547 48.2614 37.1802 47.978 38.6406C47.7513 39.8089 49.3946 43.9953 50.1503 45.9424Z" fill="#244C4C"/>
<path d="M42.0273 44.0481L42.773 46.8899L49.1107 46.8899L55.4484 46.8899L56.194 44.0481L42.0273 44.0481Z" fill="#C4C4C4"/>
<path d="M52.4158 34.5754L50.645 34.5754L50.0547 34.5754L50.645 34.1018L52.4158 34.5754Z" fill="#244C4C"/>
<path d="M45.8062 34.5752L47.9312 35.9961L49.3479 35.854L49.584 35.4751L48.0583 35.6646L45.8062 34.5752Z" fill="#244C4C"/>
<path d="M50.9993 41.2061L48.8743 41.2061L48.166 41.2061L48.4316 40.7324L50.9993 41.2061Z" fill="#244C4C"/>
<path d="M46.962 58.5678L46.1487 55.8318L48.4493 54.2926C48.626 53.4595 49.1353 51.7467 49.7588 51.5603C50.5381 51.3272 49.3757 53.4836 50.3397 53.5146C51.3036 53.5455 54.3461 50.9333 54.5494 51.6173C54.7527 52.3013 53.6484 54.6531 53.0142 55.3748C52.3801 56.0964 49.7703 56.2384 49.3122 56.4818C48.9458 56.6765 47.5927 57.9536 46.962 58.5678Z" fill="#915B3C"/>
<path fill-rule="evenodd" clip-rule="evenodd" d="M34.7698 56.631C37.3041 57.2521 41.5539 56.5197 47.5193 54.4338C48.999 57.4418 49.683 59.5863 49.5713 60.8672C44.4539 63.494 40.0678 64.6651 36.4543 64.7424C36.5691 66.8493 36.3081 68.8541 35.4314 70.6859C33.629 74.4518 23.0752 70.9641 19.5266 71.6506C17.3044 64.5591 21.6011 61.6771 21.6046 57.1395C21.6083 52.1704 25.6688 44.5217 26.2663 44.5217L31.7144 44.5217C32.015 48.3167 33.5281 52.4991 34.7698 56.631Z" fill="#99CC33"/>
<path d="M101.052 110.83L61.0184 110.83C61.0184 110.83 57.821 102.432 62.608 102.28C67.4201 102.153 67.1146 104.796 73.1361 97.3148C79.1575 89.8336 84.9196 97.8671 85.8518 102.28C86.8092 106.692 89.4016 105.439 94.4657 104.348C99.555 103.283 105.159 102.538 101.052 110.83Z" fill="#99CC33"/>
<path d="M155.622 91.0946L155.687 87.3001L149.16 87.5408C148.214 86.7744 145.543 85.7089 145.627 86.3252C145.711 86.9414 146.574 87.0916 146.318 87.6734C146.061 88.2552 142.747 89.2217 143.734 89.6584C144.012 89.7816 147.021 89.7224 148.392 89.2863L155.622 91.0946Z" fill="#B28B67"/>
<path fill-rule="evenodd" clip-rule="evenodd" d="M169.857 69.4881L168.002 69.5949C164.986 74.2782 165.49 83.732 163.177 85.5353C160.99 87.2403 156.76 87.3817 152.292 86.8529L154.511 90.6694C159.196 93.8688 165.991 92.7439 168.777 90.0307C173.231 85.6929 171.505 75.7917 169.857 69.4881Z" fill="#32A52F"/>
</svg>
