<svg width="192" height="105" viewBox="0 0 192 105" fill="none" xmlns="http://www.w3.org/2000/svg">
<path fill-rule="evenodd" clip-rule="evenodd" d="M158.941 12.3552C160.064 11.0353 160.825 9.41786 160.697 7.60544C160.331 2.38335 153.07 3.53214 151.657 6.1678C150.244 8.80347 150.412 15.489 152.238 15.9601C152.966 16.148 154.517 15.6878 156.095 14.7354L155.105 21.7522L160.955 21.7522L158.941 12.3552Z" fill="#B28B67"/>
<path fill-rule="evenodd" clip-rule="evenodd" d="M155.801 8.1822C155.577 11.3049 154.985 12.8663 154.024 12.8663C152.583 12.8663 151.36 11.9503 150.727 11.9503C150.266 11.9503 150.369 12.5279 150.675 12.956C150.927 13.3093 152.155 13.6498 152.155 14.1975C152.155 14.7452 151.185 14.3215 151.185 14.6463C151.185 15.1836 151.014 16.1938 151.946 16.1938C152.889 16.1938 155.592 15.8499 156.055 14.4492C156.354 13.5452 156.547 11.672 156.635 8.82965C156.692 8.82284 156.75 8.81934 156.809 8.81934C157.617 8.81934 158.272 9.47484 158.272 10.2834C158.272 10.6939 158.103 11.065 157.831 11.3308C158.17 11.809 158.549 12.3085 158.984 12.824C160.616 11.8434 161.828 8.97282 160.232 6.21526C159.79 4.86437 158.792 4.14281 157.612 3.80776C156.656 3.40762 155.664 3.36251 154.827 3.60239C153.185 3.74333 151.72 4.24438 151.304 4.54195C151.304 6.09761 151.605 6.55917 154.177 6.51849C154.809 6.85259 155.295 7.42792 155.801 8.1822Z" fill="#273752"/>
<path fill-rule="evenodd" clip-rule="evenodd" d="M162.904 42.0059L154.066 73.0515L147.618 95.9338L142.915 95.9338L149.767 42.0059L162.904 42.0059Z" fill="#273752"/>
<path fill-rule="evenodd" clip-rule="evenodd" d="M165.267 42.0059C165.471 58.0071 166.169 66.7346 166.383 68.1884C166.598 69.6422 169.843 78.8907 176.119 95.9337L171.247 95.9337C163.257 79.5838 158.797 70.3354 157.867 68.1884C156.936 66.0415 154.065 57.314 149.74 42.0059L165.267 42.0059Z" fill="#435D87"/>
<path fill-rule="evenodd" clip-rule="evenodd" d="M176.555 100.326L176.311 95.2017L171.192 95.2017C168.764 96.9098 165.595 98.2925 161.685 99.35L161.685 100.326L170.948 100.326L174.117 99.838L174.117 100.326L176.555 100.326Z" fill="#191847"/>
<path fill-rule="evenodd" clip-rule="evenodd" d="M148.277 100.326L148.034 95.2017L142.914 95.2017C140.487 96.9098 137.318 98.2926 133.407 99.35L133.407 100.326L142.671 100.326L145.84 99.838L145.84 100.326L148.277 100.326Z" fill="#191847"/>
<path d="M130.945 28.2249L130.679 23.7965L122.847 23.9718C121.654 23.2031 119.236 22.0321 118.604 22.0902C117.945 22.1509 118.778 22.7956 119.128 23.3582C119.258 23.5673 119.313 23.8242 119.206 24.125C118.873 25.0643 115.507 26.0102 116.444 26.3784C117.193 26.6729 120.544 26.3344 122.125 26.1283L130.945 28.2249Z" fill="#B28B67"/>
<path d="M60.8226 36.2249L61.0886 31.7965L68.9207 31.9718C70.1139 31.2031 72.5317 30.0321 73.1633 30.0902C73.823 30.1509 72.9893 30.7956 72.6394 31.3582C72.5093 31.5673 72.4545 31.8242 72.5611 32.125C72.8941 33.0643 76.2605 34.0102 75.3237 34.3784C74.5743 34.6729 71.2239 34.3344 69.6424 34.1283L60.8226 36.2249Z" fill="#B28B67"/>
<path fill-rule="evenodd" clip-rule="evenodd" d="M159.042 20.0543L157.696 17.576C148.846 21.7083 138.897 24.4044 127.233 23.619L126.224 27.9671C135.223 29.9931 143.198 32.4913 150.231 29.4541C152.591 28.4348 157.174 22.1695 159.042 20.0543Z" fill="#C5CFD6"/>
<path fill-rule="evenodd" clip-rule="evenodd" d="M166.805 43.2258C159.141 44.0392 153.109 44.0392 148.708 43.2258C148.163 43.125 148.077 42.2112 148.33 41.5911C152.267 31.9337 154.967 23.5071 154.967 16.7993C155.69 17.1639 156.954 17.2186 158.76 16.9632C163.615 23.8758 165.846 31.8072 166.805 43.2258Z" fill="#3F3D56"/>
<path fill-rule="evenodd" clip-rule="evenodd" d="M159.967 16.3836L157.944 16.3836C157.473 19.1569 155.987 56.7106 151.4 68.9953L176.217 68.9953C175.679 57.7415 171.435 44.223 167.136 32.9105C170.937 36.393 174.251 42.2937 177.076 50.6126L181.725 49.4182C178.268 34.5095 171.162 23.5516 160.406 16.5445C160.383 16.4906 160.36 16.437 160.337 16.3836L160.158 16.3836C160.092 16.3413 160.026 16.2991 159.96 16.2571L159.967 16.3836Z" fill="#DDE3E9"/>
<path d="M178.982 43.439L177.89 43.439C177.071 41.5232 175.434 37.2606 176.526 35.5363C177.89 33.3811 180.866 28.5574 180.866 27.839C180.866 25.6837 178.527 18.6363 177.89 17.439C178.8 18.5166 181.23 26.4021 181.23 27.839C181.23 29.635 177.163 34.8179 176.89 36.2548C176.671 37.4042 178.254 41.5232 178.982 43.439Z" fill="#99CC33"/>
<path d="M184.399 43.7561L171.412 43.7561L174.298 52.6341L181.874 52.6341L184.399 43.7561Z" fill="#858891"/>
<path d="M171.094 42.8049L171.811 45.6586L177.904 45.6586L183.997 45.6586L184.714 42.8049L171.094 42.8049Z" fill="#C4C4C4"/>
<path d="M177.113 18.3902C177.988 18.3902 178.697 17.6804 178.697 16.8048C178.697 15.9293 177.988 15.2195 177.113 15.2195C176.238 15.2195 175.529 15.9293 175.529 16.8048C175.529 17.6804 176.238 18.3902 177.113 18.3902Z" fill="#099929"/>
<path d="M182.34 24.7318C183.302 24.7318 184.082 24.022 184.082 23.1464C184.082 22.2708 183.302 21.561 182.34 21.561C181.378 21.561 180.598 22.2708 180.598 23.1464C180.598 24.022 181.378 24.7318 182.34 24.7318Z" fill="#3F3D56"/>
<path d="M178.537 29.1706C179.499 29.1706 180.279 28.3188 180.279 27.2682C180.279 26.2175 179.499 25.3657 178.537 25.3657C177.575 25.3657 176.795 26.2175 176.795 27.2682C176.795 28.3188 177.575 29.1706 178.537 29.1706Z" fill="#099929"/>
<path d="M182.975 32.6585C183.937 32.6585 184.717 31.8777 184.717 30.9146C184.717 29.9514 183.937 29.1707 182.975 29.1707C182.012 29.1707 181.232 29.9514 181.232 30.9146C181.232 31.8777 182.012 32.6585 182.975 32.6585Z" fill="#099929"/>
<path d="M191.999 52.634L75.752 52.634L75.752 100.829L191.999 100.829L191.999 52.634Z" fill="#C5C5C5"/>
<path fill-rule="evenodd" clip-rule="evenodd" d="M28.4824 47.1628L37.1848 77.1812L41.278 99.7194L45.3863 99.7194L41.2853 47.1628L28.4824 47.1628Z" fill="#997659"/>
<path fill-rule="evenodd" clip-rule="evenodd" d="M24.5717 47.1628C25.179 62.7572 24.9395 71.2628 24.8036 72.6796C24.6677 74.0965 23.8962 83.5854 18.6387 100.195L22.9117 100.195C29.8743 84.2609 32.3049 74.772 33.1035 72.6796C33.9021 70.5873 36.2606 62.0817 39.7039 47.1628L24.5717 47.1628Z" fill="#B28B67"/>
<path fill-rule="evenodd" clip-rule="evenodd" d="M28.2949 47.1628C30.5585 57.4922 34.4736 73.9806 40.0402 96.6279L46.0491 96.6279C46.4929 73.3826 44.6049 58.0833 41.3354 47.1628L28.2949 47.1628Z" fill="#193434"/>
<path fill-rule="evenodd" clip-rule="evenodd" d="M24.5408 47.1628C25.1355 62.7572 23.5943 78.1207 18.8203 96.8707L25.2314 96.8707C32.2069 81.1743 37.2064 65.8867 40.6233 47.1628L24.5408 47.1628Z" fill="#244C4C"/>
<path fill-rule="evenodd" clip-rule="evenodd" d="M18.0293 103.286L18.2651 99.4815C19.6455 99.8856 21.3744 99.7271 23.452 99.0059C25.6859 100.59 28.4981 101.671 31.8885 102.251L31.8885 102.251C32.1472 102.295 32.3211 102.541 32.2769 102.799C32.2741 102.816 32.2703 102.833 32.2657 102.849L31.9397 104L23.452 104L18.5008 104L18.0293 103.286Z" fill="#E4E4E4"/>
<path fill-rule="evenodd" clip-rule="evenodd" d="M40.3613 103.286L40.5971 99.4815C41.9775 99.8856 43.7065 99.7271 45.784 99.0059C48.0179 100.59 50.8301 101.671 54.2205 102.251L54.2205 102.251C54.4792 102.295 54.6531 102.541 54.6089 102.799C54.6061 102.816 54.6023 102.833 54.5977 102.849L54.2717 104L45.784 104L40.8329 104L40.3613 103.286Z" fill="#E4E4E4"/>
<path fill-rule="evenodd" clip-rule="evenodd" d="M31.6375 16.9377C30.562 15.6739 29.834 14.1252 29.9557 12.3897C30.3061 7.38935 37.2597 8.48936 38.6123 11.0131C39.9649 13.5368 39.8042 19.9385 38.0561 20.3896C37.3589 20.5695 35.8738 20.1288 34.3622 19.2168L35.311 25.9358L29.709 25.9358L31.6375 16.9377Z" fill="#B28B67"/>
<path fill-rule="evenodd" clip-rule="evenodd" d="M35.4196 8.10441C34.6813 7.98321 32.6933 7.89988 32.3267 7.89993C32.0924 7.89993 31.8385 7.95351 31.6997 7.73817C31.5861 7.56183 31.6277 7.26358 31.5938 7.05894C31.5544 6.82122 31.4985 6.58656 31.4419 6.3525C31.2809 5.68646 31.0375 5.0528 30.6969 4.45787C30.0577 3.34172 29.1213 2.46743 27.9392 1.95868C26.6339 1.39695 25.1567 1.26832 23.7526 1.38226C22.25 1.50416 20.8898 2.0007 19.4711 2.46797C18.1192 2.91323 16.7032 3.0885 15.2892 2.87106C13.8646 2.652 12.7881 1.87907 11.5865 1.14545C10.3563 0.394413 8.9505 -0.0967952 7.49624 0.0161219C6.13873 0.121561 4.88758 0.68265 3.76505 1.43219C2.71481 2.13347 1.84822 2.9772 1.35896 4.16468C0.4576 6.3525 0.833113 6.84419 1.69863 7.97309C2.95317 9.60945 5.28216 10.0326 7.21979 9.99054C8.34054 9.96628 9.44126 9.76148 10.4994 9.38894C11.9105 8.89209 13.13 8.04997 14.4501 7.36671C15.0697 7.04609 15.7101 6.78276 16.3813 6.59307C17.0327 6.40893 17.6743 6.32447 18.264 6.71836C18.8879 7.13507 19.447 7.5444 20.1607 7.80525C20.8454 8.05551 21.5707 8.19549 22.3002 8.18984C23.7195 8.17886 25.1186 7.73618 26.4971 7.43966C27.6213 7.1979 28.8241 6.95695 29.9701 7.18934C30.4483 7.28634 31.1468 7.48657 31.3196 7.98407C28.4125 8.51148 27.2707 12.1104 28.0903 14.7524C28.5326 16.1783 31.1915 17.8453 32.2253 17.0956C32.8802 16.6207 32.4826 15.9972 32.2253 15.5856C31.7325 14.7974 31.5639 13.7849 32.4757 13.2361C33.2623 12.7628 34.0893 13.8868 34.1049 13.8856C34.3211 13.8685 36.1891 12.811 37.4761 11.2678C38.7457 11.3432 38.9383 10.5052 38.6352 9.81983C38.332 9.13449 36.4398 8.27198 35.4196 8.10441Z" fill="#193434"/>
<path fill-rule="evenodd" clip-rule="evenodd" d="M48.3953 41.6221L55.0075 48.0792C56.9314 48.9006 58.5078 49.8077 59.7366 50.8004C60.013 51.1341 60.3138 51.7734 59.0136 51.4874C57.7134 51.2013 56.333 50.9589 56.0886 51.3821C55.8442 51.8054 56.5643 52.454 56.1127 53.0079C55.8116 53.3772 54.799 52.2026 53.075 49.4839L46.1991 45.426L48.3953 41.6221ZM19.0462 42.5327L23.924 42.5519C20.9122 52.2845 19.2863 57.4486 19.0462 58.0441C18.5061 59.384 19.6491 61.4247 20.1379 62.5213C18.5459 63.2344 18.7156 60.5936 16.7074 61.5289C14.8744 62.3825 13.4801 63.9292 11.3624 62.6212C11.102 62.4603 10.8167 61.8549 11.5061 61.3817C13.2235 60.2029 15.6984 58.1397 16.0328 57.4606C16.4888 56.5345 17.4933 51.5586 19.0462 42.5327Z" fill="#B28B67"/>
<path fill-rule="evenodd" clip-rule="evenodd" d="M32.6832 24.9878L33.9862 23.4063C42.2856 27.7179 52.0306 29.7343 63.2213 29.4554L63.4543 39.7591C50.3013 37.7572 39.4549 33.3418 32.6832 24.9878Z" fill="#277E25"/>
<path fill-rule="evenodd" clip-rule="evenodd" d="M24.1094 47.4346L42.0825 47.4346C37.9186 37.2998 35.8366 28.6904 35.8366 21.6065L30.415 20.7979C26.1541 27.6576 24.9508 36.1034 24.1094 47.4346Z" fill="#DFE4EA"/>
<path fill-rule="evenodd" clip-rule="evenodd" d="M30.2999 20.8017C30.3006 20.8004 30.3013 20.7991 30.302 20.7979L30.6559 20.7979C31.0794 20.8124 31.7244 20.8387 32.5909 20.8768L33.901 24.6244C34.0395 29.1937 34.8488 38.402 36.3287 52.2493L24.547 52.2493C24.5779 53.2057 24.6288 54.171 24.6998 55.1453L15.9395 55.1453C17.2498 40.3464 22.0352 28.8973 30.2956 20.7979L30.2999 20.8017V20.8017Z" fill="#32A52F"/>
<path fill-rule="evenodd" clip-rule="evenodd" d="M25.3257 40.012C25.661 45.9736 26.5005 50.0834 27.8441 52.3413L24.5505 52.3413C24.4063 48.052 24.6647 43.9422 25.3257 40.012V40.012Z" fill="black" fill-opacity="0.1"/>
<path fill-rule="evenodd" clip-rule="evenodd" d="M27.1699 45.0981L32.9795 42.3945L32.9795 45.0981L27.1699 45.0981Z" fill="white" fill-opacity="0.2"/>
<path d="M49.4211 40L45 46L56.5789 58L65 55.7778L49.4211 40Z" fill="white"/>
<path d="M107.733 15.4031C107.303 22.3274 101.515 27.8048 94.4499 27.8048C87.3852 27.8048 81.5968 22.3274 81.1664 15.4031C81.1516 15.6836 81.1367 15.9641 81.1367 16.2446C81.1367 23.5528 87.0883 29.4879 94.4499 29.4879C101.812 29.4879 107.763 23.5675 107.763 16.2446C107.748 15.9641 107.748 15.6836 107.733 15.4031Z" fill="#3F3D56"/>
<path d="M94.4505 2.85376C87.9498 2.85376 82.666 8.10972 82.666 14.5763C82.666 21.0429 87.9498 26.2989 94.4505 26.2989C100.951 26.2989 106.235 21.0429 106.235 14.5763C106.235 8.10972 100.936 2.85376 94.4505 2.85376ZM94.2724 12.1846L92.432 12.1846L92.432 18.9465L90.8439 18.9465L90.8439 12.1846L89.0035 12.1846L89.0035 10.8263L94.2724 10.8263L94.2724 12.1846ZM99.8827 13.41C99.4968 12.9523 98.9773 12.7899 98.5469 12.7899C98.1165 12.7899 97.6712 12.9375 97.3595 13.2328C97.1072 13.469 96.8401 13.9267 96.8401 14.5763C96.8401 15.1226 97.033 15.6098 97.3595 15.9051C97.6119 16.1413 98.0274 16.3185 98.5172 16.3185C98.9328 16.3185 99.4968 16.2004 99.8827 15.6984L99.8827 17.4405C99.5116 17.6177 99.1406 17.7211 98.7398 17.7358L98.7398 19.0646L97.5822 19.0646L97.5822 17.7653C96.7955 17.6472 96.2316 17.2781 95.8753 16.909C95.5933 16.6138 94.9997 15.8756 94.9997 14.5616C94.9997 13.5281 95.3707 12.7456 95.9347 12.1846C96.2612 11.8598 96.7955 11.4759 97.5822 11.3283L97.5822 10.0438L98.7398 10.0438L98.7398 11.343C99.1406 11.3578 99.5116 11.4611 99.8827 11.6531L99.8827 13.41Z" fill="#99CC33"/>
<path d="M59.8361 50L62 59H60.8197C60.2295 56.7333 58.7738 52.04 57.6721 51.4C56.5705 50.76 52.7541 51.1333 50.9836 51.4L50 50H59.8361Z" fill="#6E727C"/>
<path d="M99.9834 104C98.4964 104 97.291 102.793 97.291 101.305C97.291 99.8163 98.4964 98.6096 99.9834 98.6096C101.47 98.6096 102.676 99.8163 102.676 101.305C102.676 102.793 101.47 104 99.9834 104Z" fill="#3F3D56"/>
<path d="M73.0596 104C71.5726 104 70.3672 102.793 70.3672 101.305C70.3672 99.8163 71.5726 98.6096 73.0596 98.6096C74.5465 98.6096 75.752 99.8163 75.752 101.305C75.752 102.793 74.5465 104 73.0596 104Z" fill="#3F3D56"/>
<path d="M47.5624 50.4145C46.5128 50.4145 45.6619 49.5627 45.6619 48.5121C45.6619 47.4614 46.5128 46.6096 47.5624 46.6096C48.612 46.6096 49.4629 47.4614 49.4629 48.5121C49.4629 49.5627 48.612 50.4145 47.5624 50.4145Z" fill="#3F3D56"/>
<path d="M67.9328 81.8049L102.486 81.8049L109.963 57.0732L60.2332 57.0732L60.2784 57.2189L67.9328 81.8049Z" fill="#3F3D56"/>
<path d="M67.0811 89.7711C67.228 87.4578 68.3661 83.6265 68.9169 82H72.2213C70.9975 83.8072 68.513 87.8916 68.3662 89.7711C68.1826 92.1205 68.1826 94.1084 69.8348 95.3735C71.1566 96.3855 93.5166 95.7952 104.531 95.3735L106 97H71.8739C69.1948 97 66.9782 94.8873 67.0034 92.2082C67.0115 91.3473 67.0347 90.5015 67.0811 89.7711Z" fill="#6E727C"/>
<rect x="113" y="31" width="10" height="3" rx="1.5" fill="#C4C4C4"/>
<rect x="115" y="32" width="6" height="1" rx="0.5" fill="#3F3D56"/>
<path d="M113 40.5C113 39.6716 113.672 39 114.5 39H136.5C137.328 39 138 39.6716 138 40.5V41.5C138 42.3284 137.328 43 136.5 43H114.5C113.672 43 113 42.3284 113 41.5V40.5Z" fill="#DFE4EA"/>
<path d="M111 44.5C111 43.6716 111.672 43 112.5 43H137.5C138.328 43 139 43.6716 139 44.5V51.5C139 52.3284 138.328 53 137.5 53H112.5C111.672 53 111 52.3284 111 51.5V44.5Z" fill="#858891"/>
</svg>
