<svg width="192" height="160" viewBox="0 0 192 160" fill="none" xmlns="http://www.w3.org/2000/svg">
<g clip-path="url(#clip0)">
<path d="M8.92193 152.463C11.5852 157.393 17.2375 159.51 17.2375 159.51C17.2375 159.51 18.5719 153.633 15.9086 148.702C13.2454 143.772 7.59308 141.655 7.59308 141.655C7.59308 141.655 6.2587 147.533 8.92193 152.463Z" fill="#2F2E41"/>
<path d="M10.7521 150.841C15.5603 153.729 17.4121 159.465 17.4121 159.465C17.4121 159.465 11.4683 160.519 6.66003 157.631C1.8518 154.743 0 149.007 0 149.007C0 149.007 5.94388 147.953 10.7521 150.841Z" fill="#32A52F"/>
<path d="M118.554 7.68115H88.5537V8.10898H118.554V7.68115Z" fill="#F2F2F2"/>
<path d="M110.41 8.00195H109.981V11.9593H110.41V8.00195Z" fill="#F2F2F2"/>
<path d="M97.3387 8.00195H96.9102V11.9593H97.3387V8.00195Z" fill="#F2F2F2"/>
<path d="M133.768 28.2166H103.768V28.6444H133.768V28.2166Z" fill="#F2F2F2"/>
<path d="M112.339 24.3662H111.91V28.3236H112.339V24.3662Z" fill="#F2F2F2"/>
<path d="M125.41 24.3662H124.981V28.3236H125.41V24.3662Z" fill="#F2F2F2"/>
<path d="M173.624 37.8428H143.624V38.2706H173.624V37.8428Z" fill="#F2F2F2"/>
<path d="M152.196 33.9922H151.768V37.9496H152.196V33.9922Z" fill="#F2F2F2"/>
<path d="M165.267 33.9922H164.839V37.9496H165.267V33.9922Z" fill="#F2F2F2"/>
<path d="M170.624 137.098H140.624V137.526H170.624V137.098Z" fill="#F2F2F2"/>
<path d="M149.196 133.247H148.768V137.205H149.196V133.247Z" fill="#F2F2F2"/>
<path d="M162.267 133.247H161.839V137.205H162.267V133.247Z" fill="#F2F2F2"/>
<path d="M119.41 68.4321H89.4102V68.8599H119.41V68.4321Z" fill="#F2F2F2"/>
<path d="M97.9823 64.5818H97.5537V68.5392H97.9823V64.5818Z" fill="#F2F2F2"/>
<path d="M111.054 64.5818H110.625V68.5392H111.054V64.5818Z" fill="#F2F2F2"/>
<path d="M128.839 119.985H98.8389V120.413H128.839V119.985Z" fill="#F2F2F2"/>
<path d="M107.41 116.135H106.981V120.092H107.41V116.135Z" fill="#F2F2F2"/>
<path d="M120.482 116.135H120.054V120.092H120.482V116.135Z" fill="#F2F2F2"/>
<path d="M176.839 104.369H146.839V104.797H176.839V104.369Z" fill="#F2F2F2"/>
<path d="M155.41 100.519H154.981V104.476H155.41V100.519Z" fill="#F2F2F2"/>
<path d="M168.482 100.519H168.054V104.476H168.482V100.519Z" fill="#F2F2F2"/>
<path d="M77.5846 150.206H26.8447V149.841H77.2194V132.168H31.1103L28.8704 127.509L29.1995 127.352L31.34 131.803H77.5846V150.206Z" fill="#2F2E41"/>
<path d="M33.5975 159.133C35.7144 159.133 37.4304 157.42 37.4304 155.307C37.4304 153.194 35.7144 151.481 33.5975 151.481C31.4807 151.481 29.7646 153.194 29.7646 155.307C29.7646 157.42 31.4807 159.133 33.5975 159.133Z" fill="#3F3D56"/>
<path d="M71.3788 159.133C73.4956 159.133 75.2117 157.42 75.2117 155.307C75.2117 153.194 73.4956 151.481 71.3788 151.481C69.2619 151.481 67.5459 153.194 67.5459 155.307C67.5459 157.42 69.2619 159.133 71.3788 159.133Z" fill="#3F3D56"/>
<path d="M115.913 76.4149C117.223 76.4149 118.285 75.3545 118.285 74.0463C118.285 72.7382 117.223 71.6777 115.913 71.6777C114.602 71.6777 113.54 72.7382 113.54 74.0463C113.54 75.3545 114.602 76.4149 115.913 76.4149Z" fill="#3F3D56"/>
<path d="M83.0109 126.155H25.979L13.6387 85.8892H95.7196L95.6449 86.1261L83.0109 126.155ZM26.2491 125.791H82.7431L95.2219 86.2536H14.132L26.2491 125.791Z" fill="#2F2E41"/>
<path d="M78.5591 124.06H28.466L17.627 88.3489H89.7215L89.6559 88.5591L78.5591 124.06Z" fill="#F2F2F2"/>
<path d="M96.7426 82.292L96.3896 82.1985L98.7984 73.1353H112.81V73.4998H99.0794L96.7426 82.292Z" fill="#2F2E41"/>
<path d="M91.6183 98.0964H17.627V98.4608H91.6183V98.0964Z" fill="#2F2E41"/>
<path d="M87.3809 111.522H21.7412V111.886H87.3809V111.522Z" fill="#2F2E41"/>
<path d="M54.8611 86.0713H54.4961V125.973H54.8611V86.0713Z" fill="#2F2E41"/>
<path d="M71.2044 86.06L68.584 125.961L68.9483 125.985L71.5687 86.0839L71.2044 86.06Z" fill="#2F2E41"/>
<path d="M38.1602 86.0595L37.7959 86.0833L40.4011 125.985L40.7654 125.961L38.1602 86.0595Z" fill="#2F2E41"/>
<path d="M192 159.364H0V159.792H192V159.364Z" fill="#2F2E41"/>
<path d="M127.588 13.236C127.588 13.236 130.72 22.1361 128.793 23.5053C126.865 24.8746 135.299 36.0567 135.299 36.0567L145.419 33.3182L139.877 23.9617C139.877 23.9617 139.154 14.6052 139.154 13.236C139.154 11.8667 127.588 13.236 127.588 13.236Z" fill="#A0616A"/>
<path opacity="0.1" d="M127.588 13.236C127.588 13.236 130.72 22.1361 128.793 23.5053C126.865 24.8746 135.299 36.0567 135.299 36.0567L145.419 33.3182L139.877 23.9617C139.877 23.9617 139.154 14.6052 139.154 13.236C139.154 11.8667 127.588 13.236 127.588 13.236Z" fill="black"/>
<path d="M122.33 76.6775C122.33 76.6775 121.416 88.0879 122.33 94.0213C123.245 99.9546 124.616 116.386 124.616 116.386C124.616 116.386 124.616 147.422 129.646 147.878C134.675 148.335 138.333 148.791 138.79 146.965C139.247 145.14 136.504 144.227 137.875 143.314C139.247 142.401 139.704 139.206 137.875 135.555C136.047 131.904 137.875 94.9341 137.875 94.9341L146.562 118.211C146.562 118.211 147.477 137.381 148.391 140.119C149.306 142.858 147.477 147.878 150.677 148.335C153.878 148.791 157.536 146.052 159.364 145.14C161.193 144.227 156.621 144.227 157.536 143.77C158.45 143.314 161.193 141.945 160.279 141.488C159.364 141.032 158.45 119.124 158.45 119.124C158.45 119.124 155.935 72.3416 152.735 70.5159C149.534 68.6903 147.477 71.8349 147.477 71.8349L122.33 76.6775Z" fill="#2F2E41"/>
<path d="M130.56 146.052V149.704C130.56 149.704 126.445 159.629 130.56 159.629C134.675 159.629 137.876 160.658 137.876 159.289V146.965L130.56 146.052Z" fill="#2F2E41"/>
<path d="M157.535 146.046V149.697C157.535 149.697 161.65 159.623 157.535 159.623C153.42 159.623 150.22 160.651 150.22 159.282V146.959L157.535 146.046Z" fill="#2F2E41"/>
<path d="M133.989 19.854C138.534 19.854 142.218 16.1758 142.218 11.6386C142.218 7.10128 138.534 3.4231 133.989 3.4231C129.443 3.4231 125.759 7.10128 125.759 11.6386C125.759 16.1758 129.443 19.854 133.989 19.854Z" fill="#A0616A"/>
<path d="M131.474 26.9285C131.474 26.9285 133.76 33.7747 137.418 32.4054L141.075 31.0362L147.476 74.852C147.476 74.852 142.447 82.1546 135.132 77.5904C127.816 73.0263 131.474 26.9285 131.474 26.9285Z" fill="#32A52F"/>
<path d="M137.875 25.5593L139.932 21.2234C139.932 21.2234 152.049 26.9286 153.877 28.7542C155.706 30.5799 155.706 33.3184 155.706 33.3184L152.506 44.7287C152.506 44.7287 153.42 69.8315 153.42 70.7443C153.42 71.6572 156.621 76.6777 154.335 74.8521C152.049 73.0264 151.591 71.2007 149.763 73.9392C147.934 76.6777 143.819 79.8726 143.819 79.8726L137.875 25.5593Z" fill="#3F3D56"/>
<path d="M153.878 58.4209L152.506 71.2005C152.506 71.2005 144.276 78.5031 146.105 78.9595C147.934 79.4159 148.848 77.5903 148.848 77.5903C148.848 77.5903 152.049 80.7852 153.878 78.9595C155.706 77.1339 160.279 59.7901 160.279 59.7901L153.878 58.4209Z" fill="#A0616A"/>
<path d="M134.164 0.027781C132.34 -0.0373274 130.387 -0.0695342 128.849 0.911924C128.141 1.40448 127.52 2.0111 127.012 2.70697C125.514 4.59762 124.219 6.9765 124.776 9.32228L125.422 9.07063C125.422 9.69679 125.283 10.3151 125.014 10.8809C125.105 10.6167 125.41 11.0438 125.328 11.311L124.616 13.6428C125.787 13.2145 127.243 14.0817 127.421 15.3134C127.502 12.605 127.784 9.49935 129.985 7.91348C131.094 7.11373 132.499 6.86959 133.851 6.65279C135.097 6.45278 136.404 6.26206 137.599 6.6718C138.793 7.08153 139.81 8.30073 139.539 9.532C140.09 9.34265 140.706 9.72573 140.978 10.2397C141.25 10.7537 141.264 11.3601 141.272 11.9414C141.859 12.3555 142.527 11.5332 142.766 10.8566C143.328 9.26849 143.827 7.57793 143.525 5.92106C143.222 4.26418 141.87 2.68078 140.182 2.67516C140.387 2.45062 140.496 2.15537 140.487 1.85187L139.097 1.73458C139.45 1.68468 139.774 1.51381 140.015 1.25123C139.457 1.86451 135.067 0.0599982 134.164 0.027781Z" fill="#2F2E41"/>
<path d="M133.761 24.19C133.761 24.19 130.039 20.549 128.699 20.7721C127.36 20.9951 125.531 24.19 125.531 24.19C125.531 24.19 114.558 27.8413 115.015 31.4926C115.472 35.1439 120.501 52.9441 120.501 52.9441C120.501 52.9441 124.616 74.3955 120.959 76.6776C117.301 78.9597 138.333 84.8931 138.79 82.1546C139.247 79.4161 140.162 52.0312 138.79 47.9235C137.418 43.8158 133.761 24.19 133.761 24.19Z" fill="#3F3D56"/>
<path d="M149.763 31.4927H155.416C155.416 31.4927 159.364 48.8364 159.821 50.6621C160.279 52.4877 161.193 61.1596 160.736 61.1596C160.279 61.1596 151.134 59.3339 151.134 60.7032L149.763 31.4927Z" fill="#3F3D56"/>
<path d="M149.571 74.4414H127.928C125.816 64.7426 125.64 55.3719 127.928 46.4189H149.571C146.078 55.2109 145.86 64.5174 149.571 74.4414Z" fill="#F2F2F2"/>
<path d="M119.13 62.5287L125.531 65.2673C125.531 65.2673 137.876 67.0929 137.876 62.0723C137.876 57.0518 125.531 59.7903 125.531 59.7903L121.416 58.4768L119.13 62.5287Z" fill="#A0616A"/>
<path d="M120.502 28.7542L115.015 30.1234L110.9 54.3133C110.9 54.3133 109.529 60.7031 111.815 61.1595C114.101 61.616 120.502 65.2673 120.502 65.2673C120.502 65.2673 121.416 58.4211 123.245 58.4211L118.673 54.7698L121.416 38.7953L120.502 28.7542Z" fill="#3F3D56"/>
<path d="M42.9102 75.4912H12.9102V75.919H42.9102V75.4912Z" fill="#F2F2F2"/>
<path d="M21.4823 71.6409H21.0537V75.5983H21.4823V71.6409Z" fill="#F2F2F2"/>
<path d="M34.5536 71.6409H34.125V75.5983H34.5536V71.6409Z" fill="#F2F2F2"/>
<path d="M53.4102 12.1733H23.4102V12.6012H53.4102V12.1733Z" fill="#F2F2F2"/>
<path d="M45.2674 12.4941H44.8389V16.4515H45.2674V12.4941Z" fill="#F2F2F2"/>
<path d="M32.1961 12.4941H31.7676V16.4515H32.1961V12.4941Z" fill="#F2F2F2"/>
<path d="M83.625 54.314H53.625V54.7418H83.625V54.314Z" fill="#F2F2F2"/>
<path d="M75.4823 54.6348H75.0537V58.5921H75.4823V54.6348Z" fill="#F2F2F2"/>
<path d="M62.41 54.6348H61.9814V58.5921H62.41V54.6348Z" fill="#F2F2F2"/>
<path d="M32.625 54.1001H2.625V54.5279H32.625V54.1001Z" fill="#F2F2F2"/>
<path d="M24.4823 54.4209H24.0537V58.3783H24.4823V54.4209Z" fill="#F2F2F2"/>
<path d="M11.41 54.4209H10.9814V58.3783H11.41V54.4209Z" fill="#F2F2F2"/>
<path d="M68.625 32.7087H38.625V33.1366H68.625V32.7087Z" fill="#F2F2F2"/>
<path d="M47.1962 28.8584H46.7676V32.8158H47.1962V28.8584Z" fill="#F2F2F2"/>
<path d="M60.2674 28.8584H59.8389V32.8158H60.2674V28.8584Z" fill="#F2F2F2"/>
</g>
<defs>
<clipPath id="clip0">
<rect width="192" height="160" fill="white"/>
</clipPath>
</defs>
</svg>
